Istok-Bold.ufo
<glyph name="dollar" format="2">
  <advance width="1200"/>
  <unicode hex="0024"/>
  <outline>
    <contour>
      <point x="136.0" y="84.0" type="qcurve" smooth="yes"/>
      <point x="64.0" y="149.0"/>
      <point x="100.0" y="200.0" type="qcurve" smooth="yes"/>
      <point x="169.0" y="298.0" type="line" smooth="yes"/>
      <point x="203.0" y="346.0"/>
      <point x="273.0" y="288.0" type="qcurve" smooth="yes"/>
      <point x="327.0" y="243.0"/>
      <point x="476.0" y="196.0"/>
      <point x="530.0" y="189.0" type="qcurve"/>
      <point x="530.0" y="612.0" type="line"/>
      <point x="451.0" y="641.0"/>
      <point x="361.0" y="691.0" type="qcurve" smooth="yes"/>
      <point x="315.0" y="717.0"/>
      <point x="206.0" y="828.0"/>
      <point x="140.0" y="974.0"/>
      <point x="140.0" y="1082.0" type="qcurve" smooth="yes"/>
      <point x="140.0" y="1224.0"/>
      <point x="300.0" y="1406.0"/>
      <point x="440.0" y="1447.0"/>
      <point x="530.0" y="1454.0" type="qcurve"/>
      <point x="530.0" y="1556.0" type="line" smooth="yes"/>
      <point x="530.0" y="1616.0"/>
      <point x="580.0" y="1616.0" type="qcurve" smooth="yes"/>
      <point x="660.0" y="1616.0" type="line" smooth="yes"/>
      <point x="710.0" y="1616.0"/>
      <point x="710.0" y="1556.0" type="qcurve" smooth="yes"/>
      <point x="710.0" y="1454.0" type="line"/>
      <point x="782.0" y="1445.0"/>
      <point x="938.0" y="1383.0"/>
      <point x="987.0" y="1347.0" type="qcurve" smooth="yes"/>
      <point x="1045.0" y="1304.0"/>
      <point x="1014.0" y="1257.0" type="qcurve" smooth="yes"/>
      <point x="946.0" y="1153.0" type="line" smooth="yes"/>
      <point x="910.0" y="1099.0"/>
      <point x="860.0" y="1145.0" type="qcurve" smooth="yes"/>
      <point x="822.0" y="1180.0"/>
      <point x="742.0" y="1214.0"/>
      <point x="710.0" y="1223.0" type="qcurve"/>
      <point x="710.0" y="833.0" type="line"/>
      <point x="793.0" y="804.0"/>
      <point x="880.0" y="759.0" type="qcurve" smooth="yes"/>
      <point x="944.0" y="726.0"/>
      <point x="1036.0" y="632.0"/>
      <point x="1099.0" y="492.0"/>
      <point x="1099.0" y="373.0" type="qcurve" smooth="yes"/>
      <point x="1099.0" y="240.0"/>
      <point x="982.0" y="62.0"/>
      <point x="824.0" y="-20.0"/>
      <point x="710.0" y="-32.0" type="qcurve"/>
      <point x="710.0" y="-150.0" type="line" smooth="yes"/>
      <point x="710.0" y="-210.0"/>
      <point x="660.0" y="-210.0" type="qcurve" smooth="yes"/>
      <point x="580.0" y="-210.0" type="line" smooth="yes"/>
      <point x="530.0" y="-210.0"/>
      <point x="530.0" y="-150.0" type="qcurve" smooth="yes"/>
      <point x="530.0" y="-32.0" type="line"/>
      <point x="428.0" y="-27.0"/>
      <point x="201.0" y="24.0"/>
    </contour>
    <contour>
      <point x="396.0" y="1084.0" type="qcurve" smooth="yes"/>
      <point x="396.0" y="1012.0"/>
      <point x="456.0" y="938.0"/>
      <point x="488.0" y="923.0" type="qcurve" smooth="yes"/>
      <point x="505.0" y="915.0"/>
      <point x="530.0" y="905.0" type="qcurve"/>
      <point x="530.0" y="1229.0" type="line"/>
      <point x="475.0" y="1219.0"/>
      <point x="396.0" y="1142.0"/>
    </contour>
    <contour>
      <point x="710.0" y="192.0" type="line"/>
      <point x="747.0" y="203.0"/>
      <point x="839.0" y="272.0"/>
      <point x="839.0" y="366.0" type="qcurve" smooth="yes"/>
      <point x="839.0" y="431.0"/>
      <point x="798.0" y="506.0"/>
      <point x="744.0" y="532.0" type="qcurve" smooth="yes"/>
      <point x="728.0" y="540.0"/>
      <point x="710.0" y="548.0" type="qcurve"/>
    </contour>
  </outline>
</glyph>
<glyph name="parenright" format="2">
  <advance width="740"/>
  <unicode hex="0029"/>
  <outline>
    <contour>
      <point x="73.0" y="-383.0" type="line" smooth="yes"/>
      <point x="39.0" y="-356.0"/>
      <point x="73.0" y="-311.0" type="qcurve" smooth="yes"/>
      <point x="152.0" y="-208.0"/>
      <point x="325.0" y="169.0"/>
      <point x="325.0" y="544.0" type="qcurve" smooth="yes"/>
      <point x="325.0" y="919.0"/>
      <point x="152.0" y="1296.0"/>
      <point x="73.0" y="1399.0" type="qcurve" smooth="yes"/>
      <point x="39.0" y="1444.0"/>
      <point x="73.0" y="1471.0" type="qcurve" smooth="yes"/>
      <point x="157.0" y="1538.0" type="line" smooth="yes"/>
      <point x="189.0" y="1564.0"/>
      <point x="241.0" y="1514.0" type="qcurve" smooth="yes"/>
      <point x="368.0" y="1392.0"/>
      <point x="625.0" y="914.0"/>
      <point x="625.0" y="544.0" type="qcurve" smooth="yes"/>
      <point x="625.0" y="174.0"/>
      <point x="368.0" y="-304.0"/>
      <point x="241.0" y="-426.0" type="qcurve" smooth="yes"/>
      <point x="189.0" y="-476.0"/>
      <point x="157.0" y="-450.0" type="qcurve" smooth="yes"/>
    </contour>
  </outline>
</glyph>
<glyph name="asterisk" format="2">
  <advance width="960"/>
  <unicode hex="002A"/>
  <outline>
    <contour>
      <point x="348.0" y="1058.0" type="line"/>
      <point x="152.0" y="1142.0" type="line" smooth="yes"/>
      <point x="66.0" y="1179.0"/>
      <point x="108.0" y="1253.0" type="qcurve" smooth="yes"/>
      <point x="126.0" y="1284.0" type="line" smooth="yes"/>
      <point x="168.0" y="1356.0"/>
      <point x="243.0" y="1300.0" type="qcurve" smooth="yes"/>
      <point x="414.0" y="1172.0" type="line"/>
      <point x="389.0" y="1385.0" type="line" smooth="yes"/>
      <point x="378.0" y="1478.0"/>
      <point x="462.0" y="1478.0" type="qcurve" smooth="yes"/>
      <point x="498.0" y="1478.0" type="line" smooth="yes"/>
      <point x="582.0" y="1478.0"/>
      <point x="571.0" y="1385.0" type="qcurve" smooth="yes"/>
      <point x="546.0" y="1172.0" type="line"/>
      <point x="717.0" y="1300.0" type="line" smooth="yes"/>
      <point x="793.0" y="1357.0"/>
      <point x="835.0" y="1283.0" type="qcurve" smooth="yes"/>
      <point x="853.0" y="1252.0" type="line" smooth="yes"/>
      <point x="895.0" y="1179.0"/>
      <point x="808.0" y="1142.0" type="qcurve" smooth="yes"/>
      <point x="612.0" y="1058.0" type="line"/>
      <point x="809.0" y="973.0" type="line" smooth="yes"/>
      <point x="895.0" y="936.0"/>
      <point x="853.0" y="864.0" type="qcurve" smooth="yes"/>
      <point x="835.0" y="833.0" type="line" smooth="yes"/>
      <point x="793.0" y="760.0"/>
      <point x="718.0" y="816.0" type="qcurve" smooth="yes"/>
      <point x="546.0" y="944.0" type="line"/>
      <point x="571.0" y="732.0" type="line" smooth="yes"/>
      <point x="582.0" y="638.0"/>
      <point x="497.0" y="638.0" type="qcurve" smooth="yes"/>
      <point x="462.0" y="638.0" type="line" smooth="yes"/>
      <point x="378.0" y="638.0"/>
      <point x="389.0" y="732.0" type="qcurve" smooth="yes"/>
      <point x="414.0" y="944.0" type="line"/>
      <point x="243.0" y="816.0" type="line" smooth="yes"/>
      <point x="167.0" y="759.0"/>
      <point x="125.0" y="832.0" type="qcurve" smooth="yes"/>
      <point x="107.0" y="863.0" type="line" smooth="yes"/>
      <point x="64.0" y="936.0"/>
      <point x="152.0" y="974.0" type="qcurve" smooth="yes"/>
    </contour>
  </outline>
</glyph>
<glyph name="hyphen" format="2">
  <advance width="700"/>
  <unicode hex="002D"/>
  <outline>
    <contour>
      <point x="113.0" y="446.0" type="line" smooth="yes"/>
      <point x="53.0" y="446.0"/>
      <point x="53.0" y="496.0" type="qcurve" smooth="yes"/>
      <point x="53.0" y="610.0" type="line" smooth="yes"/>
      <point x="53.0" y="660.0"/>
      <point x="113.0" y="660.0" type="qcurve" smooth="yes"/>
      <point x="587.0" y="660.0" type="line" smooth="yes"/>
      <point x="647.0" y="660.0"/>
      <point x="647.0" y="610.0" type="qcurve" smooth="yes"/>
      <point x="647.0" y="496.0" type="line" smooth="yes"/>
      <point x="647.0" y="446.0"/>
      <point x="587.0" y="446.0" type="qcurve" smooth="yes"/>
    </contour>
  </outline>
</glyph>
<glyph name="period" format="2">
  <advance width="668"/>
  <unicode hex="002E"/>
  <outline>
    <contour>
      <point x="258.0" y="0.0" type="line" smooth="yes"/>
      <point x="188.0" y="0.0"/>
      <point x="188.0" y="75.0" type="qcurve" smooth="yes"/>
      <point x="188.0" y="209.0" type="line" smooth="yes"/>
      <point x="188.0" y="284.0"/>
      <point x="258.0" y="284.0" type="qcurve" smooth="yes"/>
      <point x="410.0" y="284.0" type="line" smooth="yes"/>
      <point x="480.0" y="284.0"/>
      <point x="480.0" y="209.0" type="qcurve" smooth="yes"/>
      <point x="480.0" y="75.0" type="line" smooth="yes"/>
      <point x="480.0" y="0.0"/>
      <point x="410.0" y="0.0" type="qcurve" smooth="yes"/>
    </contour>
  </outline>
</glyph>
<glyph name="one" format="2">
  <advance width="907"/>
  <unicode hex="0031"/>
  <outline>
    <contour>
      <point x="155.0" y="1138.0" type="line" smooth="yes"/>
      <point x="129.0" y="1187.0"/>
      <point x="190.0" y="1214.0" type="qcurve" smooth="yes"/>
      <point x="248.0" y="1240.0"/>
      <point x="374.0" y="1334.0"/>
      <point x="414.0" y="1384.0" type="qcurve" smooth="yes"/>
      <point x="459.0" y="1440.0"/>
      <point x="500.0" y="1440.0" type="qcurve" smooth="yes"/>
      <point x="659.0" y="1440.0" type="line" smooth="yes"/>
      <point x="719.0" y="1440.0"/>
      <point x="719.0" y="1380.0" type="qcurve" smooth="yes"/>
      <point x="719.0" y="60.0" type="line" smooth="yes"/>
      <point x="719.0" y="0.0"/>
      <point x="659.0" y="0.0" type="qcurve" smooth="yes"/>
      <point x="499.0" y="0.0" type="line" smooth="yes"/>
      <point x="439.0" y="0.0"/>
      <point x="439.0" y="60.0" type="qcurve" smooth="yes"/>
      <point x="439.0" y="1011.0" type="line" smooth="yes"/>
      <point x="439.0" y="1051.0"/>
      <point x="443.0" y="1091.0" type="qcurve"/>
      <point x="439.0" y="1091.0" type="line"/>
      <point x="408.0" y="1052.0"/>
      <point x="334.0" y="996.0"/>
      <point x="296.0" y="980.0" type="qcurve" smooth="yes"/>
      <point x="249.0" y="960.0"/>
      <point x="225.0" y="1006.0" type="qcurve" smooth="yes"/>
    </contour>
  </outline>
</glyph>
<glyph name="three" format="2">
  <advance width="1200"/>
  <unicode hex="0033"/>
  <outline>
    <contour>
      <point x="100.0" y="102.0" type="qcurve" smooth="yes"/>
      <point x="60.7234001159668" y="135.23399353027344"/>
      <point x="94.0" y="196.0" type="qcurve" smooth="yes"/>
      <point x="140.0" y="280.0" type="line" smooth="yes"/>
      <point x="173.29200744628906" y="340.7950134277344"/>
      <point x="247.0" y="289.0" type="qcurve" smooth="yes"/>
      <point x="309.0" y="245.0"/>
      <point x="465.0" y="190.0"/>
      <point x="561.0" y="190.0" type="qcurve" smooth="yes"/>
      <point x="693.0" y="190.0"/>
      <point x="807.0" y="333.0"/>
      <point x="807.0" y="422.0" type="qcurve" smooth="yes"/>
      <point x="807.0" y="513.0"/>
      <point x="672.0" y="658.0"/>
      <point x="549.0" y="658.0" type="qcurve" smooth="yes"/>
      <point x="472.0" y="658.0" type="line" smooth="yes"/>
      <point x="407.0" y="658.0"/>
      <point x="407.0" y="711.0" type="qcurve" smooth="yes"/>
      <point x="407.0" y="821.0" type="line" smooth="yes"/>
      <point x="407.0" y="876.0"/>
      <point x="472.0" y="876.0" type="qcurve" smooth="yes"/>
      <point x="532.0" y="876.0" type="line" smooth="yes"/>
      <point x="624.0" y="876.0"/>
      <point x="765.0" y="990.0"/>
      <point x="765.0" y="1076.0" type="qcurve" smooth="yes"/>
      <point x="765.0" y="1143.0"/>
      <point x="672.0" y="1232.0"/>
      <point x="567.0" y="1232.0" type="qcurve" smooth="yes"/>
      <point x="468.0" y="1232.0"/>
      <point x="324.0" y="1174.0"/>
      <point x="282.0" y="1133.0" type="qcurve" smooth="yes"/>
      <point x="222.4010009765625" y="1074.3900146484375"/>
      <point x="179.0" y="1138.0" type="qcurve" smooth="yes"/>
      <point x="121.0" y="1223.0" type="line" smooth="yes"/>
      <point x="88.15029907226562" y="1271.1400146484375"/>
      <point x="141.0" y="1321.0" type="qcurve" smooth="yes"/>
      <point x="213.0" y="1390.0"/>
      <point x="441.0" y="1456.0"/>
      <point x="550.0" y="1456.0" type="qcurve" smooth="yes"/>
      <point x="807.0" y="1456.0"/>
      <point x="1057.0" y="1251.0"/>
      <point x="1057.0" y="1103.0" type="qcurve" smooth="yes"/>
      <point x="1057.0" y="993.0"/>
      <point x="885.0" y="812.0"/>
      <point x="789.0" y="778.0" type="qcurve"/>
      <point x="789.0" y="774.0" type="line"/>
      <point x="903.0" y="746.0"/>
      <point x="1107.0" y="557.0"/>
      <point x="1107.0" y="417.0" type="qcurve" smooth="yes"/>
      <point x="1107.0" y="198.0"/>
      <point x="831.0" y="-34.0"/>
      <point x="548.0" y="-34.0" type="qcurve" smooth="yes"/>
      <point x="429.0" y="-34.0"/>
      <point x="174.0" y="39.0"/>
    </contour>
  </outline>
</glyph>
<glyph name="four" format="2">
  <advance width="1200"/>
  <unicode hex="0034"/>
  <outline>
    <contour>
      <point x="127.0" y="312.0" type="line" smooth="yes"/>
      <point x="62.0" y="312.0"/>
      <point x="62.0" y="377.0" type="qcurve" smooth="yes"/>
      <point x="62.0" y="509.0" type="line" smooth="yes"/>
      <point x="62.0" y="566.0"/>
      <point x="92.0" y="608.0" type="qcurve" smooth="yes"/>
      <point x="646.0" y="1388.0" type="line" smooth="yes"/>
      <point x="683.0" y="1440.0"/>
      <point x="739.0" y="1440.0" type="qcurve" smooth="yes"/>
      <point x="886.0" y="1440.0" type="line" smooth="yes"/>
      <point x="952.0" y="1440.0"/>
      <point x="952.0" y="1375.0" type="qcurve" smooth="yes"/>
      <point x="952.0" y="560.0" type="line"/>
      <point x="1073.0" y="560.0" type="line" smooth="yes"/>
      <point x="1138.0" y="560.0"/>
      <point x="1138.0" y="495.0" type="qcurve" smooth="yes"/>
      <point x="1138.0" y="377.0" type="line" smooth="yes"/>
      <point x="1138.0" y="312.0"/>
      <point x="1074.0" y="312.0" type="qcurve" smooth="yes"/>
      <point x="952.0" y="312.0" type="line"/>
      <point x="952.0" y="65.0" type="line" smooth="yes"/>
      <point x="952.0" y="0.0"/>
      <point x="887.0" y="0.0" type="qcurve" smooth="yes"/>
      <point x="737.0" y="0.0" type="line" smooth="yes"/>
      <point x="672.0" y="0.0"/>
      <point x="672.0" y="65.0" type="qcurve" smooth="yes"/>
      <point x="672.0" y="312.0" type="line"/>
    </contour>
    <contour>
      <point x="341.0" y="560.0" type="line"/>
      <point x="672.0" y="560.0" type="line"/>
      <point x="672.0" y="947.0" type="line" smooth="yes"/>
      <point x="672.0" y="987.0"/>
      <point x="676.0" y="1027.0" type="qcurve"/>
      <point x="672.0" y="1027.0" type="line"/>
    </contour>
  </outline>
</glyph>
<glyph name="seven" format="2">
  <advance width="1112"/>
  <unicode hex="0037"/>
  <outline>
    <contour>
      <point x="148.0" y="1174.0" type="line" smooth="yes"/>
      <point x="83.0" y="1174.0"/>
      <point x="83.0" y="1239.0" type="qcurve" smooth="yes"/>
      <point x="83.0" y="1357.0" type="line" smooth="yes"/>
      <point x="83.0" y="1422.0"/>
      <point x="148.0" y="1422.0" type="qcurve" smooth="yes"/>
      <point x="964.0" y="1422.0" type="line" smooth="yes"/>
      <point x="1029.0" y="1422.0"/>
      <point x="1029.0" y="1357.0" type="qcurve" smooth="yes"/>
      <point x="1029.0" y="1244.0" type="line" smooth="yes"/>
      <point x="1029.0" y="1193.0"/>
      <point x="979.0" y="1137.0" type="qcurve" smooth="yes"/>
      <point x="774.0" y="906.0"/>
      <point x="610.0" y="446.0"/>
      <point x="610.0" y="121.0" type="qcurve" smooth="yes"/>
      <point x="610.0" y="59.0" type="line" smooth="yes"/>
      <point x="610.0" y="-6.0"/>
      <point x="545.0" y="-6.0" type="qcurve" smooth="yes"/>
      <point x="395.0" y="-6.0" type="line" smooth="yes"/>
      <point x="330.0" y="-6.0"/>
      <point x="330.0" y="59.0" type="qcurve" smooth="yes"/>
      <point x="330.0" y="86.0" type="line" smooth="yes"/>
      <point x="330.0" y="447.0"/>
      <point x="569.0" y="939.0"/>
      <point x="767.0" y="1174.0" type="qcurve"/>
      <point x="767.0" y="1178.0" type="line"/>
      <point x="727.0" y="1174.0"/>
      <point x="687.0" y="1174.0" type="qcurve" smooth="yes"/>
    </contour>
  </outline>
</glyph>
<glyph name="eight" format="2">
  <advance width="1200"/>
  <unicode hex="0038"/>
  <outline>
    <contour>
      <point x="86.0" y="383.0" type="qcurve" smooth="yes"/>
      <point x="86.0" y="555.0"/>
      <point x="297.0" y="746.0"/>
      <point x="373.0" y="767.0" type="qcurve"/>
      <point x="373.0" y="772.0" type="line"/>
      <point x="288.0" y="799.0"/>
      <point x="127.0" y="958.0"/>
      <point x="127.0" y="1088.0" type="qcurve" smooth="yes"/>
      <point x="127.0" y="1244.0"/>
      <point x="380.0" y="1456.0"/>
      <point x="600.0" y="1456.0" type="qcurve" smooth="yes"/>
      <point x="820.0" y="1456.0"/>
      <point x="1073.0" y="1244.0"/>
      <point x="1073.0" y="1088.0" type="qcurve" smooth="yes"/>
      <point x="1073.0" y="958.0"/>
      <point x="912.0" y="799.0"/>
      <point x="827.0" y="772.0" type="qcurve"/>
      <point x="827.0" y="767.0" type="line"/>
      <point x="903.0" y="746.0"/>
      <point x="1114.0" y="555.0"/>
      <point x="1114.0" y="383.0" type="qcurve" smooth="yes"/>
      <point x="1114.0" y="198.0"/>
      <point x="873.0" y="-34.0"/>
      <point x="600.0" y="-34.0" type="qcurve" smooth="yes"/>
      <point x="327.0" y="-34.0"/>
      <point x="86.0" y="198.0"/>
    </contour>
    <contour>
      <point x="386.0" y="413.0" type="qcurve" smooth="yes"/>
      <point x="386.0" y="300.0"/>
      <point x="486.0" y="190.0"/>
      <point x="600.0" y="190.0" type="qcurve" smooth="yes"/>
      <point x="714.0" y="190.0"/>
      <point x="814.0" y="300.0"/>
      <point x="814.0" y="413.0" type="qcurve" smooth="yes"/>
      <point x="814.0" y="499.0"/>
      <point x="705.0" y="644.0"/>
      <point x="600.0" y="644.0" type="qcurve" smooth="yes"/>
      <point x="495.0" y="644.0"/>
      <point x="386.0" y="499.0"/>
    </contour>
    <contour>
      <point x="419.0" y="1058.0" type="qcurve" smooth="yes"/>
      <point x="419.0" y="978.0"/>
      <point x="510.0" y="886.0"/>
      <point x="600.0" y="886.0" type="qcurve" smooth="yes"/>
      <point x="690.0" y="886.0"/>
      <point x="781.0" y="978.0"/>
      <point x="781.0" y="1058.0" type="qcurve" smooth="yes"/>
      <point x="781.0" y="1138.0"/>
      <point x="686.0" y="1232.0"/>
      <point x="600.0" y="1232.0" type="qcurve" smooth="yes"/>
      <point x="514.0" y="1232.0"/>
      <point x="419.0" y="1138.0"/>
    </contour>
  </outline>
</glyph>
<glyph name="nine" format="2">
  <advance width="1200"/>
  <unicode hex="0039"/>
  <outline>
    <contour>
      <point x="86.0" y="974.0" type="qcurve" smooth="yes"/>
      <point x="86.0" y="1194.0"/>
      <point x="336.0" y="1456.0"/>
      <point x="593.0" y="1456.0" type="qcurve" smooth="yes"/>
      <point x="867.0" y="1456.0"/>
      <point x="1112.0" y="1089.0"/>
      <point x="1112.0" y="751.0" type="qcurve" smooth="yes"/>
      <point x="1112.0" y="300.0"/>
      <point x="789.0" y="-34.0"/>
      <point x="543.0" y="-34.0" type="qcurve" smooth="yes"/>
      <point x="447.0" y="-34.0"/>
      <point x="257.0" y="21.0"/>
      <point x="206.0" y="66.0" type="qcurve" smooth="yes"/>
      <point x="158.0" y="109.0"/>
      <point x="185.0" y="150.0" type="qcurve" smooth="yes"/>
      <point x="251.0" y="249.0" type="line" smooth="yes"/>
      <point x="283.0" y="298.0"/>
      <point x="344.0" y="249.0" type="qcurve" smooth="yes"/>
      <point x="374.0" y="225.0"/>
      <point x="489.0" y="190.0"/>
      <point x="552.0" y="190.0" type="qcurve" smooth="yes"/>
      <point x="657.0" y="190.0"/>
      <point x="833.0" y="387.0"/>
      <point x="833.0" y="623.0" type="qcurve"/>
      <point x="829.0" y="623.0" type="line"/>
      <point x="784.0" y="555.0"/>
      <point x="624.0" y="496.0"/>
      <point x="509.0" y="496.0" type="qcurve" smooth="yes"/>
      <point x="300.0" y="496.0"/>
      <point x="86.0" y="771.0"/>
    </contour>
    <contour>
      <point x="386.0" y="972.0" type="qcurve" smooth="yes"/>
      <point x="386.0" y="840.0"/>
      <point x="486.0" y="720.0"/>
      <point x="576.0" y="720.0" type="qcurve" smooth="yes"/>
      <point x="675.0" y="720.0"/>
      <point x="784.0" y="882.0"/>
      <point x="784.0" y="979.0" type="qcurve" smooth="yes"/>
      <point x="784.0" y="1101.0"/>
      <point x="684.0" y="1232.0"/>
      <point x="588.0" y="1232.0" type="qcurve" smooth="yes"/>
      <point x="486.0" y="1232.0"/>
      <point x="386.0" y="1122.0"/>
    </contour>
  </outline>
</glyph>
<glyph name="question" format="2">
  <advance width="1106"/>
  <unicode hex="003F"/>
  <outline>
    <contour>
      <point x="114.0" y="1158.0" type="line" smooth="yes"/>
      <point x="62.0" y="1191.0"/>
      <point x="101.0" y="1260.0" type="qcurve" smooth="yes"/>
      <point x="142.0" y="1332.0"/>
      <point x="370.0" y="1468.0"/>
      <point x="544.0" y="1468.0" type="qcurve" smooth="yes"/>
      <point x="781.0" y="1468.0"/>
      <point x="1006.0" y="1254.0"/>
      <point x="1006.0" y="1068.0" type="qcurve" smooth="yes"/>
      <point x="1006.0" y="927.0"/>
      <point x="675.0" y="600.0"/>
      <point x="675.0" y="494.0" type="qcurve" smooth="yes"/>
      <point x="675.0" y="478.0" type="line" smooth="yes"/>
      <point x="675.0" y="413.0"/>
      <point x="610.0" y="413.0" type="qcurve" smooth="yes"/>
      <point x="460.0" y="413.0" type="line" smooth="yes"/>
      <point x="395.0" y="413.0"/>
      <point x="395.0" y="478.0" type="qcurve" smooth="yes"/>
      <point x="395.0" y="508.0" type="line" smooth="yes"/>
      <point x="395.0" y="672.0"/>
      <point x="706.0" y="996.0"/>
      <point x="706.0" y="1074.0" type="qcurve" smooth="yes"/>
      <point x="706.0" y="1155.0"/>
      <point x="631.0" y="1244.0"/>
      <point x="534.0" y="1244.0" type="qcurve" smooth="yes"/>
      <point x="448.0" y="1244.0"/>
      <point x="342.0" y="1166.0"/>
      <point x="308.0" y="1110.0" type="qcurve" smooth="yes"/>
      <point x="275.0" y="1055.0"/>
      <point x="219.0" y="1091.0" type="qcurve" smooth="yes"/>
    </contour>
    <contour>
      <point x="459.0" y="0.0" type="line" smooth="yes"/>
      <point x="389.0" y="0.0"/>
      <point x="389.0" y="75.0" type="qcurve" smooth="yes"/>
      <point x="389.0" y="209.0" type="line" smooth="yes"/>
      <point x="389.0" y="284.0"/>
      <point x="459.0" y="284.0" type="qcurve" smooth="yes"/>
      <point x="611.0" y="284.0" type="line" smooth="yes"/>
      <point x="681.0" y="284.0"/>
      <point x="681.0" y="209.0" type="qcurve" smooth="yes"/>
      <point x="681.0" y="75.0" type="line" smooth="yes"/>
      <point x="681.0" y="0.0"/>
      <point x="611.0" y="0.0" type="qcurve" smooth="yes"/>
    </contour>
  </outline>
</glyph>
<glyph name="A" format="2">
  <advance width="1394"/>
  <unicode hex="0041"/>
  <outline>
    <contour>
      <point x="90.0" y="0.0" type="line" smooth="yes"/>
      <point x="18.0" y="0.0"/>
      <point x="43.0" y="66.0" type="qcurve" smooth="yes"/>
      <point x="533.0" y="1353.0" type="line" smooth="yes"/>
      <point x="564.0" y="1434.0"/>
      <point x="627.0" y="1434.0" type="qcurve" smooth="yes"/>
      <point x="767.0" y="1434.0" type="line" smooth="yes"/>
      <point x="830.0" y="1434.0"/>
      <point x="861.0" y="1353.0" type="qcurve" smooth="yes"/>
      <point x="1351.0" y="66.0" type="line" smooth="yes"/>
      <point x="1376.0" y="0.0"/>
      <point x="1304.0" y="0.0" type="qcurve" smooth="yes"/>
      <point x="1145.0" y="0.0" type="line" smooth="yes"/>
      <point x="1079.0" y="0.0"/>
      <point x="1053.0" y="69.0" type="qcurve" smooth="yes"/>
      <point x="951.0" y="338.0" type="line"/>
      <point x="443.0" y="338.0" type="line"/>
      <point x="341.0" y="69.0" type="line" smooth="yes"/>
      <point x="315.0" y="0.0"/>
      <point x="249.0" y="0.0" type="qcurve" smooth="yes"/>
    </contour>
    <contour>
      <point x="536.0" y="586.0" type="line"/>
      <point x="858.0" y="586.0" type="line"/>
      <point x="735.0" y="904.0" type="line" smooth="yes"/>
      <point x="713.0" y="960.0"/>
      <point x="704.0" y="1011.0"/>
      <point x="699.0" y="1061.0" type="qcurve"/>
      <point x="695.0" y="1061.0" type="line"/>
      <point x="690.0" y="1011.0"/>
      <point x="681.0" y="960.0"/>
      <point x="659.0" y="904.0" type="qcurve" smooth="yes"/>
    </contour>
  </outline>
</glyph>
<glyph name="C" format="2">
  <advance width="1418"/>
  <unicode hex="0043"/>
  <outline>
    <contour>
      <point x="86.0" y="717.0" type="qcurve" smooth="yes"/>
      <point x="86.0" y="1062.0"/>
      <point x="436.0" y="1468.0"/>
      <point x="766.0" y="1468.0" type="qcurve" smooth="yes"/>
      <point x="956.0" y="1468.0"/>
      <point x="1220.0" y="1350.0"/>
      <point x="1274.0" y="1238.0" type="qcurve" smooth="yes"/>
      <point x="1310.0" y="1164.0"/>
      <point x="1262.0" y="1138.0" type="qcurve" smooth="yes"/>
      <point x="1142.0" y="1074.0" type="line" smooth="yes"/>
      <point x="1079.0" y="1040.0"/>
      <point x="1038.0" y="1112.0" type="qcurve" smooth="yes"/>
      <point x="1012.0" y="1158.0"/>
      <point x="871.0" y="1232.0"/>
      <point x="776.0" y="1232.0" type="qcurve" smooth="yes"/>
      <point x="566.0" y="1232.0"/>
      <point x="398.0" y="967.0"/>
      <point x="398.0" y="717.0" type="qcurve" smooth="yes"/>
      <point x="398.0" y="467.0"/>
      <point x="566.0" y="202.0"/>
      <point x="776.0" y="202.0" type="qcurve" smooth="yes"/>
      <point x="889.0" y="202.0"/>
      <point x="1044.0" y="304.0"/>
      <point x="1074.0" y="350.0" type="qcurve" smooth="yes"/>
      <point x="1123.0" y="425.0"/>
      <point x="1178.0" y="388.0" type="qcurve" smooth="yes"/>
      <point x="1298.0" y="308.0" type="line" smooth="yes"/>
      <point x="1347.0" y="275.0"/>
      <point x="1308.0" y="208.0" type="qcurve" smooth="yes"/>
      <point x="1250.0" y="108.0"/>
      <point x="968.0" y="-34.0"/>
      <point x="766.0" y="-34.0" type="qcurve" smooth="yes"/>
      <point x="441.0" y="-34.0"/>
      <point x="86.0" y="372.0"/>
    </contour>
  </outline>
</glyph>
<glyph name="I" format="2">
  <advance width="612"/>
  <unicode hex="0049"/>
  <outline>
    <contour>
      <point x="230.0" y="0.0" type="line" smooth="yes"/>
      <point x="160.0" y="0.0"/>
      <point x="160.0" y="75.0" type="qcurve" smooth="yes"/>
      <point x="160.0" y="1359.0" type="line" smooth="yes"/>
      <point x="160.0" y="1434.0"/>
      <point x="230.0" y="1434.0" type="qcurve" smooth="yes"/>
      <point x="382.0" y="1434.0" type="line" smooth="yes"/>
      <point x="452.0" y="1434.0"/>
      <point x="452.0" y="1359.0" type="qcurve" smooth="yes"/>
      <point x="452.0" y="75.0" type="line" smooth="yes"/>
      <point x="452.0" y="0.0"/>
      <point x="382.0" y="0.0" type="qcurve" smooth="yes"/>
    </contour>
  </outline>
</glyph>
<glyph name="K" format="2">
  <advance width="1361"/>
  <unicode hex="004B"/>
  <outline>
    <contour>
      <point x="230.0" y="0.0" type="line" smooth="yes"/>
      <point x="160.0" y="0.0"/>
      <point x="160.0" y="75.0" type="qcurve" smooth="yes"/>
      <point x="160.0" y="1359.0" type="line" smooth="yes"/>
      <point x="160.0" y="1434.0"/>
      <point x="230.0" y="1434.0" type="qcurve" smooth="yes"/>
      <point x="382.0" y="1434.0" type="line" smooth="yes"/>
      <point x="452.0" y="1434.0"/>
      <point x="452.0" y="1359.0" type="qcurve" smooth="yes"/>
      <point x="452.0" y="961.0" type="line" smooth="yes"/>
      <point x="452.0" y="901.0"/>
      <point x="447.0" y="841.0" type="qcurve"/>
      <point x="454.0" y="841.0" type="line"/>
      <point x="940.0" y="1375.0" type="line" smooth="yes"/>
      <point x="994.0" y="1434.0"/>
      <point x="1032.0" y="1434.0" type="qcurve" smooth="yes"/>
      <point x="1233.0" y="1434.0" type="line" smooth="yes"/>
      <point x="1350.0" y="1434.0"/>
      <point x="1271.0" y="1348.0" type="qcurve" smooth="yes"/>
      <point x="816.0" y="850.0" type="line"/>
      <point x="1303.0" y="86.0" type="line" smooth="yes"/>
      <point x="1358.0" y="0.0"/>
      <point x="1265.0" y="0.0" type="qcurve" smooth="yes"/>
      <point x="1078.0" y="0.0" type="line" smooth="yes"/>
      <point x="1026.0" y="-0.0"/>
      <point x="988.0" y="59.0" type="qcurve" smooth="yes"/>
      <point x="620.0" y="636.0" type="line"/>
      <point x="452.0" y="447.0" type="line"/>
      <point x="452.0" y="75.0" type="line" smooth="yes"/>
      <point x="452.0" y="0.0"/>
      <point x="382.0" y="0.0" type="qcurve" smooth="yes"/>
    </contour>
  </outline>
</glyph>
<glyph name="N" format="2">
  <advance width="1472"/>
  <unicode hex="004E"/>
  <outline>
    <contour>
      <point x="230.0" y="0.0" type="line" smooth="yes"/>
      <point x="160.0" y="0.0"/>
      <point x="160.0" y="75.0" type="qcurve" smooth="yes"/>
      <point x="160.0" y="1359.0" type="line" smooth="yes"/>
      <point x="160.0" y="1434.0"/>
      <point x="230.0" y="1434.0" type="qcurve" smooth="yes"/>
      <point x="378.0" y="1434.0" type="line" smooth="yes"/>
      <point x="464.0" y="1434.0"/>
      <point x="508.0" y="1364.0" type="qcurve" smooth="yes"/>
      <point x="1018.0" y="545.0" type="line"/>
      <point x="1025.0" y="545.0" type="line"/>
      <point x="1020.0" y="605.0"/>
      <point x="1020.0" y="665.0" type="qcurve" smooth="yes"/>
      <point x="1020.0" y="1359.0" type="line" smooth="yes"/>
      <point x="1020.0" y="1434.0"/>
      <point x="1090.0" y="1434.0" type="qcurve" smooth="yes"/>
      <point x="1242.0" y="1434.0" type="line" smooth="yes"/>
      <point x="1312.0" y="1434.0"/>
      <point x="1312.0" y="1359.0" type="qcurve" smooth="yes"/>
      <point x="1312.0" y="75.0" type="line" smooth="yes"/>
      <point x="1312.0" y="0.0"/>
      <point x="1242.0" y="0.0" type="qcurve" smooth="yes"/>
      <point x="1104.0" y="0.0" type="line" smooth="yes"/>
      <point x="1018.0" y="0.0"/>
      <point x="974.0" y="70.0" type="qcurve" smooth="yes"/>
      <point x="454.0" y="904.0" type="line"/>
      <point x="447.0" y="904.0" type="line"/>
      <point x="452.0" y="844.0"/>
      <point x="452.0" y="784.0" type="qcurve" smooth="yes"/>
      <point x="452.0" y="75.0" type="line" smooth="yes"/>
      <point x="452.0" y="0.0"/>
      <point x="382.0" y="0.0" type="qcurve" smooth="yes"/>
    </contour>
  </outline>
</glyph>
<glyph name="O" format="2">
  <advance width="1544"/>
  <unicode hex="004F"/>
  <outline>
    <contour>
      <point x="86.0" y="717.0" type="qcurve" smooth="yes"/>
      <point x="86.0" y="1062.0"/>
      <point x="442.0" y="1468.0"/>
      <point x="772.0" y="1468.0" type="qcurve" smooth="yes"/>
      <point x="1102.0" y="1468.0"/>
      <point x="1458.0" y="1062.0"/>
      <point x="1458.0" y="717.0" type="qcurve" smooth="yes"/>
      <point x="1458.0" y="372.0"/>
      <point x="1102.0" y="-34.0"/>
      <point x="772.0" y="-34.0" type="qcurve" smooth="yes"/>
      <point x="442.0" y="-34.0"/>
      <point x="86.0" y="372.0"/>
    </contour>
    <contour>
      <point x="398.0" y="717.0" type="qcurve" smooth="yes"/>
      <point x="398.0" y="467.0"/>
      <point x="577.0" y="202.0"/>
      <point x="772.0" y="202.0" type="qcurve" smooth="yes"/>
      <point x="967.0" y="202.0"/>
      <point x="1146.0" y="467.0"/>
      <point x="1146.0" y="717.0" type="qcurve" smooth="yes"/>
      <point x="1146.0" y="967.0"/>
      <point x="967.0" y="1232.0"/>
      <point x="772.0" y="1232.0" type="qcurve" smooth="yes"/>
      <point x="577.0" y="1232.0"/>
      <point x="398.0" y="967.0"/>
    </contour>
  </outline>
</glyph>
<glyph name="P" format="2">
  <advance width="1328"/>
  <unicode hex="0050"/>
  <outline>
    <contour>
      <point x="230.0" y="0.0" type="line" smooth="yes"/>
      <point x="160.0" y="0.0"/>
      <point x="160.0" y="75.0" type="qcurve" smooth="yes"/>
      <point x="160.0" y="1359.0" type="line" smooth="yes"/>
      <point x="160.0" y="1434.0"/>
      <point x="230.0" y="1434.0" type="qcurve" smooth="yes"/>
      <point x="604.0" y="1434.0" type="line" smooth="yes"/>
      <point x="964.0" y="1434.0"/>
      <point x="1243.0" y="1200.0"/>
      <point x="1243.0" y="985.0" type="qcurve" smooth="yes"/>
      <point x="1243.0" y="770.0"/>
      <point x="964.0" y="536.0"/>
      <point x="604.0" y="536.0" type="qcurve" smooth="yes"/>
      <point x="452.0" y="536.0" type="line"/>
      <point x="452.0" y="75.0" type="line" smooth="yes"/>
      <point x="452.0" y="0.0"/>
      <point x="382.0" y="0.0" type="qcurve" smooth="yes"/>
    </contour>
    <contour>
      <point x="452.0" y="780.0" type="line"/>
      <point x="603.0" y="780.0" type="line" smooth="yes"/>
      <point x="803.0" y="780.0"/>
      <point x="947.0" y="875.0"/>
      <point x="947.0" y="985.0" type="qcurve" smooth="yes"/>
      <point x="947.0" y="1095.0"/>
      <point x="803.0" y="1190.0"/>
      <point x="603.0" y="1190.0" type="qcurve" smooth="yes"/>
      <point x="452.0" y="1190.0" type="line"/>
    </contour>
  </outline>
</glyph>
<glyph name="Q" format="2">
  <advance width="1544"/>
  <unicode hex="0051"/>
  <outline>
    <contour>
      <point x="86.0" y="717.0" type="qcurve" smooth="yes"/>
      <point x="86.0" y="1062.0"/>
      <point x="442.0" y="1468.0"/>
      <point x="772.0" y="1468.0" type="qcurve" smooth="yes"/>
      <point x="1102.0" y="1468.0"/>
      <point x="1458.0" y="1062.0"/>
      <point x="1458.0" y="717.0" type="qcurve" smooth="yes"/>
      <point x="1458.0" y="372.0"/>
      <point x="1280.0" y="169.0" type="qcurve" smooth="yes"/>
      <point x="1144.0" y="14.0"/>
      <point x="919.0" y="-23.0" type="qcurve"/>
      <point x="928.0" y="-113.0"/>
      <point x="1005.0" y="-202.0"/>
      <point x="1116.0" y="-202.0" type="qcurve" smooth="yes"/>
      <point x="1167.0" y="-202.0"/>
      <point x="1222.0" y="-188.0" type="qcurve" smooth="yes"/>
      <point x="1272.0" y="-175.0"/>
      <point x="1280.0" y="-210.0" type="qcurve" smooth="yes"/>
      <point x="1308.0" y="-326.0" type="line" smooth="yes"/>
      <point x="1317.0" y="-365.0"/>
      <point x="1272.0" y="-376.0" type="qcurve" smooth="yes"/>
      <point x="1154.0" y="-407.0"/>
      <point x="1084.0" y="-407.0" type="qcurve" smooth="yes"/>
      <point x="816.0" y="-407.0"/>
      <point x="637.0" y="-181.0"/>
      <point x="626.0" y="-23.0" type="qcurve"/>
      <point x="400.0" y="13.0"/>
      <point x="264.0" y="169.0" type="qcurve" smooth="yes"/>
      <point x="86.0" y="372.0"/>
    </contour>
    <contour>
      <point x="398.0" y="717.0" type="qcurve" smooth="yes"/>
      <point x="398.0" y="467.0"/>
      <point x="577.0" y="202.0"/>
      <point x="772.0" y="202.0" type="qcurve" smooth="yes"/>
      <point x="967.0" y="202.0"/>
      <point x="1146.0" y="467.0"/>
      <point x="1146.0" y="717.0" type="qcurve" smooth="yes"/>
      <point x="1146.0" y="967.0"/>
      <point x="967.0" y="1232.0"/>
      <point x="772.0" y="1232.0" type="qcurve" smooth="yes"/>
      <point x="577.0" y="1232.0"/>
      <point x="398.0" y="967.0"/>
    </contour>
  </outline>
</glyph>
<glyph name="S" format="2">
  <advance width="1308"/>
  <unicode hex="0053"/>
  <outline>
    <contour>
      <point x="145.0" y="107.0" type="qcurve" smooth="yes"/>
      <point x="83.0" y="154.0"/>
      <point x="115.0" y="202.0" type="qcurve" smooth="yes"/>
      <point x="192.0" y="318.0" type="line" smooth="yes"/>
      <point x="230.0" y="375.0"/>
      <point x="303.0" y="324.0" type="qcurve" smooth="yes"/>
      <point x="359.0" y="285.0"/>
      <point x="540.0" y="202.0"/>
      <point x="640.0" y="202.0" type="qcurve" smooth="yes"/>
      <point x="710.0" y="202.0"/>
      <point x="840.0" y="234.0"/>
      <point x="908.0" y="326.0"/>
      <point x="908.0" y="389.0" type="qcurve" smooth="yes"/>
      <point x="908.0" y="434.0"/>
      <point x="878.0" y="502.0"/>
      <point x="810.0" y="546.0"/>
      <point x="774.0" y="561.0" type="qcurve" smooth="yes"/>
      <point x="711.0" y="587.0"/>
      <point x="520.0" y="638.0"/>
      <point x="427.0" y="674.0" type="qcurve" smooth="yes"/>
      <point x="344.0" y="706.0"/>
      <point x="206.0" y="818.0"/>
      <point x="130.0" y="958.0"/>
      <point x="130.0" y="1075.0" type="qcurve" smooth="yes"/>
      <point x="130.0" y="1214.0"/>
      <point x="310.0" y="1412.0"/>
      <point x="544.0" y="1468.0"/>
      <point x="663.0" y="1468.0" type="qcurve" smooth="yes"/>
      <point x="781.0" y="1468.0"/>
      <point x="1032.0" y="1396.0"/>
      <point x="1096.0" y="1342.0" type="qcurve" smooth="yes"/>
      <point x="1159.0" y="1289.0"/>
      <point x="1127.0" y="1246.0" type="qcurve" smooth="yes"/>
      <point x="1046.0" y="1137.0" type="line" smooth="yes"/>
      <point x="1005.0" y="1081.0"/>
      <point x="936.0" y="1128.0" type="qcurve" smooth="yes"/>
      <point x="892.0" y="1158.0"/>
      <point x="739.0" y="1232.0"/>
      <point x="656.0" y="1232.0" type="qcurve" smooth="yes"/>
      <point x="597.0" y="1232.0"/>
      <point x="498.0" y="1212.0"/>
      <point x="422.0" y="1136.0"/>
      <point x="422.0" y="1080.0" type="qcurve" smooth="yes"/>
      <point x="422.0" y="1026.0"/>
      <point x="478.0" y="959.0"/>
      <point x="546.0" y="926.0"/>
      <point x="581.0" y="915.0" type="qcurve" smooth="yes"/>
      <point x="689.0" y="880.0"/>
      <point x="859.0" y="827.0"/>
      <point x="931.0" y="795.0" type="qcurve" smooth="yes"/>
      <point x="1031.0" y="750.0"/>
      <point x="1137.0" y="660.0"/>
      <point x="1206.0" y="504.0"/>
      <point x="1206.0" y="396.0" type="qcurve" smooth="yes"/>
      <point x="1206.0" y="236.0"/>
      <point x="1002.0" y="27.0"/>
      <point x="753.0" y="-34.0"/>
      <point x="635.0" y="-34.0" type="qcurve" smooth="yes"/>
      <point x="461.0" y="-34.0"/>
      <point x="243.0" y="33.0"/>
    </contour>
  </outline>
</glyph>
<glyph name="T" format="2">
  <advance width="1246"/>
  <unicode hex="0054"/>
  <outline>
    <contour>
      <point x="109.0" y="1178.0" type="line" smooth="yes"/>
      <point x="34.0" y="1178.0"/>
      <point x="34.0" y="1243.0" type="qcurve" smooth="yes"/>
      <point x="34.0" y="1369.0" type="line" smooth="yes"/>
      <point x="34.0" y="1434.0"/>
      <point x="109.0" y="1434.0" type="qcurve" smooth="yes"/>
      <point x="1137.0" y="1434.0" type="line" smooth="yes"/>
      <point x="1212.0" y="1434.0"/>
      <point x="1212.0" y="1369.0" type="qcurve" smooth="yes"/>
      <point x="1212.0" y="1243.0" type="line" smooth="yes"/>
      <point x="1212.0" y="1178.0"/>
      <point x="1137.0" y="1178.0" type="qcurve" smooth="yes"/>
      <point x="769.0" y="1178.0" type="line"/>
      <point x="769.0" y="55.0" type="line" smooth="yes"/>
      <point x="769.0" y="0.0"/>
      <point x="719.0" y="0.0" type="qcurve" smooth="yes"/>
      <point x="527.0" y="0.0" type="line" smooth="yes"/>
      <point x="477.0" y="0.0"/>
      <point x="477.0" y="55.0" type="qcurve" smooth="yes"/>
      <point x="477.0" y="1178.0" type="line"/>
    </contour>
  </outline>
</glyph>
<glyph name="U" format="2">
  <advance width="1422"/>
  <unicode hex="0055"/>
  <outline>
    <contour>
      <point x="160.0" y="597.0" type="qcurve" smooth="yes"/>
      <point x="160.0" y="1379.0" type="line" smooth="yes"/>
      <point x="160.0" y="1434.0"/>
      <point x="230.0" y="1434.0" type="qcurve" smooth="yes"/>
      <point x="382.0" y="1434.0" type="line" smooth="yes"/>
      <point x="452.0" y="1434.0"/>
      <point x="452.0" y="1379.0" type="qcurve" smooth="yes"/>
      <point x="452.0" y="607.0" type="line" smooth="yes"/>
      <point x="452.0" y="337.0"/>
      <point x="611.0" y="202.0"/>
      <point x="711.0" y="202.0" type="qcurve" smooth="yes"/>
      <point x="811.0" y="202.0"/>
      <point x="970.0" y="337.0"/>
      <point x="970.0" y="607.0" type="qcurve" smooth="yes"/>
      <point x="970.0" y="1379.0" type="line" smooth="yes"/>
      <point x="970.0" y="1434.0"/>
      <point x="1040.0" y="1434.0" type="qcurve" smooth="yes"/>
      <point x="1192.0" y="1434.0" type="line" smooth="yes"/>
      <point x="1262.0" y="1434.0"/>
      <point x="1262.0" y="1379.0" type="qcurve" smooth="yes"/>
      <point x="1262.0" y="597.0" type="line" smooth="yes"/>
      <point x="1262.0" y="247.0"/>
      <point x="966.0" y="-34.0"/>
      <point x="711.0" y="-34.0" type="qcurve" smooth="yes"/>
      <point x="456.0" y="-34.0"/>
      <point x="160.0" y="247.0"/>
    </contour>
  </outline>
</glyph>
<glyph name="Z" format="2">
  <advance width="1252"/>
  <unicode hex="005A"/>
  <outline>
    <contour>
      <point x="136.0" y="0.0" type="line" smooth="yes"/>
      <point x="61.0" y="0.0"/>
      <point x="61.0" y="65.0" type="qcurve" smooth="yes"/>
      <point x="61.0" y="147.0" type="line" smooth="yes"/>
      <point x="61.0" y="216.0"/>
      <point x="112.0" y="286.0" type="qcurve" smooth="yes"/>
      <point x="762.0" y="1184.0" type="line"/>
      <point x="762.0" y="1191.0" type="line"/>
      <point x="702.0" y="1186.0"/>
      <point x="642.0" y="1186.0" type="qcurve" smooth="yes"/>
      <point x="176.0" y="1186.0" type="line" smooth="yes"/>
      <point x="101.0" y="1186.0"/>
      <point x="101.0" y="1251.0" type="qcurve" smooth="yes"/>
      <point x="101.0" y="1369.0" type="line" smooth="yes"/>
      <point x="101.0" y="1434.0"/>
      <point x="176.0" y="1434.0" type="qcurve" smooth="yes"/>
      <point x="1088.0" y="1434.0" type="line" smooth="yes"/>
      <point x="1163.0" y="1434.0"/>
      <point x="1163.0" y="1369.0" type="qcurve" smooth="yes"/>
      <point x="1163.0" y="1302.0" type="line" smooth="yes"/>
      <point x="1163.0" y="1249.0"/>
      <point x="1128.0" y="1201.0" type="qcurve" smooth="yes"/>
      <point x="438.0" y="250.0" type="line"/>
      <point x="438.0" y="243.0" type="line"/>
      <point x="498.0" y="248.0"/>
      <point x="558.0" y="248.0" type="qcurve" smooth="yes"/>
      <point x="1116.0" y="248.0" type="line" smooth="yes"/>
      <point x="1191.0" y="248.0"/>
      <point x="1191.0" y="183.0" type="qcurve" smooth="yes"/>
      <point x="1191.0" y="65.0" type="line" smooth="yes"/>
      <point x="1191.0" y="0.0"/>
      <point x="1116.0" y="0.0" type="qcurve" smooth="yes"/>
    </contour>
  </outline>
</glyph>
<glyph name="bracketleft" format="2">
  <advance width="694"/>
  <unicode hex="005B"/>
  <outline>
    <contour>
      <point x="220.0" y="-408.0" type="line" smooth="yes"/>
      <point x="160.0" y="-408.0"/>
      <point x="160.0" y="-348.0" type="qcurve" smooth="yes"/>
      <point x="160.0" y="1436.0" type="line" smooth="yes"/>
      <point x="160.0" y="1496.0"/>
      <point x="220.0" y="1496.0" type="qcurve" smooth="yes"/>
      <point x="568.0" y="1496.0" type="line" smooth="yes"/>
      <point x="628.0" y="1496.0"/>
      <point x="628.0" y="1446.0" type="qcurve" smooth="yes"/>
      <point x="628.0" y="1346.0" type="line" smooth="yes"/>
      <point x="628.0" y="1296.0"/>
      <point x="568.0" y="1296.0" type="qcurve" smooth="yes"/>
      <point x="440.0" y="1296.0" type="line"/>
      <point x="440.0" y="-208.0" type="line"/>
      <point x="568.0" y="-208.0" type="line" smooth="yes"/>
      <point x="628.0" y="-208.0"/>
      <point x="628.0" y="-258.0" type="qcurve" smooth="yes"/>
      <point x="628.0" y="-358.0" type="line" smooth="yes"/>
      <point x="628.0" y="-408.0"/>
      <point x="568.0" y="-408.0" type="qcurve" smooth="yes"/>
    </contour>
  </outline>
</glyph>
<glyph name="backslash" format="2">
  <advance width="856"/>
  <unicode hex="005C"/>
  <outline>
    <contour>
      <point x="9.0" y="1359.0" type="line" smooth="yes"/>
      <point x="-13.0" y="1415.0"/>
      <point x="34.0" y="1433.0" type="qcurve" smooth="yes"/>
      <point x="115.0" y="1464.0" type="line" smooth="yes"/>
      <point x="161.0" y="1482.0"/>
      <point x="183.0" y="1426.0" type="qcurve" smooth="yes"/>
      <point x="847.0" y="-304.0" type="line" smooth="yes"/>
      <point x="869.0" y="-360.0"/>
      <point x="822.0" y="-378.0" type="qcurve" smooth="yes"/>
      <point x="741.0" y="-409.0" type="line" smooth="yes"/>
      <point x="695.0" y="-427.0"/>
      <point x="673.0" y="-371.0" type="qcurve" smooth="yes"/>
    </contour>
  </outline>
</glyph>
<glyph name="bracketright" format="2">
  <advance width="694"/>
  <unicode hex="005D"/>
  <outline>
    <contour>
      <point x="126.0" y="-408.0" type="line" smooth="yes"/>
      <point x="66.0" y="-408.0"/>
      <point x="66.0" y="-358.0" type="qcurve" smooth="yes"/>
      <point x="66.0" y="-258.0" type="line" smooth="yes"/>
      <point x="66.0" y="-208.0"/>
      <point x="126.0" y="-208.0" type="qcurve" smooth="yes"/>
      <point x="254.0" y="-208.0" type="line"/>
      <point x="254.0" y="1296.0" type="line"/>
      <point x="126.0" y="1296.0" type="line" smooth="yes"/>
      <point x="66.0" y="1296.0"/>
      <point x="66.0" y="1346.0" type="qcurve" smooth="yes"/>
      <point x="66.0" y="1446.0" type="line" smooth="yes"/>
      <point x="66.0" y="1496.0"/>
      <point x="126.0" y="1496.0" type="qcurve" smooth="yes"/>
      <point x="474.0" y="1496.0" type="line" smooth="yes"/>
      <point x="534.0" y="1496.0"/>
      <point x="534.0" y="1436.0" type="qcurve" smooth="yes"/>
      <point x="534.0" y="-348.0" type="line" smooth="yes"/>
      <point x="534.0" y="-408.0"/>
      <point x="474.0" y="-408.0" type="qcurve" smooth="yes"/>
    </contour>
  </outline>
</glyph>
<glyph name="grave" format="2">
  <advance width="614"/>
  <unicode hex="0060"/>
  <outline>
    <contour>
      <point x="153.0" y="1376.0" type="line" smooth="yes"/>
      <point x="101.0" y="1435.0"/>
      <point x="175.0" y="1435.0" type="qcurve" smooth="yes"/>
      <point x="327.0" y="1435.0" type="line" smooth="yes"/>
      <point x="405.0" y="1435.0"/>
      <point x="433.0" y="1388.0" type="qcurve" smooth="yes"/>
      <point x="541.0" y="1209.0" type="line" smooth="yes"/>
      <point x="577.0" y="1150.0"/>
      <point x="520.0" y="1150.0" type="qcurve" smooth="yes"/>
      <point x="419.0" y="1150.0" type="line" smooth="yes"/>
      <point x="350.0" y="1150.0"/>
      <point x="318.0" y="1187.0" type="qcurve" smooth="yes"/>
    </contour>
  </outline>
</glyph>
<glyph name="k" format="2">
  <advance width="1115"/>
  <unicode hex="006B"/>
  <outline>
    <contour>
      <point x="196.0" y="0.0" type="line" smooth="yes"/>
      <point x="136.0" y="0.0"/>
      <point x="136.0" y="60.0" type="qcurve" smooth="yes"/>
      <point x="136.0" y="1416.0" type="line" smooth="yes"/>
      <point x="136.0" y="1476.0"/>
      <point x="196.0" y="1476.0" type="qcurve" smooth="yes"/>
      <point x="356.0" y="1476.0" type="line" smooth="yes"/>
      <point x="416.0" y="1476.0"/>
      <point x="416.0" y="1416.0" type="qcurve" smooth="yes"/>
      <point x="416.0" y="681.0" type="line" smooth="yes"/>
      <point x="416.0" y="641.0"/>
      <point x="412.0" y="601.0" type="qcurve"/>
      <point x="416.0" y="601.0" type="line"/>
      <point x="733.0" y="1009.0" type="line" smooth="yes"/>
      <point x="765.0" y="1050.0"/>
      <point x="811.0" y="1050.0" type="qcurve" smooth="yes"/>
      <point x="975.0" y="1050.0" type="line" smooth="yes"/>
      <point x="1067.0" y="1050.0"/>
      <point x="1006.0" y="976.0" type="qcurve" smooth="yes"/>
      <point x="704.0" y="611.0" type="line"/>
      <point x="1054.0" y="74.0" type="line" smooth="yes"/>
      <point x="1102.0" y="0.0"/>
      <point x="1023.0" y="0.0" type="qcurve" smooth="yes"/>
      <point x="852.0" y="0.0" type="line" smooth="yes"/>
      <point x="802.0" y="0.0"/>
      <point x="770.0" y="52.0" type="qcurve" smooth="yes"/>
      <point x="543.0" y="417.0" type="line"/>
      <point x="416.0" y="264.0" type="line"/>
      <point x="416.0" y="60.0" type="line" smooth="yes"/>
      <point x="416.0" y="0.0"/>
      <point x="356.0" y="0.0" type="qcurve" smooth="yes"/>
    </contour>
  </outline>
</glyph>
<glyph name="p" format="2">
  <advance width="1192"/>
  <unicode hex="0070"/>
  <outline>
    <contour>
      <point x="196.0" y="-400.0" type="line" smooth="yes"/>
      <point x="136.0" y="-400.0"/>
      <point x="136.0" y="-340.0" type="qcurve" smooth="yes"/>
      <point x="136.0" y="990.0" type="line" smooth="yes"/>
      <point x="136.0" y="1050.0"/>
      <point x="196.0" y="1050.0" type="qcurve" smooth="yes"/>
      <point x="354.0" y="1050.0" type="line" smooth="yes"/>
      <point x="404.0" y="1050.0"/>
      <point x="408.0" y="990.0" type="qcurve" smooth="yes"/>
      <point x="412.0" y="932.0" type="line"/>
      <point x="416.0" y="932.0" type="line"/>
      <point x="468.0" y="1018.0"/>
      <point x="596.0" y="1070.0"/>
      <point x="686.0" y="1070.0" type="qcurve" smooth="yes"/>
      <point x="921.0" y="1070.0"/>
      <point x="1112.0" y="745.0"/>
      <point x="1112.0" y="525.0" type="qcurve" smooth="yes"/>
      <point x="1112.0" y="305.0"/>
      <point x="921.0" y="-20.0"/>
      <point x="686.0" y="-20.0" type="qcurve" smooth="yes"/>
      <point x="596.0" y="-20.0"/>
      <point x="468.0" y="32.0"/>
      <point x="416.0" y="118.0" type="qcurve"/>
      <point x="412.0" y="118.0" type="line"/>
      <point x="416.0" y="78.0"/>
      <point x="416.0" y="38.0" type="qcurve" smooth="yes"/>
      <point x="416.0" y="-340.0" type="line" smooth="yes"/>
      <point x="416.0" y="-400.0"/>
      <point x="356.0" y="-400.0" type="qcurve" smooth="yes"/>
    </contour>
    <contour>
      <point x="416.0" y="480.0" type="line" smooth="yes"/>
      <point x="416.0" y="345.0"/>
      <point x="523.0" y="176.0"/>
      <point x="598.0" y="176.0" type="qcurve" smooth="yes"/>
      <point x="733.0" y="176.0"/>
      <point x="816.0" y="365.0"/>
      <point x="816.0" y="525.0" type="qcurve" smooth="yes"/>
      <point x="816.0" y="685.0"/>
      <point x="733.0" y="874.0"/>
      <point x="598.0" y="874.0" type="qcurve" smooth="yes"/>
      <point x="523.0" y="874.0"/>
      <point x="416.0" y="705.0"/>
      <point x="416.0" y="570.0" type="qcurve" smooth="yes"/>
    </contour>
  </outline>
</glyph>
<glyph name="t" format="2">
  <advance width="798"/>
  <unicode hex="0074"/>
  <outline>
    <contour>
      <point x="101.0" y="850.0" type="line" smooth="yes"/>
      <point x="42.0" y="850.0"/>
      <point x="42.0" y="900.0" type="qcurve" smooth="yes"/>
      <point x="42.0" y="1000.0" type="line" smooth="yes"/>
      <point x="42.0" y="1050.0"/>
      <point x="101.0" y="1050.0" type="qcurve" smooth="yes"/>
      <point x="169.0" y="1050.0" type="line"/>
      <point x="169.0" y="1085.0" type="line" smooth="yes"/>
      <point x="169.0" y="1130.0"/>
      <point x="190.0" y="1167.0" type="qcurve" smooth="yes"/>
      <point x="267.0" y="1302.0" type="line" smooth="yes"/>
      <point x="289.0" y="1340.0"/>
      <point x="319.0" y="1340.0" type="qcurve" smooth="yes"/>
      <point x="389.0" y="1340.0" type="line" smooth="yes"/>
      <point x="449.0" y="1340.0"/>
      <point x="449.0" y="1280.0" type="qcurve" smooth="yes"/>
      <point x="449.0" y="1050.0" type="line"/>
      <point x="611.0" y="1050.0" type="line" smooth="yes"/>
      <point x="670.0" y="1050.0"/>
      <point x="670.0" y="1000.0" type="qcurve" smooth="yes"/>
      <point x="670.0" y="900.0" type="line" smooth="yes"/>
      <point x="670.0" y="850.0"/>
      <point x="611.0" y="850.0" type="qcurve" smooth="yes"/>
      <point x="449.0" y="850.0" type="line"/>
      <point x="449.0" y="354.0" type="line" smooth="yes"/>
      <point x="449.0" y="252.0"/>
      <point x="478.0" y="163.0"/>
      <point x="539.0" y="163.0" type="qcurve" smooth="yes"/>
      <point x="570.0" y="163.0"/>
      <point x="648.0" y="184.0"/>
      <point x="670.0" y="194.0" type="qcurve" smooth="yes"/>
      <point x="705.0" y="210.0"/>
      <point x="716.0" y="171.0" type="qcurve" smooth="yes"/>
      <point x="746.0" y="57.0" type="line" smooth="yes"/>
      <point x="755.0" y="23.0"/>
      <point x="720.0" y="7.0" type="qcurve" smooth="yes"/>
      <point x="687.0" y="-8.0"/>
      <point x="572.0" y="-33.0"/>
      <point x="514.0" y="-33.0" type="qcurve" smooth="yes"/>
      <point x="371.0" y="-33.0"/>
      <point x="169.0" y="85.0"/>
      <point x="169.0" y="269.0" type="qcurve" smooth="yes"/>
      <point x="169.0" y="850.0" type="line"/>
    </contour>
  </outline>
</glyph>
<glyph name="u" format="2">
  <advance width="1194"/>
  <unicode hex="0075"/>
  <outline>
    <contour>
      <point x="134.0" y="436.0" type="qcurve" smooth="yes"/>
      <point x="134.0" y="990.0" type="line" smooth="yes"/>
      <point x="134.0" y="1050.0"/>
      <point x="194.0" y="1050.0" type="qcurve" smooth="yes"/>
      <point x="354.0" y="1050.0" type="line" smooth="yes"/>
      <point x="414.0" y="1050.0"/>
      <point x="414.0" y="990.0" type="qcurve" smooth="yes"/>
      <point x="414.0" y="508.0" type="line" smooth="yes"/>
      <point x="414.0" y="290.0"/>
      <point x="474.0" y="176.0"/>
      <point x="570.0" y="176.0" type="qcurve" smooth="yes"/>
      <point x="672.0" y="176.0"/>
      <point x="778.0" y="339.0"/>
      <point x="778.0" y="596.0" type="qcurve" smooth="yes"/>
      <point x="778.0" y="990.0" type="line" smooth="yes"/>
      <point x="778.0" y="1050.0"/>
      <point x="838.0" y="1050.0" type="qcurve" smooth="yes"/>
      <point x="998.0" y="1050.0" type="line" smooth="yes"/>
      <point x="1058.0" y="1050.0"/>
      <point x="1058.0" y="990.0" type="qcurve" smooth="yes"/>
      <point x="1058.0" y="60.0" type="line" smooth="yes"/>
      <point x="1058.0" y="0.0"/>
      <point x="998.0" y="0.0" type="qcurve" smooth="yes"/>
      <point x="840.0" y="0.0" type="line" smooth="yes"/>
      <point x="780.0" y="0.0"/>
      <point x="780.0" y="60.0" type="qcurve" smooth="yes"/>
      <point x="780.0" y="118.0" type="line"/>
      <point x="776.0" y="118.0" type="line"/>
      <point x="730.0" y="39.0"/>
      <point x="588.0" y="-20.0"/>
      <point x="491.0" y="-20.0" type="qcurve" smooth="yes"/>
      <point x="338.0" y="-20.0"/>
      <point x="134.0" y="176.0"/>
    </contour>
  </outline>
</glyph>
<glyph name="v" format="2">
  <advance width="1008"/>
  <unicode hex="0076"/>
  <outline>
    <contour>
      <point x="42.0" y="972.0" type="line" smooth="yes"/>
      <point x="17.0" y="1050.0"/>
      <point x="75.0" y="1050.0" type="qcurve" smooth="yes"/>
      <point x="254.0" y="1050.0" type="line" smooth="yes"/>
      <point x="301.0" y="1050.0"/>
      <point x="314.0" y="999.0" type="qcurve" smooth="yes"/>
      <point x="469.0" y="413.0" type="line" smooth="yes"/>
      <point x="482.0" y="364.0"/>
      <point x="499.0" y="268.0"/>
      <point x="501.0" y="238.0" type="qcurve"/>
      <point x="507.0" y="238.0" type="line"/>
      <point x="509.0" y="268.0"/>
      <point x="526.0" y="364.0"/>
      <point x="539.0" y="413.0" type="qcurve" smooth="yes"/>
      <point x="694.0" y="999.0" type="line" smooth="yes"/>
      <point x="707.0" y="1050.0"/>
      <point x="754.0" y="1050.0" type="qcurve" smooth="yes"/>
      <point x="933.0" y="1050.0" type="line" smooth="yes"/>
      <point x="991.0" y="1050.0"/>
      <point x="966.0" y="972.0" type="qcurve" smooth="yes"/>
      <point x="676.0" y="67.0" type="line" smooth="yes"/>
      <point x="655.0" y="0.0"/>
      <point x="603.0" y="0.0" type="qcurve" smooth="yes"/>
      <point x="405.0" y="0.0" type="line" smooth="yes"/>
      <point x="353.0" y="0.0"/>
      <point x="332.0" y="67.0" type="qcurve" smooth="yes"/>
    </contour>
  </outline>
</glyph>
<glyph name="x" format="2">
  <advance width="1086"/>
  <unicode hex="0078"/>
  <outline>
    <contour>
      <point x="92.0" y="0.0" type="line" smooth="yes"/>
      <point x="6.0" y="0.0"/>
      <point x="56.0" y="73.0" type="qcurve" smooth="yes"/>
      <point x="387.0" y="553.0" type="line"/>
      <point x="95.0" y="977.0" type="line" smooth="yes"/>
      <point x="45.0" y="1050.0"/>
      <point x="131.0" y="1050.0" type="qcurve" smooth="yes"/>
      <point x="320.0" y="1050.0" type="line" smooth="yes"/>
      <point x="365.0" y="1050.0"/>
      <point x="388.0" y="1010.0" type="qcurve" smooth="yes"/>
      <point x="543.0" y="740.0" type="line"/>
      <point x="698.0" y="1010.0" type="line" smooth="yes"/>
      <point x="721.0" y="1050.0"/>
      <point x="766.0" y="1050.0" type="qcurve" smooth="yes"/>
      <point x="955.0" y="1050.0" type="line" smooth="yes"/>
      <point x="1042.0" y="1050.0"/>
      <point x="991.0" y="977.0" type="qcurve" smooth="yes"/>
      <point x="697.0" y="553.0" type="line"/>
      <point x="1030.0" y="73.0" type="line" smooth="yes"/>
      <point x="1081.0" y="0.0"/>
      <point x="994.0" y="0.0" type="qcurve" smooth="yes"/>
      <point x="805.0" y="0.0" type="line" smooth="yes"/>
      <point x="761.0" y="0.0"/>
      <point x="737.0" y="40.0" type="qcurve" smooth="yes"/>
      <point x="543.0" y="366.0" type="line"/>
      <point x="349.0" y="40.0" type="line" smooth="yes"/>
      <point x="325.0" y="0.0"/>
      <point x="281.0" y="0.0" type="qcurve" smooth="yes"/>
    </contour>
  </outline>
</glyph>
<glyph name="bar" format="2">
  <advance width="630"/>
  <unicode hex="007C"/>
  <outline>
    <contour>
      <point x="265.0" y="-440.0" type="line" smooth="yes"/>
      <point x="215.0" y="-440.0"/>
      <point x="215.0" y="-380.0" type="qcurve" smooth="yes"/>
      <point x="215.0" y="1436.0" type="line" smooth="yes"/>
      <point x="215.0" y="1496.0"/>
      <point x="265.0" y="1496.0" type="qcurve" smooth="yes"/>
      <point x="365.0" y="1496.0" type="line" smooth="yes"/>
      <point x="415.0" y="1496.0"/>
      <point x="415.0" y="1436.0" type="qcurve" smooth="yes"/>
      <point x="415.0" y="-380.0" type="line" smooth="yes"/>
      <point x="415.0" y="-440.0"/>
      <point x="365.0" y="-440.0" type="qcurve" smooth="yes"/>
    </contour>
  </outline>
</glyph>
<glyph name="cent" format="2">
  <advance width="1200"/>
  <unicode hex="00A2"/>
  <outline>
    <contour>
      <point x="136.0" y="525.0" type="qcurve" smooth="yes"/>
      <point x="136.0" y="780.0"/>
      <point x="369.0" y="1044.0"/>
      <point x="566.0" y="1065.0" type="qcurve"/>
      <point x="566.0" y="1240.0" type="line" smooth="yes"/>
      <point x="566.0" y="1300.0"/>
      <point x="616.0" y="1300.0" type="qcurve" smooth="yes"/>
      <point x="696.0" y="1300.0" type="line" smooth="yes"/>
      <point x="746.0" y="1300.0"/>
      <point x="746.0" y="1240.0" type="qcurve" smooth="yes"/>
      <point x="746.0" y="1066.0" type="line"/>
      <point x="839.0" y="1057.0"/>
      <point x="984.0" y="988.0"/>
      <point x="1036.0" y="909.0" type="qcurve" smooth="yes"/>
      <point x="1067.0" y="862.0"/>
      <point x="1026.0" y="835.0" type="qcurve" smooth="yes"/>
      <point x="920.0" y="765.0" type="line" smooth="yes"/>
      <point x="875.0" y="735.0"/>
      <point x="841.0" y="788.0" type="qcurve" smooth="yes"/>
      <point x="824.0" y="814.0"/>
      <point x="762.0" y="853.0"/>
      <point x="746.0" y="859.0" type="qcurve"/>
      <point x="746.0" y="189.0" type="line"/>
      <point x="769.0" y="197.0"/>
      <point x="837.0" y="243.0"/>
      <point x="882.0" y="298.0" type="qcurve" smooth="yes"/>
      <point x="920.0" y="344.0"/>
      <point x="962.0" y="311.0" type="qcurve" smooth="yes"/>
      <point x="1055.0" y="238.0" type="line" smooth="yes"/>
      <point x="1097.0" y="205.0"/>
      <point x="1060.0" y="150.0" type="qcurve" smooth="yes"/>
      <point x="1021.0" y="92.0"/>
      <point x="859.0" y="-5.0"/>
      <point x="746.0" y="-16.0" type="qcurve"/>
      <point x="746.0" y="-190.0" type="line" smooth="yes"/>
      <point x="746.0" y="-250.0"/>
      <point x="696.0" y="-250.0" type="qcurve" smooth="yes"/>
      <point x="616.0" y="-250.0" type="line" smooth="yes"/>
      <point x="566.0" y="-250.0"/>
      <point x="566.0" y="-190.0" type="qcurve" smooth="yes"/>
      <point x="566.0" y="-15.0" type="line"/>
      <point x="369.0" y="6.0"/>
      <point x="136.0" y="270.0"/>
    </contour>
    <contour>
      <point x="432.0" y="525.0" type="qcurve" smooth="yes"/>
      <point x="432.0" y="335.0"/>
      <point x="519.0" y="212.0"/>
      <point x="566.0" y="192.0" type="qcurve"/>
      <point x="566.0" y="858.0" type="line"/>
      <point x="519.0" y="838.0"/>
      <point x="432.0" y="715.0"/>
    </contour>
  </outline>
</glyph>
<glyph name="sterling" format="2">
  <advance width="1200"/>
  <unicode hex="00A3"/>
  <outline>
    <contour>
      <point x="145.0" y="0.0" type="line" smooth="yes"/>
      <point x="70.0" y="0.0"/>
      <point x="70.0" y="65.0" type="qcurve" smooth="yes"/>
      <point x="70.0" y="124.0" type="line" smooth="yes"/>
      <point x="70.0" y="177.0"/>
      <point x="111.0" y="212.0" type="qcurve" smooth="yes"/>
      <point x="155.0" y="249.0"/>
      <point x="240.0" y="354.0"/>
      <point x="240.0" y="490.0" type="qcurve" smooth="yes"/>
      <point x="240.0" y="583.0" type="line"/>
      <point x="139.0" y="583.0" type="line" smooth="yes"/>
      <point x="75.0" y="583.0"/>
      <point x="75.0" y="648.0" type="qcurve" smooth="yes"/>
      <point x="75.0" y="766.0" type="line" smooth="yes"/>
      <point x="75.0" y="831.0"/>
      <point x="140.0" y="831.0" type="qcurve" smooth="yes"/>
      <point x="240.0" y="831.0" type="line"/>
      <point x="240.0" y="973.0" type="line" smooth="yes"/>
      <point x="240.0" y="1224.0"/>
      <point x="498.0" y="1456.0"/>
      <point x="711.0" y="1456.0" type="qcurve" smooth="yes"/>
      <point x="812.0" y="1456.0"/>
      <point x="982.0" y="1396.0"/>
      <point x="1050.0" y="1323.0" type="qcurve" smooth="yes"/>
      <point x="1098.0" y="1271.0"/>
      <point x="1071.0" y="1239.0" type="qcurve" smooth="yes"/>
      <point x="1001.0" y="1155.0" type="line" smooth="yes"/>
      <point x="958.0" y="1103.0"/>
      <point x="908.0" y="1155.0" type="qcurve" smooth="yes"/>
      <point x="868.0" y="1196.0"/>
      <point x="768.0" y="1232.0"/>
      <point x="709.0" y="1232.0" type="qcurve" smooth="yes"/>
      <point x="612.0" y="1232.0"/>
      <point x="520.0" y="1119.0"/>
      <point x="520.0" y="1010.0" type="qcurve" smooth="yes"/>
      <point x="520.0" y="831.0" type="line"/>
      <point x="757.0" y="831.0" type="line" smooth="yes"/>
      <point x="822.0" y="831.0"/>
      <point x="822.0" y="766.0" type="qcurve" smooth="yes"/>
      <point x="822.0" y="648.0" type="line" smooth="yes"/>
      <point x="822.0" y="583.0"/>
      <point x="758.0" y="583.0" type="qcurve" smooth="yes"/>
      <point x="520.0" y="583.0" type="line"/>
      <point x="520.0" y="495.0" type="line" smooth="yes"/>
      <point x="520.0" y="404.0"/>
      <point x="486.0" y="286.0"/>
      <point x="449.0" y="250.0" type="qcurve"/>
      <point x="449.0" y="244.0" type="line"/>
      <point x="509.0" y="248.0"/>
      <point x="549.0" y="248.0" type="qcurve" smooth="yes"/>
      <point x="1049.0" y="248.0" type="line" smooth="yes"/>
      <point x="1124.0" y="248.0"/>
      <point x="1124.0" y="183.0" type="qcurve" smooth="yes"/>
      <point x="1124.0" y="65.0" type="line" smooth="yes"/>
      <point x="1124.0" y="0.0"/>
      <point x="1049.0" y="0.0" type="qcurve" smooth="yes"/>
    </contour>
  </outline>
</glyph>
<glyph name="currency" format="2">
  <advance width="1200"/>
  <unicode hex="00A4"/>
  <outline>
    <contour>
      <point x="86.0" y="276.0" type="line" smooth="yes"/>
      <point x="50.0" y="310.0"/>
      <point x="91.0" y="354.0" type="qcurve" smooth="yes"/>
      <point x="217.0" y="490.0" type="line"/>
      <point x="155.0" y="596.0"/>
      <point x="155.0" y="728.0" type="qcurve" smooth="yes"/>
      <point x="155.0" y="860.0"/>
      <point x="217.0" y="966.0" type="qcurve"/>
      <point x="91.0" y="1102.0" type="line" smooth="yes"/>
      <point x="50.0" y="1146.0"/>
      <point x="86.0" y="1180.0" type="qcurve" smooth="yes"/>
      <point x="149.0" y="1239.0" type="line" smooth="yes"/>
      <point x="186.0" y="1273.0"/>
      <point x="227.0" y="1229.0" type="qcurve" smooth="yes"/>
      <point x="342.0" y="1105.0" type="line"/>
      <point x="452.0" y="1187.0"/>
      <point x="600.0" y="1187.0" type="qcurve" smooth="yes"/>
      <point x="748.0" y="1187.0"/>
      <point x="858.0" y="1105.0" type="qcurve"/>
      <point x="973.0" y="1229.0" type="line" smooth="yes"/>
      <point x="1014.0" y="1273.0"/>
      <point x="1051.0" y="1239.0" type="qcurve" smooth="yes"/>
      <point x="1114.0" y="1180.0" type="line" smooth="yes"/>
      <point x="1150.0" y="1146.0"/>
      <point x="1109.0" y="1102.0" type="qcurve" smooth="yes"/>
      <point x="983.0" y="966.0" type="line"/>
      <point x="1045.0" y="860.0"/>
      <point x="1045.0" y="728.0" type="qcurve" smooth="yes"/>
      <point x="1045.0" y="596.0"/>
      <point x="983.0" y="490.0" type="qcurve"/>
      <point x="1109.0" y="354.0" type="line" smooth="yes"/>
      <point x="1150.0" y="310.0"/>
      <point x="1114.0" y="276.0" type="qcurve" smooth="yes"/>
      <point x="1051.0" y="217.0" type="line" smooth="yes"/>
      <point x="1014.0" y="183.0"/>
      <point x="973.0" y="227.0" type="qcurve" smooth="yes"/>
      <point x="858.0" y="351.0" type="line"/>
      <point x="748.0" y="269.0"/>
      <point x="600.0" y="269.0" type="qcurve" smooth="yes"/>
      <point x="452.0" y="269.0"/>
      <point x="342.0" y="351.0" type="qcurve"/>
      <point x="227.0" y="227.0" type="line" smooth="yes"/>
      <point x="186.0" y="183.0"/>
      <point x="149.0" y="217.0" type="qcurve" smooth="yes"/>
    </contour>
    <contour>
      <point x="350.0" y="728.0" type="qcurve" smooth="yes"/>
      <point x="350.0" y="620.0"/>
      <point x="489.0" y="463.0"/>
      <point x="600.0" y="463.0" type="qcurve" smooth="yes"/>
      <point x="711.0" y="463.0"/>
      <point x="850.0" y="620.0"/>
      <point x="850.0" y="728.0" type="qcurve" smooth="yes"/>
      <point x="850.0" y="836.0"/>
      <point x="711.0" y="993.0"/>
      <point x="600.0" y="993.0" type="qcurve" smooth="yes"/>
      <point x="489.0" y="993.0"/>
      <point x="350.0" y="836.0"/>
    </contour>
  </outline>
</glyph>
<glyph name="copyright" format="2">
  <advance width="1654"/>
  <unicode hex="00A9"/>
  <outline>
    <contour>
      <point x="76.0" y="717.0" type="qcurve" smooth="yes"/>
      <point x="76.0" y="870.0"/>
      <point x="196.0" y="1147.0"/>
      <point x="397.0" y="1348.0"/>
      <point x="674.0" y="1468.0"/>
      <point x="827.0" y="1468.0" type="qcurve" smooth="yes"/>
      <point x="980.0" y="1468.0"/>
      <point x="1257.0" y="1348.0"/>
      <point x="1458.0" y="1147.0"/>
      <point x="1578.0" y="870.0"/>
      <point x="1578.0" y="717.0" type="qcurve" smooth="yes"/>
      <point x="1578.0" y="564.0"/>
      <point x="1458.0" y="287.0"/>
      <point x="1257.0" y="86.0"/>
      <point x="980.0" y="-34.0"/>
      <point x="827.0" y="-34.0" type="qcurve" smooth="yes"/>
      <point x="674.0" y="-34.0"/>
      <point x="397.0" y="86.0"/>
      <point x="196.0" y="287.0"/>
      <point x="76.0" y="564.0"/>
    </contour>
    <contour>
      <point x="192.0" y="717.0" type="qcurve" smooth="yes"/>
      <point x="192.0" y="587.0"/>
      <point x="293.0" y="353.0"/>
      <point x="463.0" y="183.0"/>
      <point x="697.0" y="78.0"/>
      <point x="827.0" y="78.0" type="qcurve" smooth="yes"/>
      <point x="957.0" y="78.0"/>
      <point x="1191.0" y="183.0"/>
      <point x="1361.0" y="353.0"/>
      <point x="1462.0" y="587.0"/>
      <point x="1462.0" y="717.0" type="qcurve" smooth="yes"/>
      <point x="1462.0" y="847.0"/>
      <point x="1361.0" y="1081.0"/>
      <point x="1191.0" y="1251.0"/>
      <point x="957.0" y="1356.0"/>
      <point x="827.0" y="1356.0" type="qcurve" smooth="yes"/>
      <point x="697.0" y="1356.0"/>
      <point x="463.0" y="1251.0"/>
      <point x="293.0" y="1081.0"/>
      <point x="192.0" y="847.0"/>
    </contour>
    <contour>
      <point x="428.0" y="717.0" type="qcurve" smooth="yes"/>
      <point x="428.0" y="917.0"/>
      <point x="632.0" y="1153.0"/>
      <point x="823.0" y="1153.0" type="qcurve" smooth="yes"/>
      <point x="930.0" y="1153.0"/>
      <point x="1089.0" y="1087.0"/>
      <point x="1121.0" y="1022.0" type="qcurve" smooth="yes"/>
      <point x="1142.0" y="980.0"/>
      <point x="1114.0" y="964.0" type="qcurve" smooth="yes"/>
      <point x="1038.0" y="921.0" type="line" smooth="yes"/>
      <point x="1001.0" y="900.0"/>
      <point x="978.0" y="943.0" type="qcurve" smooth="yes"/>
      <point x="963.0" y="970.0"/>
      <point x="884.0" y="1012.0"/>
      <point x="829.0" y="1012.0" type="qcurve" smooth="yes"/>
      <point x="707.0" y="1012.0"/>
      <point x="615.0" y="862.0"/>
      <point x="615.0" y="717.0" type="qcurve" smooth="yes"/>
      <point x="615.0" y="572.0"/>
      <point x="707.0" y="422.0"/>
      <point x="829.0" y="422.0" type="qcurve" smooth="yes"/>
      <point x="895.0" y="422.0"/>
      <point x="981.0" y="480.0"/>
      <point x="999.0" y="507.0" type="qcurve" smooth="yes"/>
      <point x="1027.0" y="551.0"/>
      <point x="1059.0" y="529.0" type="qcurve" smooth="yes"/>
      <point x="1135.0" y="477.0" type="line" smooth="yes"/>
      <point x="1163.0" y="458.0"/>
      <point x="1140.0" y="419.0" type="qcurve" smooth="yes"/>
      <point x="1106.0" y="361.0"/>
      <point x="940.0" y="281.0"/>
      <point x="823.0" y="281.0" type="qcurve" smooth="yes"/>
      <point x="635.0" y="281.0"/>
      <point x="428.0" y="517.0"/>
    </contour>
  </outline>
</glyph>
<glyph name="ordfeminine" format="2">
  <advance width="776"/>
  <unicode hex="00AA"/>
  <outline>
    <contour>
      <point x="54.0" y="972.0" type="qcurve" smooth="yes"/>
      <point x="54.0" y="1100.0"/>
      <point x="288.0" y="1232.0"/>
      <point x="471.0" y="1247.0" type="qcurve"/>
      <point x="471.0" y="1257.0" type="line" smooth="yes"/>
      <point x="471.0" y="1300.0"/>
      <point x="394.0" y="1339.0"/>
      <point x="350.0" y="1339.0" type="qcurve" smooth="yes"/>
      <point x="308.0" y="1339.0"/>
      <point x="230.0" y="1320.0"/>
      <point x="201.0" y="1299.0" type="qcurve" smooth="yes"/>
      <point x="164.0" y="1272.0"/>
      <point x="149.0" y="1297.0" type="qcurve" smooth="yes"/>
      <point x="100.0" y="1380.0" type="line" smooth="yes"/>
      <point x="82.0" y="1411.0"/>
      <point x="111.0" y="1431.0" type="qcurve" smooth="yes"/>
      <point x="154.0" y="1460.0"/>
      <point x="282.0" y="1496.0"/>
      <point x="368.0" y="1496.0" type="qcurve" smooth="yes"/>
      <point x="509.0" y="1496.0"/>
      <point x="671.0" y="1372.0"/>
      <point x="671.0" y="1239.0" type="qcurve" smooth="yes"/>
      <point x="671.0" y="839.0" type="line" smooth="yes"/>
      <point x="671.0" y="800.0"/>
      <point x="630.0" y="800.0" type="qcurve" smooth="yes"/>
      <point x="509.0" y="800.0" type="line" smooth="yes"/>
      <point x="472.0" y="800.0"/>
      <point x="472.0" y="839.0" type="qcurve" smooth="yes"/>
      <point x="472.0" y="857.0" type="line"/>
      <point x="471.0" y="857.0" type="line"/>
      <point x="422.0" y="818.0"/>
      <point x="326.0" y="787.0"/>
      <point x="282.0" y="787.0" type="qcurve" smooth="yes"/>
      <point x="178.0" y="787.0"/>
      <point x="54.0" y="882.0"/>
    </contour>
    <contour>
      <point x="266.0" y="991.0" type="qcurve" smooth="yes"/>
      <point x="266.0" y="959.0"/>
      <point x="318.0" y="943.0"/>
      <point x="341.0" y="943.0" type="qcurve" smooth="yes"/>
      <point x="376.0" y="943.0"/>
      <point x="426.0" y="960.0"/>
      <point x="471.0" y="988.0" type="qcurve"/>
      <point x="471.0" y="1094.0" type="line"/>
      <point x="358.0" y="1078.0"/>
      <point x="266.0" y="1036.0"/>
    </contour>
  </outline>
</glyph>
<glyph name="registered" format="2">
  <advance width="1654"/>
  <unicode hex="00AE"/>
  <outline>
    <contour>
      <point x="76.0" y="717.0" type="qcurve" smooth="yes"/>
      <point x="76.0" y="870.0"/>
      <point x="196.0" y="1147.0"/>
      <point x="397.0" y="1348.0"/>
      <point x="674.0" y="1468.0"/>
      <point x="827.0" y="1468.0" type="qcurve" smooth="yes"/>
      <point x="980.0" y="1468.0"/>
      <point x="1257.0" y="1348.0"/>
      <point x="1458.0" y="1147.0"/>
      <point x="1578.0" y="870.0"/>
      <point x="1578.0" y="717.0" type="qcurve" smooth="yes"/>
      <point x="1578.0" y="564.0"/>
      <point x="1458.0" y="287.0"/>
      <point x="1257.0" y="86.0"/>
      <point x="980.0" y="-34.0"/>
      <point x="827.0" y="-34.0" type="qcurve" smooth="yes"/>
      <point x="674.0" y="-34.0"/>
      <point x="397.0" y="86.0"/>
      <point x="196.0" y="287.0"/>
      <point x="76.0" y="564.0"/>
    </contour>
    <contour>
      <point x="192.0" y="717.0" type="qcurve" smooth="yes"/>
      <point x="192.0" y="587.0"/>
      <point x="293.0" y="353.0"/>
      <point x="463.0" y="183.0"/>
      <point x="697.0" y="78.0"/>
      <point x="827.0" y="78.0" type="qcurve" smooth="yes"/>
      <point x="957.0" y="78.0"/>
      <point x="1191.0" y="183.0"/>
      <point x="1361.0" y="353.0"/>
      <point x="1462.0" y="587.0"/>
      <point x="1462.0" y="717.0" type="qcurve" smooth="yes"/>
      <point x="1462.0" y="847.0"/>
      <point x="1361.0" y="1081.0"/>
      <point x="1191.0" y="1251.0"/>
      <point x="957.0" y="1356.0"/>
      <point x="827.0" y="1356.0" type="qcurve" smooth="yes"/>
      <point x="697.0" y="1356.0"/>
      <point x="463.0" y="1251.0"/>
      <point x="293.0" y="1081.0"/>
      <point x="192.0" y="847.0"/>
    </contour>
    <contour>
      <point x="562.0" y="283.0" type="line" smooth="yes"/>
      <point x="521.0" y="283.0"/>
      <point x="521.0" y="326.0" type="qcurve" smooth="yes"/>
      <point x="521.0" y="1071.0" type="line" smooth="yes"/>
      <point x="521.0" y="1114.0"/>
      <point x="562.0" y="1114.0" type="qcurve" smooth="yes"/>
      <point x="830.0" y="1114.0" type="line" smooth="yes"/>
      <point x="1009.0" y="1114.0"/>
      <point x="1174.0" y="1003.0"/>
      <point x="1174.0" y="879.0" type="qcurve" smooth="yes"/>
      <point x="1174.0" y="786.0"/>
      <point x="1041.0" y="676.0"/>
      <point x="938.0" y="658.0" type="qcurve"/>
      <point x="938.0" y="657.0" type="line"/>
      <point x="994.0" y="636.0"/>
      <point x="1050.0" y="563.0"/>
      <point x="1068.0" y="534.0" type="qcurve" smooth="yes"/>
      <point x="1196.0" y="333.0" type="line" smooth="yes"/>
      <point x="1228.0" y="283.0"/>
      <point x="1174.0" y="283.0" type="qcurve" smooth="yes"/>
      <point x="1067.0" y="283.0" type="line" smooth="yes"/>
      <point x="1035.0" y="283.0"/>
      <point x="1015.0" y="317.0" type="qcurve" smooth="yes"/>
      <point x="898.0" y="512.0" type="line" smooth="yes"/>
      <point x="880.0" y="542.0"/>
      <point x="778.0" y="618.0"/>
      <point x="727.0" y="618.0" type="qcurve" smooth="yes"/>
      <point x="696.0" y="618.0" type="line"/>
      <point x="696.0" y="326.0" type="line" smooth="yes"/>
      <point x="696.0" y="283.0"/>
      <point x="656.0" y="283.0" type="qcurve" smooth="yes"/>
    </contour>
    <contour>
      <point x="696.0" y="763.0" type="line"/>
      <point x="790.0" y="763.0" type="line" smooth="yes"/>
      <point x="906.0" y="763.0"/>
      <point x="1004.0" y="815.0"/>
      <point x="1004.0" y="872.0" type="qcurve" smooth="yes"/>
      <point x="1004.0" y="935.0"/>
      <point x="910.0" y="970.0"/>
      <point x="818.0" y="970.0" type="qcurve" smooth="yes"/>
      <point x="696.0" y="970.0" type="line"/>
    </contour>
  </outline>
</glyph>
<glyph name="macron" format="2">
  <advance width="614"/>
  <unicode hex="00AF"/>
  <outline>
    <contour>
      <point x="38.0" y="1226.0" type="line" smooth="yes"/>
      <point x="-22.0" y="1226.0"/>
      <point x="-22.0" y="1276.0" type="qcurve" smooth="yes"/>
      <point x="-22.0" y="1342.0" type="line" smooth="yes"/>
      <point x="-22.0" y="1392.0"/>
      <point x="38.0" y="1392.0" type="qcurve" smooth="yes"/>
      <point x="576.0" y="1392.0" type="line" smooth="yes"/>
      <point x="636.0" y="1392.0"/>
      <point x="636.0" y="1342.0" type="qcurve" smooth="yes"/>
      <point x="636.0" y="1276.0" type="line" smooth="yes"/>
      <point x="636.0" y="1226.0"/>
      <point x="576.0" y="1226.0" type="qcurve" smooth="yes"/>
    </contour>
  </outline>
</glyph>
<glyph name="uni00B2" format="2">
  <advance width="630"/>
  <unicode hex="00B2"/>
  <outline>
    <contour>
      <point x="85.0" y="712.0" type="line" smooth="yes"/>
      <point x="46.0" y="712.0"/>
      <point x="46.0" y="746.0" type="qcurve" smooth="yes"/>
      <point x="46.0" y="782.0" type="line" smooth="yes"/>
      <point x="46.0" y="809.0"/>
      <point x="71.0" y="835.0" type="qcurve" smooth="yes"/>
      <point x="226.0" y="999.0" type="line" smooth="yes"/>
      <point x="281.0" y="1058.0"/>
      <point x="402.0" y="1190.0"/>
      <point x="402.0" y="1246.0" type="qcurve" smooth="yes"/>
      <point x="402.0" y="1292.0"/>
      <point x="354.0" y="1342.0"/>
      <point x="309.0" y="1342.0" type="qcurve" smooth="yes"/>
      <point x="248.0" y="1342.0"/>
      <point x="186.0" y="1276.0"/>
      <point x="173.0" y="1239.0" type="qcurve" smooth="yes"/>
      <point x="160.0" y="1198.0"/>
      <point x="130.0" y="1212.0" type="qcurve" smooth="yes"/>
      <point x="72.0" y="1239.0" type="line" smooth="yes"/>
      <point x="48.0" y="1250.0"/>
      <point x="58.0" y="1287.0" type="qcurve" smooth="yes"/>
      <point x="78.0" y="1361.0"/>
      <point x="203.0" y="1468.0"/>
      <point x="325.0" y="1468.0" type="qcurve" smooth="yes"/>
      <point x="453.0" y="1468.0"/>
      <point x="568.0" y="1337.0"/>
      <point x="568.0" y="1260.0" type="qcurve" smooth="yes"/>
      <point x="568.0" y="1168.0"/>
      <point x="413.0" y="1022.0"/>
      <point x="341.0" y="946.0" type="qcurve" smooth="yes"/>
      <point x="253.0" y="853.0" type="line"/>
      <point x="253.0" y="850.0" type="line"/>
      <point x="284.0" y="852.0"/>
      <point x="305.0" y="852.0" type="qcurve" smooth="yes"/>
      <point x="538.0" y="852.0" type="line" smooth="yes"/>
      <point x="577.0" y="852.0"/>
      <point x="577.0" y="818.0" type="qcurve" smooth="yes"/>
      <point x="577.0" y="746.0" type="line" smooth="yes"/>
      <point x="577.0" y="712.0"/>
      <point x="538.0" y="712.0" type="qcurve" smooth="yes"/>
    </contour>
  </outline>
</glyph>
<glyph name="uni00B3" format="2">
  <advance width="630"/>
  <unicode hex="00B3"/>
  <outline>
    <contour>
      <point x="50.0" y="765.0" type="qcurve" smooth="yes"/>
      <point x="29.0" y="783.0"/>
      <point x="47.0" y="814.0" type="qcurve" smooth="yes"/>
      <point x="77.0" y="867.0" type="line" smooth="yes"/>
      <point x="95.0" y="898.0"/>
      <point x="132.0" y="872.0" type="qcurve" smooth="yes"/>
      <point x="164.0" y="849.0"/>
      <point x="247.0" y="821.0"/>
      <point x="289.0" y="821.0" type="qcurve" smooth="yes"/>
      <point x="343.0" y="821.0"/>
      <point x="411.0" y="884.0"/>
      <point x="411.0" y="931.0" type="qcurve" smooth="yes"/>
      <point x="411.0" y="978.0"/>
      <point x="337.0" y="1047.0"/>
      <point x="283.0" y="1047.0" type="qcurve" smooth="yes"/>
      <point x="243.0" y="1047.0" type="line" smooth="yes"/>
      <point x="209.0" y="1047.0"/>
      <point x="209.0" y="1074.0" type="qcurve" smooth="yes"/>
      <point x="209.0" y="1143.0" type="line" smooth="yes"/>
      <point x="209.0" y="1172.0"/>
      <point x="243.0" y="1172.0" type="qcurve" smooth="yes"/>
      <point x="274.0" y="1172.0" type="line" smooth="yes"/>
      <point x="317.0" y="1172.0"/>
      <point x="388.0" y="1230.0"/>
      <point x="388.0" y="1271.0" type="qcurve" smooth="yes"/>
      <point x="388.0" y="1294.0"/>
      <point x="343.0" y="1342.0"/>
      <point x="292.0" y="1342.0" type="qcurve" smooth="yes"/>
      <point x="245.0" y="1342.0"/>
      <point x="177.0" y="1316.0"/>
      <point x="150.0" y="1291.0" type="qcurve" smooth="yes"/>
      <point x="119.0" y="1262.0"/>
      <point x="97.0" y="1294.0" type="qcurve" smooth="yes"/>
      <point x="61.0" y="1347.0" type="line" smooth="yes"/>
      <point x="44.0" y="1372.0"/>
      <point x="71.0" y="1398.0" type="qcurve" smooth="yes"/>
      <point x="108.0" y="1434.0"/>
      <point x="227.0" y="1468.0"/>
      <point x="284.0" y="1468.0" type="qcurve" smooth="yes"/>
      <point x="417.0" y="1468.0"/>
      <point x="550.0" y="1362.0"/>
      <point x="550.0" y="1285.0" type="qcurve" smooth="yes"/>
      <point x="550.0" y="1228.0"/>
      <point x="458.0" y="1134.0"/>
      <point x="408.0" y="1116.0" type="qcurve"/>
      <point x="408.0" y="1114.0" type="line"/>
      <point x="467.0" y="1099.0"/>
      <point x="577.0" y="1001.0"/>
      <point x="577.0" y="929.0" type="qcurve" smooth="yes"/>
      <point x="577.0" y="815.0"/>
      <point x="430.0" y="694.0"/>
      <point x="283.0" y="694.0" type="qcurve" smooth="yes"/>
      <point x="221.0" y="694.0"/>
      <point x="88.0" y="732.0"/>
    </contour>
  </outline>
</glyph>
<glyph name="uni00B5" format="2">
  <advance width="1234"/>
  <unicode hex="00B5"/>
  <outline>
    <contour>
      <point x="196.0" y="-400.0" type="line" smooth="yes"/>
      <point x="136.0" y="-400.0"/>
      <point x="136.0" y="-340.0" type="qcurve" smooth="yes"/>
      <point x="136.0" y="990.0" type="line" smooth="yes"/>
      <point x="136.0" y="1050.0"/>
      <point x="196.0" y="1050.0" type="qcurve" smooth="yes"/>
      <point x="356.0" y="1050.0" type="line" smooth="yes"/>
      <point x="416.0" y="1050.0"/>
      <point x="416.0" y="990.0" type="qcurve" smooth="yes"/>
      <point x="416.0" y="596.0" type="line" smooth="yes"/>
      <point x="416.0" y="351.0"/>
      <point x="540.0" y="176.0"/>
      <point x="617.0" y="176.0" type="qcurve" smooth="yes"/>
      <point x="717.0" y="176.0"/>
      <point x="818.0" y="366.0"/>
      <point x="818.0" y="596.0" type="qcurve" smooth="yes"/>
      <point x="818.0" y="990.0" type="line" smooth="yes"/>
      <point x="818.0" y="1050.0"/>
      <point x="878.0" y="1050.0" type="qcurve" smooth="yes"/>
      <point x="1038.0" y="1050.0" type="line" smooth="yes"/>
      <point x="1098.0" y="1050.0"/>
      <point x="1098.0" y="990.0" type="qcurve" smooth="yes"/>
      <point x="1098.0" y="60.0" type="line" smooth="yes"/>
      <point x="1098.0" y="0.0"/>
      <point x="1038.0" y="0.0" type="qcurve" smooth="yes"/>
      <point x="880.0" y="0.0" type="line" smooth="yes"/>
      <point x="820.0" y="0.0"/>
      <point x="820.0" y="60.0" type="qcurve" smooth="yes"/>
      <point x="820.0" y="118.0" type="line"/>
      <point x="816.0" y="118.0" type="line"/>
      <point x="780.0" y="45.0"/>
      <point x="690.0" y="-20.0"/>
      <point x="621.0" y="-20.0" type="qcurve" smooth="yes"/>
      <point x="552.0" y="-20.0"/>
      <point x="453.0" y="42.0"/>
      <point x="418.0" y="118.0" type="qcurve"/>
      <point x="412.0" y="118.0" type="line"/>
      <point x="416.0" y="78.0"/>
      <point x="416.0" y="38.0" type="qcurve" smooth="yes"/>
      <point x="416.0" y="-340.0" type="line" smooth="yes"/>
      <point x="416.0" y="-400.0"/>
      <point x="356.0" y="-400.0" type="qcurve" smooth="yes"/>
    </contour>
  </outline>
</glyph>
<glyph name="cedilla" format="2">
  <advance width="614"/>
  <unicode hex="00B8"/>
  <outline>
    <contour>
      <point x="117.0" y="-401.0" type="qcurve" smooth="yes"/>
      <point x="89.0" y="-393.0"/>
      <point x="99.0" y="-359.0" type="qcurve" smooth="yes"/>
      <point x="112.0" y="-314.0" type="line" smooth="yes"/>
      <point x="123.0" y="-277.0"/>
      <point x="158.0" y="-291.0" type="qcurve" smooth="yes"/>
      <point x="192.0" y="-304.0"/>
      <point x="238.0" y="-304.0" type="qcurve" smooth="yes"/>
      <point x="279.0" y="-304.0"/>
      <point x="326.0" y="-277.0"/>
      <point x="326.0" y="-248.0" type="qcurve" smooth="yes"/>
      <point x="326.0" y="-223.0"/>
      <point x="277.0" y="-197.0"/>
      <point x="223.0" y="-197.0" type="qcurve" smooth="yes"/>
      <point x="202.0" y="-197.0" type="line" smooth="yes"/>
      <point x="168.0" y="-197.0"/>
      <point x="168.0" y="-162.0" type="qcurve" smooth="yes"/>
      <point x="168.0" y="-121.0"/>
      <point x="182.0" y="-94.0" type="qcurve" smooth="yes"/>
      <point x="230.0" y="0.0" type="line" smooth="yes"/>
      <point x="241.0" y="22.0"/>
      <point x="270.0" y="22.0" type="qcurve" smooth="yes"/>
      <point x="353.0" y="22.0" type="line" smooth="yes"/>
      <point x="383.0" y="22.0"/>
      <point x="372.0" y="0.0" type="qcurve" smooth="yes"/>
      <point x="327.0" y="-88.0" type="line"/>
      <point x="327.0" y="-91.0" type="line"/>
      <point x="413.0" y="-103.0"/>
      <point x="481.0" y="-181.0"/>
      <point x="481.0" y="-244.0" type="qcurve" smooth="yes"/>
      <point x="481.0" y="-340.0"/>
      <point x="349.0" y="-419.0"/>
      <point x="249.0" y="-419.0" type="qcurve" smooth="yes"/>
      <point x="180.0" y="-419.0"/>
    </contour>
  </outline>
</glyph>
<glyph name="uni00B9" format="2">
  <advance width="520"/>
  <unicode hex="00B9"/>
  <outline>
    <contour>
      <point x="78.0" y="1299.0" type="line" smooth="yes"/>
      <point x="65.0" y="1324.0"/>
      <point x="96.0" y="1339.0" type="qcurve" smooth="yes"/>
      <point x="126.0" y="1353.0"/>
      <point x="206.0" y="1405.0"/>
      <point x="227.0" y="1431.0" type="qcurve" smooth="yes"/>
      <point x="250.0" y="1460.0"/>
      <point x="272.0" y="1460.0" type="qcurve" smooth="yes"/>
      <point x="369.0" y="1460.0" type="line" smooth="yes"/>
      <point x="400.0" y="1460.0"/>
      <point x="400.0" y="1429.0" type="qcurve" smooth="yes"/>
      <point x="400.0" y="743.0" type="line" smooth="yes"/>
      <point x="400.0" y="712.0"/>
      <point x="369.0" y="712.0" type="qcurve" smooth="yes"/>
      <point x="271.0" y="712.0" type="line" smooth="yes"/>
      <point x="240.0" y="712.0"/>
      <point x="240.0" y="743.0" type="qcurve" smooth="yes"/>
      <point x="240.0" y="1227.0" type="line" smooth="yes"/>
      <point x="240.0" y="1248.0"/>
      <point x="242.0" y="1269.0" type="qcurve"/>
      <point x="240.0" y="1269.0" type="line"/>
      <point x="224.0" y="1249.0"/>
      <point x="168.0" y="1218.0"/>
      <point x="154.0" y="1212.0" type="qcurve" smooth="yes"/>
      <point x="130.0" y="1202.0"/>
      <point x="117.0" y="1226.0" type="qcurve" smooth="yes"/>
    </contour>
  </outline>
</glyph>
<glyph name="AE" format="2">
  <advance width="1911"/>
  <unicode hex="00C6"/>
  <outline>
    <contour>
      <point x="90.0" y="0.0" type="line" smooth="yes"/>
      <point x="15.0" y="0.0"/>
      <point x="43.0" y="66.0" type="qcurve" smooth="yes"/>
      <point x="587.0" y="1353.0" type="line" smooth="yes"/>
      <point x="621.0" y="1434.0"/>
      <point x="681.0" y="1434.0" type="qcurve" smooth="yes"/>
      <point x="1719.0" y="1434.0" type="line" smooth="yes"/>
      <point x="1794.0" y="1434.0"/>
      <point x="1794.0" y="1369.0" type="qcurve" smooth="yes"/>
      <point x="1794.0" y="1251.0" type="line" smooth="yes"/>
      <point x="1794.0" y="1186.0"/>
      <point x="1719.0" y="1186.0" type="qcurve" smooth="yes"/>
      <point x="1116.0" y="1186.0" type="line"/>
      <point x="1116.0" y="868.0" type="line"/>
      <point x="1666.0" y="868.0" type="line" smooth="yes"/>
      <point x="1741.0" y="868.0"/>
      <point x="1741.0" y="803.0" type="qcurve" smooth="yes"/>
      <point x="1741.0" y="685.0" type="line" smooth="yes"/>
      <point x="1741.0" y="620.0"/>
      <point x="1666.0" y="620.0" type="qcurve" smooth="yes"/>
      <point x="1116.0" y="620.0" type="line"/>
      <point x="1116.0" y="248.0" type="line"/>
      <point x="1751.0" y="248.0" type="line" smooth="yes"/>
      <point x="1826.0" y="248.0"/>
      <point x="1826.0" y="183.0" type="qcurve" smooth="yes"/>
      <point x="1826.0" y="65.0" type="line" smooth="yes"/>
      <point x="1826.0" y="0.0"/>
      <point x="1751.0" y="0.0" type="qcurve" smooth="yes"/>
      <point x="894.0" y="0.0" type="line" smooth="yes"/>
      <point x="824.0" y="0.0"/>
      <point x="824.0" y="75.0" type="qcurve" smooth="yes"/>
      <point x="824.0" y="338.0" type="line"/>
      <point x="458.0" y="338.0" type="line"/>
      <point x="344.0" y="69.0" type="line" smooth="yes"/>
      <point x="315.0" y="0.0"/>
      <point x="252.0" y="0.0" type="qcurve" smooth="yes"/>
    </contour>
    <contour>
      <point x="562.0" y="586.0" type="line"/>
      <point x="824.0" y="586.0" type="line"/>
      <point x="824.0" y="1186.0" type="line"/>
      <point x="788.0" y="1186.0" type="line"/>
      <point x="776.0" y="1114.0"/>
      <point x="746.0" y="1017.0"/>
      <point x="723.0" y="964.0" type="qcurve" smooth="yes"/>
    </contour>
  </outline>
</glyph>
<glyph name="Oslash" format="2">
  <advance width="1544"/>
  <unicode hex="00D8"/>
  <outline>
    <contour>
      <point x="86.0" y="717.0" type="qcurve" smooth="yes"/>
      <point x="86.0" y="1062.0"/>
      <point x="442.0" y="1468.0"/>
      <point x="772.0" y="1468.0" type="qcurve" smooth="yes"/>
      <point x="1024.0" y="1468.0"/>
      <point x="1187.0" y="1350.0" type="qcurve"/>
      <point x="1307.0" y="1483.0" type="line" smooth="yes"/>
      <point x="1347.0" y="1528.0"/>
      <point x="1388.0" y="1491.0" type="qcurve" smooth="yes"/>
      <point x="1477.0" y="1410.0" type="line" smooth="yes"/>
      <point x="1518.0" y="1374.0"/>
      <point x="1478.0" y="1329.0" type="qcurve" smooth="yes"/>
      <point x="1343.0" y="1179.0" type="line"/>
      <point x="1458.0" y="994.0"/>
      <point x="1458.0" y="717.0" type="qcurve" smooth="yes"/>
      <point x="1458.0" y="372.0"/>
      <point x="1102.0" y="-34.0"/>
      <point x="772.0" y="-34.0" type="qcurve" smooth="yes"/>
      <point x="520.0" y="-34.0"/>
      <point x="357.0" y="84.0" type="qcurve"/>
      <point x="237.0" y="-49.0" type="line" smooth="yes"/>
      <point x="197.0" y="-94.0"/>
      <point x="156.0" y="-57.0" type="qcurve" smooth="yes"/>
      <point x="67.0" y="24.0" type="line" smooth="yes"/>
      <point x="26.0" y="61.0"/>
      <point x="66.0" y="105.0" type="qcurve" smooth="yes"/>
      <point x="201.0" y="255.0" type="line"/>
      <point x="86.0" y="440.0"/>
    </contour>
    <contour>
      <point x="398.0" y="717.0" type="qcurve" smooth="yes"/>
      <point x="398.0" y="593.0"/>
      <point x="420.0" y="498.0" type="qcurve"/>
      <point x="1010.0" y="1153.0" type="line"/>
      <point x="922.0" y="1232.0"/>
      <point x="772.0" y="1232.0" type="qcurve" smooth="yes"/>
      <point x="577.0" y="1232.0"/>
      <point x="398.0" y="967.0"/>
    </contour>
    <contour>
      <point x="534.0" y="281.0" type="line"/>
      <point x="622.0" y="202.0"/>
      <point x="772.0" y="202.0" type="qcurve" smooth="yes"/>
      <point x="967.0" y="202.0"/>
      <point x="1146.0" y="467.0"/>
      <point x="1146.0" y="717.0" type="qcurve" smooth="yes"/>
      <point x="1146.0" y="841.0"/>
      <point x="1124.0" y="936.0" type="qcurve"/>
    </contour>
  </outline>
</glyph>
<glyph name="germandbls" format="2">
  <advance width="1337"/>
  <unicode hex="00DF"/>
  <outline>
    <contour>
      <point x="196.0" y="0.0" type="line" smooth="yes"/>
      <point x="136.0" y="0.0"/>
      <point x="136.0" y="60.0" type="qcurve" smooth="yes"/>
      <point x="136.0" y="1110.0" type="line" smooth="yes"/>
      <point x="136.0" y="1311.0"/>
      <point x="441.0" y="1496.0"/>
      <point x="654.0" y="1496.0" type="qcurve" smooth="yes"/>
      <point x="894.0" y="1496.0"/>
      <point x="1120.0" y="1294.0"/>
      <point x="1120.0" y="1150.0" type="qcurve" smooth="yes"/>
      <point x="1120.0" y="1032.0"/>
      <point x="982.0" y="860.0"/>
      <point x="864.0" y="798.0" type="qcurve"/>
      <point x="864.0" y="795.0" type="line"/>
      <point x="1024.0" y="784.0"/>
      <point x="1243.0" y="570.0"/>
      <point x="1243.0" y="376.0" type="qcurve" smooth="yes"/>
      <point x="1243.0" y="212.0"/>
      <point x="1032.0" y="-20.0"/>
      <point x="800.0" y="-20.0" type="qcurve" smooth="yes"/>
      <point x="738.0" y="-20.0"/>
      <point x="602.0" y="6.0"/>
      <point x="559.0" y="34.0" type="qcurve" smooth="yes"/>
      <point x="518.0" y="60.0"/>
      <point x="534.0" y="98.0" type="qcurve" smooth="yes"/>
      <point x="580.0" y="208.0" type="line" smooth="yes"/>
      <point x="599.0" y="254.0"/>
      <point x="646.0" y="221.0" type="qcurve" smooth="yes"/>
      <point x="666.0" y="207.0"/>
      <point x="741.0" y="176.0"/>
      <point x="780.0" y="176.0" type="qcurve" smooth="yes"/>
      <point x="854.0" y="176.0"/>
      <point x="947.0" y="296.0"/>
      <point x="947.0" y="399.0" type="qcurve" smooth="yes"/>
      <point x="947.0" y="500.0"/>
      <point x="812.0" y="636.0"/>
      <point x="686.0" y="640.0" type="qcurve" smooth="yes"/>
      <point x="659.0" y="641.0"/>
      <point x="647.0" y="675.0" type="qcurve" smooth="yes"/>
      <point x="602.0" y="807.0" type="line" smooth="yes"/>
      <point x="593.0" y="835.0"/>
      <point x="626.0" y="859.0" type="qcurve" smooth="yes"/>
      <point x="682.0" y="900.0" type="line" smooth="yes"/>
      <point x="782.0" y="973.0"/>
      <point x="840.0" y="1066.0"/>
      <point x="840.0" y="1141.0" type="qcurve" smooth="yes"/>
      <point x="840.0" y="1208.0"/>
      <point x="758.0" y="1300.0"/>
      <point x="656.0" y="1300.0" type="qcurve" smooth="yes"/>
      <point x="552.0" y="1300.0"/>
      <point x="416.0" y="1196.0"/>
      <point x="416.0" y="1040.0" type="qcurve" smooth="yes"/>
      <point x="416.0" y="60.0" type="line" smooth="yes"/>
      <point x="416.0" y="0.0"/>
      <point x="356.0" y="0.0" type="qcurve" smooth="yes"/>
    </contour>
  </outline>
</glyph>
<glyph name="eth" format="2">
  <advance width="1206"/>
  <unicode hex="00F0"/>
  <outline>
    <contour>
      <point x="80.0" y="518.0" type="qcurve" smooth="yes"/>
      <point x="80.0" y="763.0"/>
      <point x="339.0" y="1035.0"/>
      <point x="562.0" y="1035.0" type="qcurve" smooth="yes"/>
      <point x="672.0" y="1035.0"/>
      <point x="807.0" y="981.0"/>
      <point x="867.0" y="909.0" type="qcurve"/>
      <point x="876.0" y="909.0" type="line"/>
      <point x="828.0" y="1029.0"/>
      <point x="650.0" y="1175.0"/>
      <point x="602.0" y="1207.0" type="qcurve"/>
      <point x="454.0" y="1125.0" type="line" smooth="yes"/>
      <point x="402.0" y="1096.0"/>
      <point x="378.0" y="1139.0" type="qcurve" smooth="yes"/>
      <point x="341.0" y="1205.0" type="line" smooth="yes"/>
      <point x="317.0" y="1248.0"/>
      <point x="370.0" y="1278.0" type="qcurve" smooth="yes"/>
      <point x="422.0" y="1307.0" type="line"/>
      <point x="399.0" y="1317.0"/>
      <point x="375.0" y="1327.0" type="qcurve" smooth="yes"/>
      <point x="325.0" y="1348.0"/>
      <point x="351.0" y="1394.0" type="qcurve" smooth="yes"/>
      <point x="398.0" y="1476.0" type="line" smooth="yes"/>
      <point x="420.0" y="1515.0"/>
      <point x="479.0" y="1492.0" type="qcurve" smooth="yes"/>
      <point x="558.0" y="1461.0"/>
      <point x="630.0" y="1422.0" type="qcurve"/>
      <point x="746.0" y="1486.0" type="line" smooth="yes"/>
      <point x="798.0" y="1515.0"/>
      <point x="822.0" y="1472.0" type="qcurve" smooth="yes"/>
      <point x="859.0" y="1406.0" type="line" smooth="yes"/>
      <point x="882.0" y="1366.0"/>
      <point x="830.0" y="1333.0" type="qcurve" smooth="yes"/>
      <point x="795.0" y="1310.0" type="line"/>
      <point x="886.0" y="1238.0"/>
      <point x="1119.0" y="918.0"/>
      <point x="1119.0" y="595.0" type="qcurve" smooth="yes"/>
      <point x="1119.0" y="264.0"/>
      <point x="863.0" y="-20.0"/>
      <point x="603.0" y="-20.0" type="qcurve" smooth="yes"/>
      <point x="343.0" y="-20.0"/>
      <point x="80.0" y="273.0"/>
    </contour>
    <contour>
      <point x="376.0" y="508.0" type="qcurve" smooth="yes"/>
      <point x="376.0" y="333.0"/>
      <point x="493.0" y="176.0"/>
      <point x="603.0" y="176.0" type="qcurve" smooth="yes"/>
      <point x="713.0" y="176.0"/>
      <point x="830.0" y="333.0"/>
      <point x="830.0" y="508.0" type="qcurve" smooth="yes"/>
      <point x="830.0" y="683.0"/>
      <point x="713.0" y="839.0"/>
      <point x="603.0" y="839.0" type="qcurve" smooth="yes"/>
      <point x="493.0" y="839.0"/>
      <point x="376.0" y="683.0"/>
    </contour>
  </outline>
</glyph>
<glyph name="Aogonek" format="2">
  <advance width="1394"/>
  <unicode hex="0104"/>
  <outline>
    <contour>
      <point x="90.0" y="0.0" type="line" smooth="yes"/>
      <point x="18.0" y="0.0"/>
      <point x="43.0" y="66.0" type="qcurve" smooth="yes"/>
      <point x="533.0" y="1353.0" type="line" smooth="yes"/>
      <point x="563.8389892578125" y="1434.0"/>
      <point x="627.0" y="1434.0" type="qcurve" smooth="yes"/>
      <point x="767.0" y="1434.0" type="line" smooth="yes"/>
      <point x="830.1610107421875" y="1434.0"/>
      <point x="861.0" y="1353.0" type="qcurve" smooth="yes"/>
      <point x="1351.0" y="66.0" type="line" smooth="yes"/>
      <point x="1371.77001953125" y="11.420100212097168"/>
      <point x="1322.0" y="-6.0" type="qcurve" smooth="yes"/>
      <point x="1302.0" y="-13.0"/>
      <point x="1128.0" y="-145.0"/>
      <point x="1128.0" y="-176.0" type="qcurve" smooth="yes"/>
      <point x="1128.0" y="-207.0"/>
      <point x="1175.0" y="-224.0"/>
      <point x="1207.0" y="-224.0" type="qcurve" smooth="yes"/>
      <point x="1257.0" y="-224.0"/>
      <point x="1288.0" y="-219.0" type="qcurve" smooth="yes"/>
      <point x="1323.6199951171875" y="-213.06300354003906"/>
      <point x="1328.0" y="-250.0" type="qcurve" smooth="yes"/>
      <point x="1342.0" y="-368.0" type="line" smooth="yes"/>
      <point x="1346.27001953125" y="-403.95098876953125"/>
      <point x="1308.0" y="-411.0" type="qcurve" smooth="yes"/>
      <point x="1264.0" y="-420.0"/>
      <point x="1174.0" y="-420.0" type="qcurve" smooth="yes"/>
      <point x="1033.0" y="-420.0"/>
      <point x="892.0" y="-332.0"/>
      <point x="892.0" y="-247.0" type="qcurve" smooth="yes"/>
      <point x="892.0" y="-213.0"/>
      <point x="913.0" y="-143.0"/>
      <point x="977.0" y="-62.0"/>
      <point x="1047.0" y="0.0" type="qcurve" smooth="yes"/>
      <point x="1071.489990234375" y="21.688100814819336"/>
      <point x="1053.0" y="69.0" type="qcurve" smooth="yes"/>
      <point x="951.0" y="338.0" type="line"/>
      <point x="443.0" y="338.0" type="line"/>
      <point x="341.0" y="69.0" type="line" smooth="yes"/>
      <point x="314.83599853515625" y="0.0"/>
      <point x="249.0" y="0.0" type="qcurve" smooth="yes"/>
    </contour>
    <contour>
      <point x="536.0" y="586.0" type="line"/>
      <point x="858.0" y="586.0" type="line"/>
      <point x="735.0" y="904.0" type="line" smooth="yes"/>
      <point x="713.0" y="960.0"/>
      <point x="704.0" y="1011.0"/>
      <point x="699.0" y="1061.0" type="qcurve"/>
      <point x="695.0" y="1061.0" type="line"/>
      <point x="690.0" y="1011.0"/>
      <point x="681.0" y="960.0"/>
      <point x="659.0" y="904.0" type="qcurve" smooth="yes"/>
    </contour>
  </outline>
</glyph>
<glyph name="aogonek" format="2">
  <advance width="1123"/>
  <unicode hex="0105"/>
  <outline>
    <contour>
      <point x="80.0" y="280.0" type="qcurve" smooth="yes"/>
      <point x="80.0" y="480.0"/>
      <point x="462.0" y="660.0"/>
      <point x="707.0" y="666.0" type="qcurve"/>
      <point x="707.0" y="706.0" type="line" smooth="yes"/>
      <point x="707.0" y="798.0"/>
      <point x="615.0" y="874.0"/>
      <point x="533.0" y="874.0" type="qcurve" smooth="yes"/>
      <point x="475.0" y="874.0"/>
      <point x="386.0" y="841.0"/>
      <point x="321.0" y="798.0"/>
      <point x="295.0" y="776.0" type="qcurve" smooth="yes"/>
      <point x="249.0" y="736.0"/>
      <point x="219.0" y="772.0" type="qcurve" smooth="yes"/>
      <point x="136.0" y="874.0" type="line" smooth="yes"/>
      <point x="105.0" y="912.0"/>
      <point x="151.0" y="952.0" type="qcurve" smooth="yes"/>
      <point x="186.0" y="983.0"/>
      <point x="279.0" y="1029.0"/>
      <point x="433.0" y="1070.0"/>
      <point x="556.0" y="1070.0" type="qcurve" smooth="yes"/>
      <point x="764.0" y="1070.0"/>
      <point x="987.0" y="878.0"/>
      <point x="987.0" y="691.0" type="qcurve" smooth="yes"/>
      <point x="987.0" y="60.0" type="line" smooth="yes"/>
      <point x="987.0" y="15.0"/>
      <point x="950.0" y="-11.0" type="qcurve"/>
      <point x="898.0" y="-54.0"/>
      <point x="772.0" y="-145.0"/>
      <point x="772.0" y="-176.0" type="qcurve" smooth="yes"/>
      <point x="772.0" y="-207.0"/>
      <point x="819.0" y="-224.0"/>
      <point x="851.0" y="-224.0" type="qcurve" smooth="yes"/>
      <point x="901.0" y="-224.0"/>
      <point x="932.0" y="-219.0" type="qcurve" smooth="yes"/>
      <point x="968.0" y="-213.0"/>
      <point x="972.0" y="-250.0" type="qcurve" smooth="yes"/>
      <point x="986.0" y="-368.0" type="line" smooth="yes"/>
      <point x="990.0" y="-404.0"/>
      <point x="952.0" y="-411.0" type="qcurve" smooth="yes"/>
      <point x="908.0" y="-420.0"/>
      <point x="818.0" y="-420.0" type="qcurve" smooth="yes"/>
      <point x="677.0" y="-420.0"/>
      <point x="536.0" y="-332.0"/>
      <point x="536.0" y="-247.0" type="qcurve" smooth="yes"/>
      <point x="536.0" y="-211.0"/>
      <point x="555.0" y="-143.0"/>
      <point x="639.0" y="-45.0"/>
      <point x="691.0" y="0.0" type="qcurve"/>
      <point x="709.0" y="13.0"/>
      <point x="709.0" y="60.0" type="qcurve" smooth="yes"/>
      <point x="709.0" y="90.0" type="line"/>
      <point x="707.0" y="90.0" type="line"/>
      <point x="648.0" y="33.0"/>
      <point x="483.0" y="-20.0"/>
      <point x="414.0" y="-20.0" type="qcurve" smooth="yes"/>
      <point x="250.0" y="-20.0"/>
      <point x="80.0" y="141.0"/>
    </contour>
    <contour>
      <point x="376.0" y="286.0" type="qcurve" smooth="yes"/>
      <point x="376.0" y="251.0"/>
      <point x="404.0" y="200.0"/>
      <point x="464.0" y="176.0"/>
      <point x="501.0" y="176.0" type="qcurve" smooth="yes"/>
      <point x="552.0" y="176.0"/>
      <point x="648.0" y="204.0"/>
      <point x="707.0" y="256.0" type="qcurve"/>
      <point x="707.0" y="473.0" type="line"/>
      <point x="539.0" y="454.0"/>
      <point x="425.0" y="394.0"/>
      <point x="376.0" y="330.0"/>
    </contour>
  </outline>
</glyph>
<glyph name="eogonek" format="2">
  <advance width="1174"/>
  <unicode hex="0119"/>
  <outline>
    <contour>
      <point x="80.0" y="525.0" type="qcurve" smooth="yes"/>
      <point x="80.0" y="778.0"/>
      <point x="333.0" y="1070.0"/>
      <point x="564.0" y="1070.0" type="qcurve" smooth="yes"/>
      <point x="832.0" y="1070.0"/>
      <point x="1092.0" y="794.0"/>
      <point x="1092.0" y="488.0" type="qcurve" smooth="yes"/>
      <point x="1092.0" y="428.0"/>
      <point x="1036.0" y="428.0" type="qcurve" smooth="yes"/>
      <point x="376.0" y="428.0" type="line"/>
      <point x="392.0" y="262.0"/>
      <point x="524.0" y="176.0"/>
      <point x="611.0" y="176.0" type="qcurve" smooth="yes"/>
      <point x="694.0" y="176.0"/>
      <point x="782.0" y="220.0"/>
      <point x="812.0" y="258.0" type="qcurve" smooth="yes"/>
      <point x="846.0" y="302.0"/>
      <point x="896.0" y="272.0" type="qcurve" smooth="yes"/>
      <point x="996.0" y="211.0" type="line" smooth="yes"/>
      <point x="1055.0" y="175.0"/>
      <point x="1013.0" y="125.0" type="qcurve" smooth="yes"/>
      <point x="978.0" y="84.0"/>
      <point x="905.0" y="32.0"/>
      <point x="860.0" y="-11.0" type="qcurve"/>
      <point x="808.0" y="-54.0"/>
      <point x="682.0" y="-145.0"/>
      <point x="682.0" y="-176.0" type="qcurve" smooth="yes"/>
      <point x="682.0" y="-207.0"/>
      <point x="729.0" y="-224.0"/>
      <point x="761.0" y="-224.0" type="qcurve" smooth="yes"/>
      <point x="811.0" y="-224.0"/>
      <point x="842.0" y="-219.0" type="qcurve" smooth="yes"/>
      <point x="878.0" y="-213.0"/>
      <point x="882.0" y="-250.0" type="qcurve" smooth="yes"/>
      <point x="896.0" y="-368.0" type="line" smooth="yes"/>
      <point x="900.0" y="-404.0"/>
      <point x="862.0" y="-411.0" type="qcurve" smooth="yes"/>
      <point x="818.0" y="-420.0"/>
      <point x="728.0" y="-420.0" type="qcurve" smooth="yes"/>
      <point x="587.0" y="-420.0"/>
      <point x="446.0" y="-332.0"/>
      <point x="446.0" y="-247.0" type="qcurve" smooth="yes"/>
      <point x="446.0" y="-211.0"/>
      <point x="465.0" y="-143.0"/>
      <point x="534.0" y="-62.0"/>
      <point x="610.0" y="-22.0" type="qcurve"/>
      <point x="610.0" y="-18.0" type="line"/>
      <point x="600.0" y="-20.0"/>
      <point x="590.0" y="-20.0" type="qcurve" smooth="yes"/>
      <point x="324.0" y="-20.0"/>
      <point x="80.0" y="272.0"/>
    </contour>
    <contour>
      <point x="377.0" y="628.0" type="qcurve"/>
      <point x="812.0" y="628.0" type="line"/>
      <point x="812.0" y="736.0"/>
      <point x="704.0" y="873.0"/>
      <point x="586.0" y="873.0" type="qcurve" smooth="yes"/>
      <point x="492.0" y="873.0"/>
      <point x="382.0" y="742.0"/>
    </contour>
  </outline>
</glyph>
<glyph name="dotlessi" format="2">
  <advance width="552"/>
  <unicode hex="0131"/>
  <outline>
    <contour>
      <point x="196.0" y="0.0" type="line" smooth="yes"/>
      <point x="136.0" y="0.0"/>
      <point x="136.0" y="60.0" type="qcurve" smooth="yes"/>
      <point x="136.0" y="990.0" type="line" smooth="yes"/>
      <point x="136.0" y="1050.0"/>
      <point x="196.0" y="1050.0" type="qcurve" smooth="yes"/>
      <point x="356.0" y="1050.0" type="line" smooth="yes"/>
      <point x="416.0" y="1050.0"/>
      <point x="416.0" y="990.0" type="qcurve" smooth="yes"/>
      <point x="416.0" y="60.0" type="line" smooth="yes"/>
      <point x="416.0" y="0.0"/>
      <point x="356.0" y="0.0" type="qcurve" smooth="yes"/>
    </contour>
  </outline>
</glyph>
<glyph name="lslash" format="2">
  <advance width="692"/>
  <unicode hex="0142"/>
  <outline>
    <contour>
      <point x="91.0" y="473.0" type="line" smooth="yes"/>
      <point x="36.0" y="432.0"/>
      <point x="36.0" y="488.0" type="qcurve" smooth="yes"/>
      <point x="36.0" y="630.0" type="line" smooth="yes"/>
      <point x="36.0" y="675.0"/>
      <point x="79.0" y="707.0" type="qcurve" smooth="yes"/>
      <point x="201.0" y="797.0" type="line"/>
      <point x="201.0" y="1241.0" type="line" smooth="yes"/>
      <point x="201.0" y="1286.0"/>
      <point x="222.0" y="1323.0" type="qcurve" smooth="yes"/>
      <point x="299.0" y="1458.0" type="line" smooth="yes"/>
      <point x="321.0" y="1496.0"/>
      <point x="351.0" y="1496.0" type="qcurve" smooth="yes"/>
      <point x="421.0" y="1496.0" type="line" smooth="yes"/>
      <point x="481.0" y="1496.0"/>
      <point x="481.0" y="1436.0" type="qcurve" smooth="yes"/>
      <point x="481.0" y="1088.0" type="line" smooth="yes"/>
      <point x="481.0" y="1048.0"/>
      <point x="477.0" y="1008.0" type="qcurve"/>
      <point x="481.0" y="1008.0" type="line"/>
      <point x="601.0" y="1096.0" type="line" smooth="yes"/>
      <point x="656.0" y="1136.0"/>
      <point x="656.0" y="1080.0" type="qcurve" smooth="yes"/>
      <point x="656.0" y="938.0" type="line" smooth="yes"/>
      <point x="656.0" y="893.0"/>
      <point x="613.0" y="862.0" type="qcurve" smooth="yes"/>
      <point x="481.0" y="766.0" type="line"/>
      <point x="481.0" y="60.0" type="line" smooth="yes"/>
      <point x="481.0" y="0.0"/>
      <point x="421.0" y="0.0" type="qcurve" smooth="yes"/>
      <point x="261.0" y="0.0" type="line" smooth="yes"/>
      <point x="201.0" y="0.0"/>
      <point x="201.0" y="60.0" type="qcurve" smooth="yes"/>
      <point x="201.0" y="475.0" type="line" smooth="yes"/>
      <point x="201.0" y="515.0"/>
      <point x="205.0" y="555.0" type="qcurve"/>
      <point x="201.0" y="555.0" type="line"/>
    </contour>
  </outline>
</glyph>
<glyph name="eng" format="2">
  <advance width="1200"/>
  <unicode hex="014B"/>
  <outline>
    <contour>
      <point x="196.0" y="0.0" type="line" smooth="yes"/>
      <point x="136.0" y="0.0"/>
      <point x="136.0" y="60.0" type="qcurve" smooth="yes"/>
      <point x="136.0" y="990.0" type="line" smooth="yes"/>
      <point x="136.0" y="1050.0"/>
      <point x="196.0" y="1050.0" type="qcurve" smooth="yes"/>
      <point x="354.0" y="1050.0" type="line" smooth="yes"/>
      <point x="414.0" y="1050.0"/>
      <point x="414.0" y="990.0" type="qcurve" smooth="yes"/>
      <point x="414.0" y="932.0" type="line"/>
      <point x="418.0" y="932.0" type="line"/>
      <point x="464.0" y="1011.0"/>
      <point x="606.0" y="1070.0"/>
      <point x="706.0" y="1070.0" type="qcurve" smooth="yes"/>
      <point x="862.0" y="1070.0"/>
      <point x="1066.0" y="874.0"/>
      <point x="1066.0" y="614.0" type="qcurve" smooth="yes"/>
      <point x="1066.0" y="-4.0" type="line" smooth="yes"/>
      <point x="1066.0" y="-252.0"/>
      <point x="872.0" y="-420.0"/>
      <point x="710.0" y="-420.0" type="qcurve" smooth="yes"/>
      <point x="620.0" y="-420.0"/>
      <point x="559.0" y="-409.0" type="qcurve" smooth="yes"/>
      <point x="521.0" y="-402.0"/>
      <point x="530.0" y="-357.0" type="qcurve" smooth="yes"/>
      <point x="552.0" y="-247.0" type="line" smooth="yes"/>
      <point x="561.0" y="-201.0"/>
      <point x="603.0" y="-217.0" type="qcurve" smooth="yes"/>
      <point x="621.0" y="-224.0"/>
      <point x="675.0" y="-224.0" type="qcurve" smooth="yes"/>
      <point x="738.0" y="-224.0"/>
      <point x="786.0" y="-92.0"/>
      <point x="786.0" y="26.0" type="qcurve" smooth="yes"/>
      <point x="786.0" y="542.0" type="line" smooth="yes"/>
      <point x="786.0" y="760.0"/>
      <point x="726.0" y="874.0"/>
      <point x="627.0" y="874.0" type="qcurve" smooth="yes"/>
      <point x="522.0" y="874.0"/>
      <point x="416.0" y="711.0"/>
      <point x="416.0" y="454.0" type="qcurve" smooth="yes"/>
      <point x="416.0" y="60.0" type="line" smooth="yes"/>
      <point x="416.0" y="0.0"/>
      <point x="356.0" y="0.0" type="qcurve" smooth="yes"/>
    </contour>
  </outline>
</glyph>
<glyph name="longs" format="2">
  <advance width="652"/>
  <unicode hex="017F"/>
  <outline>
    <contour>
      <point x="196.0" y="0.0" type="line" smooth="yes"/>
      <point x="136.0" y="0.0"/>
      <point x="136.0" y="60.0" type="qcurve" smooth="yes"/>
      <point x="136.0" y="1190.0" type="line" smooth="yes"/>
      <point x="136.0" y="1374.0"/>
      <point x="349.0" y="1496.0"/>
      <point x="494.0" y="1496.0" type="qcurve" smooth="yes"/>
      <point x="563.0" y="1496.0"/>
      <point x="650.0" y="1480.0"/>
      <point x="688.0" y="1468.0" type="qcurve" smooth="yes"/>
      <point x="724.0" y="1456.0"/>
      <point x="714.0" y="1418.0" type="qcurve" smooth="yes"/>
      <point x="684.0" y="1305.0" type="line" smooth="yes"/>
      <point x="675.0" y="1272.0"/>
      <point x="638.0" y="1285.0" type="qcurve" smooth="yes"/>
      <point x="616.0" y="1293.0"/>
      <point x="549.0" y="1300.0"/>
      <point x="526.0" y="1300.0" type="qcurve" smooth="yes"/>
      <point x="453.0" y="1300.0"/>
      <point x="416.0" y="1222.0"/>
      <point x="416.0" y="1090.0" type="qcurve" smooth="yes"/>
      <point x="416.0" y="60.0" type="line" smooth="yes"/>
      <point x="416.0" y="0.0"/>
      <point x="356.0" y="0.0" type="qcurve" smooth="yes"/>
    </contour>
  </outline>
</glyph>
<glyph name="uni0190" format="2">
  <advance width="1254"/>
  <unicode hex="0190"/>
  <outline>
    <contour>
      <point x="104.0" y="390.0" type="qcurve" smooth="yes"/>
      <point x="104.0" y="545.0"/>
      <point x="295.0" y="731.0"/>
      <point x="412.0" y="763.0" type="qcurve"/>
      <point x="412.0" y="767.0" type="line"/>
      <point x="291.0" y="803.0"/>
      <point x="155.0" y="941.0"/>
      <point x="155.0" y="1085.0" type="qcurve" smooth="yes"/>
      <point x="155.0" y="1253.0"/>
      <point x="420.0" y="1468.0"/>
      <point x="649.0" y="1468.0" type="qcurve" smooth="yes"/>
      <point x="775.0" y="1468.0"/>
      <point x="971.0" y="1411.0"/>
      <point x="1095.0" y="1320.0" type="qcurve" smooth="yes"/>
      <point x="1156.0" y="1275.0"/>
      <point x="1108.0" y="1220.0" type="qcurve" smooth="yes"/>
      <point x="1030.0" y="1129.0" type="line" smooth="yes"/>
      <point x="987.0" y="1079.0"/>
      <point x="919.0" y="1138.0" type="qcurve" smooth="yes"/>
      <point x="871.0" y="1179.0"/>
      <point x="747.0" y="1232.0"/>
      <point x="658.0" y="1232.0" type="qcurve" smooth="yes"/>
      <point x="542.0" y="1232.0"/>
      <point x="436.0" y="1135.0"/>
      <point x="436.0" y="1062.0" type="qcurve" smooth="yes"/>
      <point x="436.0" y="978.0"/>
      <point x="535.0" y="872.0"/>
      <point x="643.0" y="872.0" type="qcurve" smooth="yes"/>
      <point x="778.0" y="872.0" type="line" smooth="yes"/>
      <point x="842.0" y="872.0"/>
      <point x="842.0" y="807.0" type="qcurve" smooth="yes"/>
      <point x="842.0" y="699.0" type="line" smooth="yes"/>
      <point x="842.0" y="636.0"/>
      <point x="778.0" y="636.0" type="qcurve" smooth="yes"/>
      <point x="657.0" y="636.0" type="line" smooth="yes"/>
      <point x="552.0" y="636.0"/>
      <point x="406.0" y="531.0"/>
      <point x="406.0" y="414.0" type="qcurve" smooth="yes"/>
      <point x="406.0" y="299.0"/>
      <point x="559.0" y="202.0"/>
      <point x="658.0" y="202.0" type="qcurve" smooth="yes"/>
      <point x="755.0" y="202.0"/>
      <point x="883.0" y="259.0"/>
      <point x="944.0" y="312.0" type="qcurve" smooth="yes"/>
      <point x="1014.0" y="373.0"/>
      <point x="1054.0" y="329.0" type="qcurve" smooth="yes"/>
      <point x="1140.0" y="236.0" type="line" smooth="yes"/>
      <point x="1183.0" y="190.0"/>
      <point x="1131.0" y="137.0" type="qcurve" smooth="yes"/>
      <point x="1047.0" y="51.0"/>
      <point x="827.0" y="-34.0"/>
      <point x="662.0" y="-34.0" type="qcurve" smooth="yes"/>
      <point x="431.0" y="-34.0"/>
      <point x="104.0" y="188.0"/>
    </contour>
  </outline>
</glyph>
<glyph name="florin" format="2">
  <advance width="682"/>
  <unicode hex="0192"/>
  <outline>
    <contour>
      <point x="-70.0" y="-409.0" type="qcurve" smooth="yes"/>
      <point x="-108.0" y="-402.0"/>
      <point x="-99.0" y="-357.0" type="qcurve" smooth="yes"/>
      <point x="-77.0" y="-247.0" type="line" smooth="yes"/>
      <point x="-68.0" y="-201.0"/>
      <point x="-26.0" y="-217.0" type="qcurve" smooth="yes"/>
      <point x="-8.0" y="-224.0"/>
      <point x="46.0" y="-224.0" type="qcurve" smooth="yes"/>
      <point x="109.0" y="-224.0"/>
      <point x="157.0" y="-92.0"/>
      <point x="157.0" y="26.0" type="qcurve" smooth="yes"/>
      <point x="157.0" y="850.0" type="line"/>
      <point x="101.0" y="850.0" type="line" smooth="yes"/>
      <point x="42.0" y="850.0"/>
      <point x="42.0" y="900.0" type="qcurve" smooth="yes"/>
      <point x="42.0" y="1000.0" type="line" smooth="yes"/>
      <point x="42.0" y="1050.0"/>
      <point x="101.0" y="1050.0" type="qcurve" smooth="yes"/>
      <point x="157.0" y="1050.0" type="line"/>
      <point x="157.0" y="1190.0" type="line" smooth="yes"/>
      <point x="157.0" y="1374.0"/>
      <point x="367.0" y="1496.0"/>
      <point x="512.0" y="1496.0" type="qcurve" smooth="yes"/>
      <point x="581.0" y="1496.0"/>
      <point x="680.0" y="1480.0"/>
      <point x="718.0" y="1468.0" type="qcurve" smooth="yes"/>
      <point x="754.0" y="1456.0"/>
      <point x="744.0" y="1418.0" type="qcurve" smooth="yes"/>
      <point x="714.0" y="1305.0" type="line" smooth="yes"/>
      <point x="705.0" y="1272.0"/>
      <point x="668.0" y="1285.0" type="qcurve" smooth="yes"/>
      <point x="646.0" y="1293.0"/>
      <point x="567.0" y="1300.0"/>
      <point x="544.0" y="1300.0" type="qcurve" smooth="yes"/>
      <point x="471.0" y="1300.0"/>
      <point x="437.0" y="1198.0"/>
      <point x="437.0" y="1090.0" type="qcurve" smooth="yes"/>
      <point x="437.0" y="1050.0" type="line"/>
      <point x="569.0" y="1050.0" type="line" smooth="yes"/>
      <point x="628.0" y="1050.0"/>
      <point x="628.0" y="1000.0" type="qcurve" smooth="yes"/>
      <point x="628.0" y="900.0" type="line" smooth="yes"/>
      <point x="628.0" y="850.0"/>
      <point x="569.0" y="850.0" type="qcurve" smooth="yes"/>
      <point x="437.0" y="850.0" type="line"/>
      <point x="437.0" y="-4.0" type="line" smooth="yes"/>
      <point x="437.0" y="-252.0"/>
      <point x="243.0" y="-420.0"/>
      <point x="81.0" y="-420.0" type="qcurve" smooth="yes"/>
      <point x="-9.0" y="-420.0"/>
    </contour>
  </outline>
</glyph>
<glyph name="uni0194" format="2">
  <advance width="1348"/>
  <unicode hex="0194"/>
  <outline>
    <contour>
      <point x="51.0" y="1348.0" type="line" smooth="yes"/>
      <point x="3.0" y="1434.0"/>
      <point x="98.0" y="1434.0" type="qcurve" smooth="yes"/>
      <point x="273.0" y="1434.0" type="line" smooth="yes"/>
      <point x="329.0" y="1434.0"/>
      <point x="365.0" y="1365.0" type="qcurve" smooth="yes"/>
      <point x="568.0" y="974.0" type="line"/>
      <point x="577.0" y="959.0"/>
      <point x="665.0" y="802.0"/>
      <point x="672.0" y="728.0" type="qcurve"/>
      <point x="676.0" y="728.0" type="line"/>
      <point x="683.0" y="802.0"/>
      <point x="771.0" y="959.0"/>
      <point x="780.0" y="974.0" type="qcurve"/>
      <point x="983.0" y="1365.0" type="line" smooth="yes"/>
      <point x="1019.0" y="1434.0"/>
      <point x="1075.0" y="1434.0" type="qcurve" smooth="yes"/>
      <point x="1250.0" y="1434.0" type="line" smooth="yes"/>
      <point x="1345.0" y="1434.0"/>
      <point x="1297.0" y="1348.0" type="qcurve" smooth="yes"/>
      <point x="846.0" y="534.0" type="line"/>
      <point x="923.0" y="456.0"/>
      <point x="1017.0" y="321.0"/>
      <point x="1017.0" y="233.0" type="qcurve" smooth="yes"/>
      <point x="1017.0" y="126.0"/>
      <point x="864.0" y="-34.0"/>
      <point x="674.0" y="-34.0" type="qcurve" smooth="yes"/>
      <point x="484.0" y="-34.0"/>
      <point x="331.0" y="126.0"/>
      <point x="331.0" y="233.0" type="qcurve" smooth="yes"/>
      <point x="331.0" y="321.0"/>
      <point x="425.0" y="456.0"/>
      <point x="502.0" y="534.0" type="qcurve"/>
    </contour>
    <contour>
      <point x="605.0" y="273.0" type="qcurve" smooth="yes"/>
      <point x="605.0" y="234.0"/>
      <point x="646.0" y="196.0"/>
      <point x="674.0" y="196.0" type="qcurve" smooth="yes"/>
      <point x="702.0" y="196.0"/>
      <point x="743.0" y="234.0"/>
      <point x="743.0" y="273.0" type="qcurve" smooth="yes"/>
      <point x="743.0" y="292.0"/>
      <point x="720.0" y="357.0"/>
      <point x="676.0" y="394.0" type="qcurve"/>
      <point x="672.0" y="394.0" type="line"/>
      <point x="628.0" y="357.0"/>
      <point x="605.0" y="292.0"/>
    </contour>
  </outline>
</glyph>
<glyph name="uni0237" format="2">
  <advance width="562"/>
  <unicode hex="0237"/>
  <outline>
    <contour>
      <point x="-81.0" y="-409.0" type="qcurve" smooth="yes"/>
      <point x="-119.0" y="-402.0"/>
      <point x="-110.0" y="-357.0" type="qcurve" smooth="yes"/>
      <point x="-88.0" y="-247.0" type="line" smooth="yes"/>
      <point x="-79.0" y="-201.0"/>
      <point x="-37.0" y="-217.0" type="qcurve" smooth="yes"/>
      <point x="-19.0" y="-224.0"/>
      <point x="35.0" y="-224.0" type="qcurve" smooth="yes"/>
      <point x="98.0" y="-224.0"/>
      <point x="146.0" y="-92.0"/>
      <point x="146.0" y="26.0" type="qcurve" smooth="yes"/>
      <point x="146.0" y="990.0" type="line" smooth="yes"/>
      <point x="146.0" y="1050.0"/>
      <point x="206.0" y="1050.0" type="qcurve" smooth="yes"/>
      <point x="366.0" y="1050.0" type="line" smooth="yes"/>
      <point x="426.0" y="1050.0"/>
      <point x="426.0" y="990.0" type="qcurve" smooth="yes"/>
      <point x="426.0" y="-4.0" type="line" smooth="yes"/>
      <point x="426.0" y="-252.0"/>
      <point x="232.0" y="-420.0"/>
      <point x="70.0" y="-420.0" type="qcurve" smooth="yes"/>
      <point x="-20.0" y="-420.0"/>
    </contour>
  </outline>
</glyph>
<glyph name="uni0244" format="2">
  <advance width="1610"/>
  <unicode hex="0244"/>
  <outline>
    <contour>
      <point x="546.0" y="607.0" type="line" smooth="yes"/>
      <point x="546.0" y="337.0"/>
      <point x="705.0" y="202.0"/>
      <point x="805.0" y="202.0" type="qcurve" smooth="yes"/>
      <point x="905.0" y="202.0"/>
      <point x="1064.0" y="337.0"/>
      <point x="1064.0" y="607.0" type="qcurve" smooth="yes"/>
      <point x="1064.0" y="622.0" type="line"/>
      <point x="546.0" y="622.0" type="line"/>
    </contour>
    <contour>
      <point x="121.0" y="622.0" type="line" smooth="yes"/>
      <point x="46.0" y="622.0"/>
      <point x="46.0" y="687.0" type="qcurve" smooth="yes"/>
      <point x="46.0" y="805.0" type="line" smooth="yes"/>
      <point x="46.0" y="870.0"/>
      <point x="121.0" y="870.0" type="qcurve" smooth="yes"/>
      <point x="254.0" y="870.0" type="line"/>
      <point x="254.0" y="1379.0" type="line" smooth="yes"/>
      <point x="254.0" y="1434.0"/>
      <point x="324.0" y="1434.0" type="qcurve" smooth="yes"/>
      <point x="476.0" y="1434.0" type="line" smooth="yes"/>
      <point x="546.0" y="1434.0"/>
      <point x="546.0" y="1379.0" type="qcurve" smooth="yes"/>
      <point x="546.0" y="870.0" type="line"/>
      <point x="1064.0" y="870.0" type="line"/>
      <point x="1064.0" y="1379.0" type="line" smooth="yes"/>
      <point x="1064.0" y="1434.0"/>
      <point x="1134.0" y="1434.0" type="qcurve" smooth="yes"/>
      <point x="1286.0" y="1434.0" type="line" smooth="yes"/>
      <point x="1356.0" y="1434.0"/>
      <point x="1356.0" y="1379.0" type="qcurve" smooth="yes"/>
      <point x="1356.0" y="870.0" type="line"/>
      <point x="1489.0" y="870.0" type="line" smooth="yes"/>
      <point x="1564.0" y="870.0"/>
      <point x="1564.0" y="805.0" type="qcurve" smooth="yes"/>
      <point x="1564.0" y="687.0" type="line" smooth="yes"/>
      <point x="1564.0" y="622.0"/>
      <point x="1489.0" y="622.0" type="qcurve" smooth="yes"/>
      <point x="1356.0" y="622.0" type="line"/>
      <point x="1356.0" y="597.0" type="line" smooth="yes"/>
      <point x="1356.0" y="247.0"/>
      <point x="1060.0" y="-34.0"/>
      <point x="805.0" y="-34.0" type="qcurve" smooth="yes"/>
      <point x="550.0" y="-34.0"/>
      <point x="254.0" y="247.0"/>
      <point x="254.0" y="597.0" type="qcurve" smooth="yes"/>
      <point x="254.0" y="622.0" type="line"/>
    </contour>
  </outline>
</glyph>
<glyph name="uni025B" format="2">
  <advance width="988"/>
  <unicode hex="025B"/>
  <outline>
    <contour>
      <point x="94.0" y="302.0" type="qcurve" smooth="yes"/>
      <point x="94.0" y="384.0"/>
      <point x="199.0" y="507.0"/>
      <point x="307.0" y="556.0" type="qcurve"/>
      <point x="307.0" y="559.0" type="line"/>
      <point x="227.0" y="595.0"/>
      <point x="127.0" y="696.0"/>
      <point x="127.0" y="804.0" type="qcurve" smooth="yes"/>
      <point x="127.0" y="915.0"/>
      <point x="363.0" y="1070.0"/>
      <point x="553.0" y="1070.0" type="qcurve" smooth="yes"/>
      <point x="639.0" y="1070.0"/>
      <point x="819.0" y="1031.0"/>
      <point x="889.0" y="977.0" type="qcurve" smooth="yes"/>
      <point x="929.0" y="946.0"/>
      <point x="894.0" y="899.0" type="qcurve" smooth="yes"/>
      <point x="837.0" y="822.0" type="line" smooth="yes"/>
      <point x="810.0" y="785.0"/>
      <point x="762.0" y="822.0" type="qcurve" smooth="yes"/>
      <point x="719.0" y="855.0"/>
      <point x="623.0" y="874.0"/>
      <point x="573.0" y="874.0" type="qcurve" smooth="yes"/>
      <point x="507.0" y="874.0"/>
      <point x="397.0" y="828.0"/>
      <point x="397.0" y="771.0" type="qcurve" smooth="yes"/>
      <point x="397.0" y="711.0"/>
      <point x="479.0" y="648.0"/>
      <point x="540.0" y="648.0" type="qcurve" smooth="yes"/>
      <point x="643.0" y="648.0" type="line" smooth="yes"/>
      <point x="695.0" y="648.0"/>
      <point x="695.0" y="598.0" type="qcurve" smooth="yes"/>
      <point x="695.0" y="498.0" type="line" smooth="yes"/>
      <point x="695.0" y="448.0"/>
      <point x="643.0" y="448.0" type="qcurve" smooth="yes"/>
      <point x="559.0" y="448.0" type="line" smooth="yes"/>
      <point x="460.0" y="448.0"/>
      <point x="382.0" y="372.0"/>
      <point x="382.0" y="324.0" type="qcurve" smooth="yes"/>
      <point x="382.0" y="267.0"/>
      <point x="459.0" y="176.0"/>
      <point x="548.0" y="176.0" type="qcurve" smooth="yes"/>
      <point x="603.0" y="176.0"/>
      <point x="747.0" y="215.0"/>
      <point x="783.0" y="239.0" type="qcurve" smooth="yes"/>
      <point x="833.0" y="272.0"/>
      <point x="860.0" y="228.0" type="qcurve" smooth="yes"/>
      <point x="910.0" y="146.0" type="line" smooth="yes"/>
      <point x="945.0" y="89.0"/>
      <point x="903.0" y="67.0" type="qcurve" smooth="yes"/>
      <point x="843.0" y="35.0"/>
      <point x="667.0" y="-20.0"/>
      <point x="538.0" y="-20.0" type="qcurve" smooth="yes"/>
      <point x="367.0" y="-20.0"/>
      <point x="94.0" y="147.0"/>
    </contour>
  </outline>
</glyph>
<glyph name="uni0263" format="2">
  <advance width="1030"/>
  <unicode hex="0263"/>
  <outline>
    <contour>
      <point x="443.0" y="-140.0" type="qcurve" smooth="yes"/>
      <point x="443.0" y="-170.0"/>
      <point x="472.0" y="-224.0"/>
      <point x="514.0" y="-224.0" type="qcurve" smooth="yes"/>
      <point x="556.0" y="-224.0"/>
      <point x="585.0" y="-170.0"/>
      <point x="585.0" y="-140.0" type="qcurve" smooth="yes"/>
      <point x="585.0" y="-100.0"/>
      <point x="548.0" y="-22.0"/>
      <point x="516.0" y="20.0" type="qcurve"/>
      <point x="512.0" y="20.0" type="line"/>
      <point x="480.0" y="-22.0"/>
      <point x="443.0" y="-100.0"/>
    </contour>
    <contour>
      <point x="42.0" y="972.0" type="line" smooth="yes"/>
      <point x="14.0" y="1050.0"/>
      <point x="75.0" y="1050.0" type="qcurve" smooth="yes"/>
      <point x="254.0" y="1050.0" type="line" smooth="yes"/>
      <point x="298.0" y="1050.0"/>
      <point x="314.0" y="999.0" type="qcurve" smooth="yes"/>
      <point x="479.0" y="473.0" type="line" smooth="yes"/>
      <point x="486.0" y="450.0"/>
      <point x="508.0" y="361.0"/>
      <point x="511.0" y="318.0" type="qcurve"/>
      <point x="517.0" y="318.0" type="line"/>
      <point x="520.0" y="361.0"/>
      <point x="542.0" y="450.0"/>
      <point x="549.0" y="473.0" type="qcurve" smooth="yes"/>
      <point x="714.0" y="999.0" type="line" smooth="yes"/>
      <point x="730.0" y="1050.0"/>
      <point x="774.0" y="1050.0" type="qcurve" smooth="yes"/>
      <point x="953.0" y="1050.0" type="line" smooth="yes"/>
      <point x="1014.0" y="1050.0"/>
      <point x="986.0" y="972.0" type="qcurve" smooth="yes"/>
      <point x="703.0" y="183.0" type="line"/>
      <point x="787.0" y="63.0"/>
      <point x="851.0" y="-88.0"/>
      <point x="851.0" y="-173.0" type="qcurve" smooth="yes"/>
      <point x="851.0" y="-270.0"/>
      <point x="690.0" y="-420.0"/>
      <point x="514.0" y="-420.0" type="qcurve" smooth="yes"/>
      <point x="338.0" y="-420.0"/>
      <point x="177.0" y="-270.0"/>
      <point x="177.0" y="-173.0" type="qcurve" smooth="yes"/>
      <point x="177.0" y="-88.0"/>
      <point x="241.0" y="63.0"/>
      <point x="325.0" y="183.0" type="qcurve"/>
    </contour>
  </outline>
</glyph>
<glyph name="uni0265" format="2">
  <advance width="1194"/>
  <unicode hex="0265"/>
  <outline>
    <contour>
      <point x="1058.0" y="990.0" type="line" smooth="yes"/>
      <point x="1058.0" y="1050.0"/>
      <point x="998.0" y="1050.0" type="qcurve" smooth="yes"/>
      <point x="838.0" y="1050.0" type="line" smooth="yes"/>
      <point x="778.0" y="1050.0"/>
      <point x="778.0" y="990.0" type="qcurve" smooth="yes"/>
      <point x="778.0" y="596.0" type="line" smooth="yes"/>
      <point x="778.0" y="339.0"/>
      <point x="672.0" y="176.0"/>
      <point x="570.0" y="176.0" type="qcurve" smooth="yes"/>
      <point x="474.0" y="176.0"/>
      <point x="414.0" y="290.0"/>
      <point x="414.0" y="508.0" type="qcurve" smooth="yes"/>
      <point x="414.0" y="990.0" type="line" smooth="yes"/>
      <point x="414.0" y="1050.0"/>
      <point x="354.0" y="1050.0" type="qcurve" smooth="yes"/>
      <point x="194.0" y="1050.0" type="line" smooth="yes"/>
      <point x="134.0" y="1050.0"/>
      <point x="134.0" y="990.0" type="qcurve" smooth="yes"/>
      <point x="134.0" y="436.0" type="line" smooth="yes"/>
      <point x="134.0" y="176.0"/>
      <point x="338.0" y="-20.0"/>
      <point x="491.0" y="-20.0" type="qcurve" smooth="yes"/>
      <point x="588.0" y="-20.0"/>
      <point x="730.0" y="39.0"/>
      <point x="776.0" y="118.0" type="qcurve"/>
      <point x="780.0" y="118.0" type="line"/>
      <point x="776.0" y="78.0"/>
      <point x="776.0" y="38.0" type="qcurve" smooth="yes"/>
      <point x="776.0" y="-340.0" type="line" smooth="yes"/>
      <point x="776.0" y="-400.0"/>
      <point x="836.0" y="-400.0" type="qcurve" smooth="yes"/>
      <point x="996.0" y="-400.0" type="line" smooth="yes"/>
      <point x="1056.0" y="-400.0"/>
      <point x="1056.0" y="-340.0" type="qcurve" smooth="yes"/>
    </contour>
  </outline>
</glyph>
<glyph name="uni026A" format="2">
  <advance width="748"/>
  <unicode hex="026A"/>
  <outline>
    <contour>
      <point x="152.0" y="0.0" type="line" smooth="yes"/>
      <point x="92.0" y="0.0"/>
      <point x="92.0" y="50.0" type="qcurve" smooth="yes"/>
      <point x="92.0" y="150.0" type="line" smooth="yes"/>
      <point x="92.0" y="200.0"/>
      <point x="152.0" y="200.0" type="qcurve" smooth="yes"/>
      <point x="234.0" y="200.0" type="line"/>
      <point x="234.0" y="850.0" type="line"/>
      <point x="152.0" y="850.0" type="line" smooth="yes"/>
      <point x="92.0" y="850.0"/>
      <point x="92.0" y="900.0" type="qcurve" smooth="yes"/>
      <point x="92.0" y="1000.0" type="line" smooth="yes"/>
      <point x="92.0" y="1050.0"/>
      <point x="152.0" y="1050.0" type="qcurve" smooth="yes"/>
      <point x="596.0" y="1050.0" type="line" smooth="yes"/>
      <point x="656.0" y="1050.0"/>
      <point x="656.0" y="1000.0" type="qcurve" smooth="yes"/>
      <point x="656.0" y="900.0" type="line" smooth="yes"/>
      <point x="656.0" y="850.0"/>
      <point x="596.0" y="850.0" type="qcurve" smooth="yes"/>
      <point x="514.0" y="850.0" type="line"/>
      <point x="514.0" y="200.0" type="line"/>
      <point x="596.0" y="200.0" type="line" smooth="yes"/>
      <point x="656.0" y="200.0"/>
      <point x="656.0" y="150.0" type="qcurve" smooth="yes"/>
      <point x="656.0" y="50.0" type="line" smooth="yes"/>
      <point x="656.0" y="0.0"/>
      <point x="596.0" y="0.0" type="qcurve" smooth="yes"/>
    </contour>
  </outline>
</glyph>
<glyph name="uni0271" format="2">
  <advance width="1750"/>
  <unicode hex="0271"/>
  <outline>
    <contour>
      <point x="196.0" y="0.0" type="line" smooth="yes"/>
      <point x="136.0" y="0.0"/>
      <point x="136.0" y="60.0" type="qcurve" smooth="yes"/>
      <point x="136.0" y="990.0" type="line" smooth="yes"/>
      <point x="136.0" y="1050.0"/>
      <point x="196.0" y="1050.0" type="qcurve" smooth="yes"/>
      <point x="354.0" y="1050.0" type="line" smooth="yes"/>
      <point x="414.0" y="1050.0"/>
      <point x="414.0" y="990.0" type="qcurve" smooth="yes"/>
      <point x="414.0" y="932.0" type="line"/>
      <point x="418.0" y="932.0" type="line"/>
      <point x="447.0" y="996.0"/>
      <point x="585.0" y="1070.0"/>
      <point x="645.0" y="1070.0" type="qcurve" smooth="yes"/>
      <point x="765.0" y="1070.0"/>
      <point x="898.0" y="958.0"/>
      <point x="923.0" y="889.0" type="qcurve"/>
      <point x="927.0" y="889.0" type="line"/>
      <point x="1014.0" y="1002.0"/>
      <point x="1155.0" y="1070.0"/>
      <point x="1265.0" y="1070.0" type="qcurve" smooth="yes"/>
      <point x="1413.0" y="1070.0"/>
      <point x="1616.0" y="874.0"/>
      <point x="1616.0" y="614.0" type="qcurve" smooth="yes"/>
      <point x="1616.0" y="-4.0" type="line" smooth="yes"/>
      <point x="1616.0" y="-252.0"/>
      <point x="1422.0" y="-420.0"/>
      <point x="1260.0" y="-420.0" type="qcurve" smooth="yes"/>
      <point x="1170.0" y="-420.0"/>
      <point x="1109.0" y="-409.0" type="qcurve" smooth="yes"/>
      <point x="1071.0" y="-402.0"/>
      <point x="1080.0" y="-357.0" type="qcurve" smooth="yes"/>
      <point x="1102.0" y="-247.0" type="line" smooth="yes"/>
      <point x="1111.0" y="-201.0"/>
      <point x="1153.0" y="-217.0" type="qcurve" smooth="yes"/>
      <point x="1171.0" y="-224.0"/>
      <point x="1225.0" y="-224.0" type="qcurve" smooth="yes"/>
      <point x="1288.0" y="-224.0"/>
      <point x="1336.0" y="-92.0"/>
      <point x="1336.0" y="26.0" type="qcurve" smooth="yes"/>
      <point x="1336.0" y="542.0" type="line" smooth="yes"/>
      <point x="1336.0" y="760.0"/>
      <point x="1277.0" y="874.0"/>
      <point x="1202.0" y="874.0" type="qcurve" smooth="yes"/>
      <point x="1132.0" y="874.0"/>
      <point x="1016.0" y="710.0"/>
      <point x="1016.0" y="454.0" type="qcurve" smooth="yes"/>
      <point x="1016.0" y="60.0" type="line" smooth="yes"/>
      <point x="1016.0" y="0.0"/>
      <point x="956.0" y="0.0" type="qcurve" smooth="yes"/>
      <point x="796.0" y="0.0" type="line" smooth="yes"/>
      <point x="736.0" y="0.0"/>
      <point x="736.0" y="60.0" type="qcurve" smooth="yes"/>
      <point x="736.0" y="542.0" type="line" smooth="yes"/>
      <point x="736.0" y="760.0"/>
      <point x="677.0" y="874.0"/>
      <point x="602.0" y="874.0" type="qcurve" smooth="yes"/>
      <point x="532.0" y="874.0"/>
      <point x="416.0" y="711.0"/>
      <point x="416.0" y="454.0" type="qcurve" smooth="yes"/>
      <point x="416.0" y="60.0" type="line" smooth="yes"/>
      <point x="416.0" y="0.0"/>
      <point x="356.0" y="0.0" type="qcurve" smooth="yes"/>
    </contour>
  </outline>
</glyph>
<glyph name="uni0283" format="2">
  <advance width="572"/>
  <unicode hex="0283"/>
  <outline>
    <contour>
      <point x="-81.0" y="-409.0" type="qcurve" smooth="yes"/>
      <point x="-119.0" y="-402.0"/>
      <point x="-110.0" y="-357.0" type="qcurve" smooth="yes"/>
      <point x="-88.0" y="-247.0" type="line" smooth="yes"/>
      <point x="-79.0" y="-201.0"/>
      <point x="-37.0" y="-217.0" type="qcurve" smooth="yes"/>
      <point x="-19.0" y="-224.0"/>
      <point x="35.0" y="-224.0" type="qcurve" smooth="yes"/>
      <point x="98.0" y="-224.0"/>
      <point x="146.0" y="-92.0"/>
      <point x="146.0" y="26.0" type="qcurve" smooth="yes"/>
      <point x="146.0" y="1190.0" type="line" smooth="yes"/>
      <point x="146.0" y="1374.0"/>
      <point x="359.0" y="1496.0"/>
      <point x="504.0" y="1496.0" type="qcurve" smooth="yes"/>
      <point x="573.0" y="1496.0"/>
      <point x="660.0" y="1480.0"/>
      <point x="698.0" y="1468.0" type="qcurve" smooth="yes"/>
      <point x="734.0" y="1456.0"/>
      <point x="724.0" y="1418.0" type="qcurve" smooth="yes"/>
      <point x="694.0" y="1305.0" type="line" smooth="yes"/>
      <point x="685.0" y="1272.0"/>
      <point x="648.0" y="1285.0" type="qcurve" smooth="yes"/>
      <point x="626.0" y="1293.0"/>
      <point x="559.0" y="1300.0"/>
      <point x="536.0" y="1300.0" type="qcurve" smooth="yes"/>
      <point x="463.0" y="1300.0"/>
      <point x="426.0" y="1222.0"/>
      <point x="426.0" y="1090.0" type="qcurve" smooth="yes"/>
      <point x="426.0" y="-4.0" type="line" smooth="yes"/>
      <point x="426.0" y="-252.0"/>
      <point x="232.0" y="-420.0"/>
      <point x="70.0" y="-420.0" type="qcurve" smooth="yes"/>
      <point x="-20.0" y="-420.0"/>
    </contour>
  </outline>
</glyph>
<glyph name="uni028B" format="2">
  <advance width="1169"/>
  <unicode hex="028B"/>
  <outline>
    <contour>
      <point x="134.0" y="464.0" type="qcurve" smooth="yes"/>
      <point x="134.0" y="990.0" type="line" smooth="yes"/>
      <point x="134.0" y="1050.0"/>
      <point x="194.0" y="1050.0" type="qcurve" smooth="yes"/>
      <point x="354.0" y="1050.0" type="line" smooth="yes"/>
      <point x="414.0" y="1050.0"/>
      <point x="414.0" y="990.0" type="qcurve" smooth="yes"/>
      <point x="414.0" y="508.0" type="line" smooth="yes"/>
      <point x="414.0" y="290.0"/>
      <point x="495.0" y="176.0"/>
      <point x="593.0" y="176.0" type="qcurve" smooth="yes"/>
      <point x="683.0" y="176.0"/>
      <point x="793.0" y="330.0"/>
      <point x="793.0" y="531.0" type="qcurve" smooth="yes"/>
      <point x="793.0" y="627.0"/>
      <point x="732.0" y="819.0"/>
      <point x="683.0" y="894.0" type="qcurve" smooth="yes"/>
      <point x="653.0" y="940.0"/>
      <point x="698.0" y="966.0" type="qcurve" smooth="yes"/>
      <point x="857.0" y="1056.0" type="line" smooth="yes"/>
      <point x="902.0" y="1082.0"/>
      <point x="938.0" y="1029.0" type="qcurve" smooth="yes"/>
      <point x="993.0" y="948.0"/>
      <point x="1089.0" y="693.0"/>
      <point x="1089.0" y="557.0" type="qcurve" smooth="yes"/>
      <point x="1089.0" y="279.0"/>
      <point x="837.0" y="-20.0"/>
      <point x="601.0" y="-20.0" type="qcurve" smooth="yes"/>
      <point x="405.0" y="-20.0"/>
      <point x="134.0" y="178.0"/>
    </contour>
  </outline>
</glyph>
<glyph name="uni028C" format="2">
  <advance width="1008"/>
  <unicode hex="028C"/>
  <outline>
    <contour>
      <point x="75.0" y="0.0" type="line" smooth="yes"/>
      <point x="17.0" y="0.0"/>
      <point x="42.0" y="78.0" type="qcurve" smooth="yes"/>
      <point x="332.0" y="983.0" type="line" smooth="yes"/>
      <point x="353.0" y="1050.0"/>
      <point x="405.0" y="1050.0" type="qcurve" smooth="yes"/>
      <point x="603.0" y="1050.0" type="line" smooth="yes"/>
      <point x="655.0" y="1050.0"/>
      <point x="676.0" y="983.0" type="qcurve" smooth="yes"/>
      <point x="966.0" y="78.0" type="line" smooth="yes"/>
      <point x="991.0" y="0.0"/>
      <point x="933.0" y="0.0" type="qcurve" smooth="yes"/>
      <point x="754.0" y="0.0" type="line" smooth="yes"/>
      <point x="707.0" y="0.0"/>
      <point x="694.0" y="51.0" type="qcurve" smooth="yes"/>
      <point x="539.0" y="637.0" type="line" smooth="yes"/>
      <point x="526.0" y="686.0"/>
      <point x="509.0" y="782.0"/>
      <point x="507.0" y="812.0" type="qcurve"/>
      <point x="501.0" y="812.0" type="line"/>
      <point x="499.0" y="782.0"/>
      <point x="482.0" y="686.0"/>
      <point x="469.0" y="637.0" type="qcurve" smooth="yes"/>
      <point x="314.0" y="51.0" type="line" smooth="yes"/>
      <point x="301.0" y="0.0"/>
      <point x="254.0" y="0.0" type="qcurve" smooth="yes"/>
    </contour>
  </outline>
</glyph>
<glyph name="circumflex" format="2">
  <advance width="614"/>
  <unicode hex="02C6"/>
  <outline>
    <contour>
      <point x="-8.0" y="1186.0" type="line" smooth="yes"/>
      <point x="-37.0" y="1227.0"/>
      <point x="13.0" y="1262.0" type="qcurve" smooth="yes"/>
      <point x="220.0" y="1407.0" type="line" smooth="yes"/>
      <point x="259.0" y="1434.0"/>
      <point x="288.0" y="1434.0" type="qcurve" smooth="yes"/>
      <point x="326.0" y="1434.0" type="line" smooth="yes"/>
      <point x="355.0" y="1434.0"/>
      <point x="394.0" y="1407.0" type="qcurve" smooth="yes"/>
      <point x="601.0" y="1262.0" type="line" smooth="yes"/>
      <point x="651.0" y="1227.0"/>
      <point x="622.0" y="1186.0" type="qcurve" smooth="yes"/>
      <point x="597.0" y="1150.0" type="line" smooth="yes"/>
      <point x="567.0" y="1109.0"/>
      <point x="519.0" y="1144.0" type="qcurve" smooth="yes"/>
      <point x="308.0" y="1295.0" type="line"/>
      <point x="306.0" y="1295.0" type="line"/>
      <point x="95.0" y="1144.0" type="line" smooth="yes"/>
      <point x="46.0" y="1109.0"/>
      <point x="17.0" y="1150.0" type="qcurve" smooth="yes"/>
    </contour>
  </outline>
</glyph>
<glyph name="breve" format="2">
  <advance width="614"/>
  <unicode hex="02D8"/>
  <outline>
    <contour>
      <point x="-22.0" y="1350.0" type="qcurve" smooth="yes"/>
      <point x="-42.0" y="1393.0"/>
      <point x="-12.0" y="1410.0" type="qcurve" smooth="yes"/>
      <point x="52.0" y="1446.0" type="line" smooth="yes"/>
      <point x="88.0" y="1466.0"/>
      <point x="108.0" y="1425.0" type="qcurve" smooth="yes"/>
      <point x="134.0" y="1372.0"/>
      <point x="233.0" y="1298.0"/>
      <point x="307.0" y="1298.0" type="qcurve" smooth="yes"/>
      <point x="381.0" y="1298.0"/>
      <point x="480.0" y="1372.0"/>
      <point x="506.0" y="1425.0" type="qcurve" smooth="yes"/>
      <point x="526.0" y="1466.0"/>
      <point x="562.0" y="1446.0" type="qcurve" smooth="yes"/>
      <point x="626.0" y="1410.0" type="line" smooth="yes"/>
      <point x="656.0" y="1393.0"/>
      <point x="636.0" y="1350.0" type="qcurve" smooth="yes"/>
      <point x="586.0" y="1240.0"/>
      <point x="428.0" y="1130.0"/>
      <point x="307.0" y="1130.0" type="qcurve" smooth="yes"/>
      <point x="186.0" y="1130.0"/>
      <point x="28.0" y="1240.0"/>
    </contour>
  </outline>
</glyph>
<glyph name="dotaccent" format="2">
  <advance width="614"/>
  <unicode hex="02D9"/>
  <outline>
    <contour>
      <point x="227.0" y="1204.0" type="line" smooth="yes"/>
      <point x="167.0" y="1204.0"/>
      <point x="167.0" y="1264.0" type="qcurve" smooth="yes"/>
      <point x="167.0" y="1392.0" type="line" smooth="yes"/>
      <point x="167.0" y="1452.0"/>
      <point x="227.0" y="1452.0" type="qcurve" smooth="yes"/>
      <point x="387.0" y="1452.0" type="line" smooth="yes"/>
      <point x="447.0" y="1452.0"/>
      <point x="447.0" y="1392.0" type="qcurve" smooth="yes"/>
      <point x="447.0" y="1264.0" type="line" smooth="yes"/>
      <point x="447.0" y="1204.0"/>
      <point x="387.0" y="1204.0" type="qcurve" smooth="yes"/>
    </contour>
  </outline>
</glyph>
<glyph name="ring" format="2">
  <advance width="614"/>
  <unicode hex="02DA"/>
  <outline>
    <contour>
      <point x="118.0" y="1313.0" type="qcurve" smooth="yes"/>
      <point x="118.0" y="1390.0"/>
      <point x="228.0" y="1499.0"/>
      <point x="307.0" y="1499.0" type="qcurve" smooth="yes"/>
      <point x="386.0" y="1499.0"/>
      <point x="496.0" y="1390.0"/>
      <point x="496.0" y="1313.0" type="qcurve" smooth="yes"/>
      <point x="496.0" y="1236.0"/>
      <point x="386.0" y="1127.0"/>
      <point x="307.0" y="1127.0" type="qcurve" smooth="yes"/>
      <point x="228.0" y="1127.0"/>
      <point x="118.0" y="1236.0"/>
    </contour>
    <contour>
      <point x="213.0" y="1313.0" type="qcurve" smooth="yes"/>
      <point x="213.0" y="1273.0"/>
      <point x="267.0" y="1219.0"/>
      <point x="307.0" y="1219.0" type="qcurve" smooth="yes"/>
      <point x="347.0" y="1219.0"/>
      <point x="401.0" y="1273.0"/>
      <point x="401.0" y="1313.0" type="qcurve" smooth="yes"/>
      <point x="401.0" y="1353.0"/>
      <point x="347.0" y="1407.0"/>
      <point x="307.0" y="1407.0" type="qcurve" smooth="yes"/>
      <point x="267.0" y="1407.0"/>
      <point x="213.0" y="1353.0"/>
    </contour>
  </outline>
</glyph>
<glyph name="ogonek" format="2">
  <advance width="614"/>
  <unicode hex="02DB"/>
  <outline>
    <contour>
      <point x="71.0" y="-247.0" type="qcurve" smooth="yes"/>
      <point x="71.0" y="-211.0"/>
      <point x="90.0" y="-143.0"/>
      <point x="174.0" y="-45.0"/>
      <point x="226.0" y="0.0" type="qcurve"/>
      <point x="244.0" y="13.0"/>
      <point x="244.0" y="60.0" type="qcurve"/>
      <point x="522.0" y="60.0" type="line"/>
      <point x="522.0" y="15.0"/>
      <point x="485.0" y="-11.0" type="qcurve"/>
      <point x="433.0" y="-54.0"/>
      <point x="307.0" y="-145.0"/>
      <point x="307.0" y="-176.0" type="qcurve" smooth="yes"/>
      <point x="307.0" y="-207.0"/>
      <point x="354.0" y="-224.0"/>
      <point x="386.0" y="-224.0" type="qcurve" smooth="yes"/>
      <point x="436.0" y="-224.0"/>
      <point x="467.0" y="-219.0" type="qcurve" smooth="yes"/>
      <point x="503.0" y="-213.0"/>
      <point x="507.0" y="-250.0" type="qcurve" smooth="yes"/>
      <point x="521.0" y="-368.0" type="line" smooth="yes"/>
      <point x="525.0" y="-404.0"/>
      <point x="487.0" y="-411.0" type="qcurve" smooth="yes"/>
      <point x="443.0" y="-420.0"/>
      <point x="353.0" y="-420.0" type="qcurve" smooth="yes"/>
      <point x="212.0" y="-420.0"/>
      <point x="71.0" y="-332.0"/>
    </contour>
  </outline>
</glyph>
<glyph name="hungarumlaut" format="2">
  <advance width="614"/>
  <unicode hex="02DD"/>
  <outline>
    <contour>
      <point x="26.0" y="1150.0" type="line" smooth="yes"/>
      <point x="-26.0" y="1150.0"/>
      <point x="0.0" y="1218.0" type="qcurve" smooth="yes"/>
      <point x="64.0" y="1384.0" type="line" smooth="yes"/>
      <point x="84.0" y="1435.0"/>
      <point x="161.0" y="1435.0" type="qcurve" smooth="yes"/>
      <point x="290.0" y="1435.0" type="line" smooth="yes"/>
      <point x="345.0" y="1435.0"/>
      <point x="299.0" y="1366.0" type="qcurve" smooth="yes"/>
      <point x="183.0" y="1192.0" type="line" smooth="yes"/>
      <point x="155.0" y="1150.0"/>
      <point x="90.0" y="1150.0" type="qcurve" smooth="yes"/>
    </contour>
    <contour>
      <point x="367.0" y="1150.0" type="line" smooth="yes"/>
      <point x="315.0" y="1150.0"/>
      <point x="341.0" y="1218.0" type="qcurve" smooth="yes"/>
      <point x="405.0" y="1384.0" type="line" smooth="yes"/>
      <point x="425.0" y="1435.0"/>
      <point x="502.0" y="1435.0" type="qcurve" smooth="yes"/>
      <point x="631.0" y="1435.0" type="line" smooth="yes"/>
      <point x="686.0" y="1435.0"/>
      <point x="640.0" y="1366.0" type="qcurve" smooth="yes"/>
      <point x="524.0" y="1192.0" type="line" smooth="yes"/>
      <point x="496.0" y="1150.0"/>
      <point x="431.0" y="1150.0" type="qcurve" smooth="yes"/>
    </contour>
  </outline>
</glyph>
<glyph name="afii10060" format="2">
  <advance width="1614"/>
  <unicode hex="040B"/>
  <outline>
    <contour>
      <point x="109.0" y="1178.0" type="line" smooth="yes"/>
      <point x="34.0" y="1178.0"/>
      <point x="34.0" y="1243.0" type="qcurve" smooth="yes"/>
      <point x="34.0" y="1369.0" type="line" smooth="yes"/>
      <point x="34.0" y="1434.0"/>
      <point x="109.0" y="1434.0" type="qcurve" smooth="yes"/>
      <point x="1137.0" y="1434.0" type="line" smooth="yes"/>
      <point x="1212.0" y="1434.0"/>
      <point x="1212.0" y="1369.0" type="qcurve" smooth="yes"/>
      <point x="1212.0" y="1243.0" type="line" smooth="yes"/>
      <point x="1212.0" y="1178.0"/>
      <point x="1137.0" y="1178.0" type="qcurve" smooth="yes"/>
      <point x="739.0" y="1178.0" type="line"/>
      <point x="739.0" y="943.0" type="line" smooth="yes"/>
      <point x="739.0" y="883.0"/>
      <point x="734.0" y="823.0" type="qcurve"/>
      <point x="741.0" y="823.0" type="line"/>
      <point x="813.0" y="860.0"/>
      <point x="1015.0" y="910.0"/>
      <point x="1100.0" y="910.0" type="qcurve" smooth="yes"/>
      <point x="1275.0" y="910.0"/>
      <point x="1483.0" y="666.0"/>
      <point x="1483.0" y="502.0" type="qcurve" smooth="yes"/>
      <point x="1483.0" y="75.0" type="line" smooth="yes"/>
      <point x="1483.0" y="0.0"/>
      <point x="1413.0" y="0.0" type="qcurve" smooth="yes"/>
      <point x="1261.0" y="0.0" type="line" smooth="yes"/>
      <point x="1191.0" y="0.0"/>
      <point x="1191.0" y="75.0" type="qcurve" smooth="yes"/>
      <point x="1191.0" y="454.0" type="line" smooth="yes"/>
      <point x="1191.0" y="577.0"/>
      <point x="1103.0" y="674.0"/>
      <point x="1028.0" y="674.0" type="qcurve" smooth="yes"/>
      <point x="953.0" y="674.0"/>
      <point x="827.0" y="648.0"/>
      <point x="739.0" y="607.0" type="qcurve"/>
      <point x="739.0" y="55.0" type="line" smooth="yes"/>
      <point x="739.0" y="0.0"/>
      <point x="689.0" y="0.0" type="qcurve" smooth="yes"/>
      <point x="497.0" y="0.0" type="line" smooth="yes"/>
      <point x="447.0" y="0.0"/>
      <point x="447.0" y="55.0" type="qcurve" smooth="yes"/>
      <point x="447.0" y="1178.0" type="line"/>
    </contour>
  </outline>
</glyph>
<glyph name="afii10145" format="2">
  <advance width="1430"/>
  <unicode hex="040F"/>
  <outline>
    <contour>
      <point x="230.0" y="0.0" type="line" smooth="yes"/>
      <point x="160.0" y="0.0"/>
      <point x="160.0" y="75.0" type="qcurve" smooth="yes"/>
      <point x="160.0" y="1359.0" type="line" smooth="yes"/>
      <point x="160.0" y="1434.0"/>
      <point x="230.0" y="1434.0" type="qcurve" smooth="yes"/>
      <point x="382.0" y="1434.0" type="line" smooth="yes"/>
      <point x="452.0" y="1434.0"/>
      <point x="452.0" y="1359.0" type="qcurve" smooth="yes"/>
      <point x="452.0" y="248.0" type="line"/>
      <point x="978.0" y="248.0" type="line"/>
      <point x="978.0" y="1359.0" type="line" smooth="yes"/>
      <point x="978.0" y="1434.0"/>
      <point x="1048.0" y="1434.0" type="qcurve" smooth="yes"/>
      <point x="1200.0" y="1434.0" type="line" smooth="yes"/>
      <point x="1270.0" y="1434.0"/>
      <point x="1270.0" y="1359.0" type="qcurve" smooth="yes"/>
      <point x="1270.0" y="75.0" type="line" smooth="yes"/>
      <point x="1270.0" y="0.0"/>
      <point x="1200.0" y="0.0" type="qcurve" smooth="yes"/>
      <point x="840.0" y="0.0" type="line"/>
      <point x="840.0" y="-300.0" type="line" smooth="yes"/>
      <point x="840.0" y="-370.0"/>
      <point x="780.0" y="-370.0" type="qcurve" smooth="yes"/>
      <point x="650.0" y="-370.0" type="line" smooth="yes"/>
      <point x="590.0" y="-370.0"/>
      <point x="590.0" y="-300.0" type="qcurve" smooth="yes"/>
      <point x="590.0" y="0.0" type="line"/>
    </contour>
  </outline>
</glyph>
<glyph name="afii10021" format="2">
  <advance width="1550"/>
  <unicode hex="0414"/>
  <outline>
    <contour>
      <point x="120.0" y="-370.0" type="line" smooth="yes"/>
      <point x="60.0" y="-370.0"/>
      <point x="60.0" y="-300.0" type="qcurve" smooth="yes"/>
      <point x="60.0" y="173.0" type="line" smooth="yes"/>
      <point x="60.0" y="248.0"/>
      <point x="150.0" y="248.0" type="qcurve" smooth="yes"/>
      <point x="193.0" y="248.0" type="line"/>
      <point x="324.0" y="384.0"/>
      <point x="420.0" y="716.0"/>
      <point x="420.0" y="1100.0" type="qcurve" smooth="yes"/>
      <point x="420.0" y="1359.0" type="line" smooth="yes"/>
      <point x="420.0" y="1434.0"/>
      <point x="490.0" y="1434.0" type="qcurve" smooth="yes"/>
      <point x="1230.0" y="1434.0" type="line" smooth="yes"/>
      <point x="1300.0" y="1434.0"/>
      <point x="1300.0" y="1359.0" type="qcurve" smooth="yes"/>
      <point x="1300.0" y="248.0" type="line"/>
      <point x="1400.0" y="248.0" type="line" smooth="yes"/>
      <point x="1490.0" y="248.0"/>
      <point x="1490.0" y="173.0" type="qcurve" smooth="yes"/>
      <point x="1490.0" y="-300.0" type="line" smooth="yes"/>
      <point x="1490.0" y="-370.0"/>
      <point x="1430.0" y="-370.0" type="qcurve" smooth="yes"/>
      <point x="1300.0" y="-370.0" type="line" smooth="yes"/>
      <point x="1240.0" y="-370.0"/>
      <point x="1240.0" y="-300.0" type="qcurve" smooth="yes"/>
      <point x="1240.0" y="0.0" type="line"/>
      <point x="310.0" y="0.0" type="line"/>
      <point x="310.0" y="-300.0" type="line" smooth="yes"/>
      <point x="310.0" y="-370.0"/>
      <point x="250.0" y="-370.0" type="qcurve" smooth="yes"/>
    </contour>
    <contour>
      <point x="489.0" y="248.0" type="qcurve"/>
      <point x="1008.0" y="248.0" type="line"/>
      <point x="1008.0" y="1186.0" type="line"/>
      <point x="670.0" y="1186.0" type="line"/>
      <point x="670.0" y="1044.0" type="line" smooth="yes"/>
      <point x="670.0" y="688.0"/>
      <point x="568.0" y="304.0"/>
    </contour>
  </outline>
</glyph>
<glyph name="afii10028" format="2">
  <advance width="1348"/>
  <unicode hex="041A"/>
  <outline>
    <contour>
      <point x="230.0" y="0.0" type="line" smooth="yes"/>
      <point x="160.0" y="0.0"/>
      <point x="160.0" y="75.0" type="qcurve" smooth="yes"/>
      <point x="160.0" y="1359.0" type="line" smooth="yes"/>
      <point x="160.0" y="1434.0"/>
      <point x="230.0" y="1434.0" type="qcurve" smooth="yes"/>
      <point x="382.0" y="1434.0" type="line" smooth="yes"/>
      <point x="452.0" y="1434.0"/>
      <point x="452.0" y="1359.0" type="qcurve" smooth="yes"/>
      <point x="452.0" y="855.0" type="line"/>
      <point x="482.0" y="855.0" type="line" smooth="yes"/>
      <point x="549.0" y="855.0"/>
      <point x="691.0" y="967.0"/>
      <point x="744.0" y="1050.0" type="qcurve" smooth="yes"/>
      <point x="954.0" y="1375.0" type="line" smooth="yes"/>
      <point x="992.0" y="1434.0"/>
      <point x="1044.0" y="1434.0" type="qcurve" smooth="yes"/>
      <point x="1221.0" y="1434.0" type="line" smooth="yes"/>
      <point x="1318.0" y="1434.0"/>
      <point x="1259.0" y="1348.0" type="qcurve" smooth="yes"/>
      <point x="990.0" y="954.0" type="line" smooth="yes"/>
      <point x="940.0" y="881.0"/>
      <point x="843.0" y="783.0"/>
      <point x="770.0" y="735.0" type="qcurve"/>
      <point x="770.0" y="734.0" type="line"/>
      <point x="846.0" y="705.0"/>
      <point x="970.0" y="598.0"/>
      <point x="1044.0" y="480.0" type="qcurve" smooth="yes"/>
      <point x="1290.0" y="86.0" type="line" smooth="yes"/>
      <point x="1344.0" y="0.0"/>
      <point x="1252.0" y="0.0" type="qcurve" smooth="yes"/>
      <point x="1065.0" y="0.0" type="line" smooth="yes"/>
      <point x="1009.0" y="-0.0"/>
      <point x="975.0" y="59.0" type="qcurve" smooth="yes"/>
      <point x="786.0" y="384.0" type="line" smooth="yes"/>
      <point x="733.0" y="476.0"/>
      <point x="570.0" y="611.0"/>
      <point x="497.0" y="611.0" type="qcurve" smooth="yes"/>
      <point x="452.0" y="611.0" type="line"/>
      <point x="452.0" y="75.0" type="line" smooth="yes"/>
      <point x="452.0" y="0.0"/>
      <point x="382.0" y="0.0" type="qcurve" smooth="yes"/>
    </contour>
  </outline>
</glyph>
<glyph name="afii10033" format="2">
  <advance width="1436"/>
  <unicode hex="041F"/>
  <outline>
    <contour>
      <point x="230.0" y="0.0" type="line" smooth="yes"/>
      <point x="160.0" y="0.0"/>
      <point x="160.0" y="75.0" type="qcurve" smooth="yes"/>
      <point x="160.0" y="1359.0" type="line" smooth="yes"/>
      <point x="160.0" y="1434.0"/>
      <point x="230.0" y="1434.0" type="qcurve" smooth="yes"/>
      <point x="1206.0" y="1434.0" type="line" smooth="yes"/>
      <point x="1276.0" y="1434.0"/>
      <point x="1276.0" y="1359.0" type="qcurve" smooth="yes"/>
      <point x="1276.0" y="75.0" type="line" smooth="yes"/>
      <point x="1276.0" y="0.0"/>
      <point x="1206.0" y="0.0" type="qcurve" smooth="yes"/>
      <point x="1054.0" y="0.0" type="line" smooth="yes"/>
      <point x="984.0" y="0.0"/>
      <point x="984.0" y="75.0" type="qcurve" smooth="yes"/>
      <point x="984.0" y="1186.0" type="line"/>
      <point x="452.0" y="1186.0" type="line"/>
      <point x="452.0" y="75.0" type="line" smooth="yes"/>
      <point x="452.0" y="0.0"/>
      <point x="382.0" y="0.0" type="qcurve" smooth="yes"/>
    </contour>
  </outline>
</glyph>
<glyph name="afii10038" format="2">
  <advance width="1858"/>
  <unicode hex="0424"/>
  <outline>
    <contour>
      <point x="86.0" y="730.0" type="qcurve" smooth="yes"/>
      <point x="86.0" y="1000.0"/>
      <point x="430.0" y="1300.0"/>
      <point x="740.0" y="1300.0" type="qcurve" smooth="yes"/>
      <point x="783.0" y="1300.0" type="line"/>
      <point x="783.0" y="1367.0" type="line" smooth="yes"/>
      <point x="783.0" y="1442.0"/>
      <point x="853.0" y="1442.0" type="qcurve" smooth="yes"/>
      <point x="1005.0" y="1442.0" type="line" smooth="yes"/>
      <point x="1075.0" y="1442.0"/>
      <point x="1075.0" y="1367.0" type="qcurve" smooth="yes"/>
      <point x="1075.0" y="1300.0" type="line"/>
      <point x="1118.0" y="1300.0" type="line" smooth="yes"/>
      <point x="1428.0" y="1300.0"/>
      <point x="1772.0" y="1000.0"/>
      <point x="1772.0" y="730.0" type="qcurve" smooth="yes"/>
      <point x="1772.0" y="460.0"/>
      <point x="1428.0" y="160.0"/>
      <point x="1118.0" y="160.0" type="qcurve" smooth="yes"/>
      <point x="1075.0" y="160.0" type="line"/>
      <point x="1075.0" y="60.0" type="line" smooth="yes"/>
      <point x="1075.0" y="-15.0"/>
      <point x="1005.0" y="-15.0" type="qcurve" smooth="yes"/>
      <point x="853.0" y="-15.0" type="line" smooth="yes"/>
      <point x="783.0" y="-15.0"/>
      <point x="783.0" y="60.0" type="qcurve" smooth="yes"/>
      <point x="783.0" y="160.0" type="line"/>
      <point x="740.0" y="160.0" type="line" smooth="yes"/>
      <point x="430.0" y="160.0"/>
      <point x="86.0" y="460.0"/>
    </contour>
    <contour>
      <point x="388.0" y="730.0" type="qcurve" smooth="yes"/>
      <point x="388.0" y="575.0"/>
      <point x="548.0" y="390.0"/>
      <point x="753.0" y="390.0" type="qcurve" smooth="yes"/>
      <point x="783.0" y="390.0" type="line"/>
      <point x="783.0" y="1070.0" type="line"/>
      <point x="753.0" y="1070.0" type="line" smooth="yes"/>
      <point x="548.0" y="1070.0"/>
      <point x="388.0" y="885.0"/>
    </contour>
    <contour>
      <point x="1075.0" y="390.0" type="line"/>
      <point x="1105.0" y="390.0" type="line" smooth="yes"/>
      <point x="1310.0" y="390.0"/>
      <point x="1470.0" y="575.0"/>
      <point x="1470.0" y="730.0" type="qcurve" smooth="yes"/>
      <point x="1470.0" y="885.0"/>
      <point x="1310.0" y="1070.0"/>
      <point x="1105.0" y="1070.0" type="qcurve" smooth="yes"/>
      <point x="1075.0" y="1070.0" type="line"/>
    </contour>
  </outline>
</glyph>
<glyph name="afii10040" format="2">
  <advance width="1522"/>
  <unicode hex="0426"/>
  <outline>
    <contour>
      <point x="230.0" y="0.0" type="line" smooth="yes"/>
      <point x="160.0" y="0.0"/>
      <point x="160.0" y="75.0" type="qcurve" smooth="yes"/>
      <point x="160.0" y="1359.0" type="line" smooth="yes"/>
      <point x="160.0" y="1434.0"/>
      <point x="230.0" y="1434.0" type="qcurve" smooth="yes"/>
      <point x="382.0" y="1434.0" type="line" smooth="yes"/>
      <point x="452.0" y="1434.0"/>
      <point x="452.0" y="1359.0" type="qcurve" smooth="yes"/>
      <point x="452.0" y="248.0" type="line"/>
      <point x="978.0" y="248.0" type="line"/>
      <point x="978.0" y="1359.0" type="line" smooth="yes"/>
      <point x="978.0" y="1434.0"/>
      <point x="1048.0" y="1434.0" type="qcurve" smooth="yes"/>
      <point x="1200.0" y="1434.0" type="line" smooth="yes"/>
      <point x="1270.0" y="1434.0"/>
      <point x="1270.0" y="1359.0" type="qcurve" smooth="yes"/>
      <point x="1270.0" y="248.0" type="line"/>
      <point x="1392.0" y="248.0" type="line" smooth="yes"/>
      <point x="1462.0" y="248.0"/>
      <point x="1462.0" y="173.0" type="qcurve" smooth="yes"/>
      <point x="1462.0" y="-300.0" type="line" smooth="yes"/>
      <point x="1462.0" y="-370.0"/>
      <point x="1402.0" y="-370.0" type="qcurve" smooth="yes"/>
      <point x="1272.0" y="-370.0" type="line" smooth="yes"/>
      <point x="1212.0" y="-370.0"/>
      <point x="1212.0" y="-300.0" type="qcurve" smooth="yes"/>
      <point x="1212.0" y="0.0" type="line"/>
    </contour>
  </outline>
</glyph>
<glyph name="afii10043" format="2">
  <advance width="2232"/>
  <unicode hex="0429"/>
  <outline>
    <contour>
      <point x="230.0" y="0.0" type="line" smooth="yes"/>
      <point x="160.0" y="0.0"/>
      <point x="160.0" y="75.0" type="qcurve" smooth="yes"/>
      <point x="160.0" y="1359.0" type="line" smooth="yes"/>
      <point x="160.0" y="1434.0"/>
      <point x="230.0" y="1434.0" type="qcurve" smooth="yes"/>
      <point x="382.0" y="1434.0" type="line" smooth="yes"/>
      <point x="452.0" y="1434.0"/>
      <point x="452.0" y="1359.0" type="qcurve" smooth="yes"/>
      <point x="452.0" y="248.0" type="line"/>
      <point x="924.0" y="248.0" type="line"/>
      <point x="924.0" y="1359.0" type="line" smooth="yes"/>
      <point x="924.0" y="1434.0"/>
      <point x="994.0" y="1434.0" type="qcurve" smooth="yes"/>
      <point x="1146.0" y="1434.0" type="line" smooth="yes"/>
      <point x="1216.0" y="1434.0"/>
      <point x="1216.0" y="1359.0" type="qcurve" smooth="yes"/>
      <point x="1216.0" y="248.0" type="line"/>
      <point x="1688.0" y="248.0" type="line"/>
      <point x="1688.0" y="1359.0" type="line" smooth="yes"/>
      <point x="1688.0" y="1434.0"/>
      <point x="1758.0" y="1434.0" type="qcurve" smooth="yes"/>
      <point x="1910.0" y="1434.0" type="line" smooth="yes"/>
      <point x="1980.0" y="1434.0"/>
      <point x="1980.0" y="1359.0" type="qcurve" smooth="yes"/>
      <point x="1980.0" y="248.0" type="line"/>
      <point x="2102.0" y="248.0" type="line" smooth="yes"/>
      <point x="2172.0" y="248.0"/>
      <point x="2172.0" y="173.0" type="qcurve" smooth="yes"/>
      <point x="2172.0" y="-300.0" type="line" smooth="yes"/>
      <point x="2172.0" y="-370.0"/>
      <point x="2112.0" y="-370.0" type="qcurve" smooth="yes"/>
      <point x="1982.0" y="-370.0" type="line" smooth="yes"/>
      <point x="1922.0" y="-370.0"/>
      <point x="1922.0" y="-300.0" type="qcurve" smooth="yes"/>
      <point x="1922.0" y="0.0" type="line"/>
    </contour>
  </outline>
</glyph>
<glyph name="afii10046" format="2">
  <advance width="1350"/>
  <unicode hex="042C"/>
  <outline>
    <contour>
      <point x="230.0" y="0.0" type="line" smooth="yes"/>
      <point x="160.0" y="0.0"/>
      <point x="160.0" y="75.0" type="qcurve" smooth="yes"/>
      <point x="160.0" y="1359.0" type="line" smooth="yes"/>
      <point x="160.0" y="1434.0"/>
      <point x="230.0" y="1434.0" type="qcurve" smooth="yes"/>
      <point x="382.0" y="1434.0" type="line" smooth="yes"/>
      <point x="452.0" y="1434.0"/>
      <point x="452.0" y="1359.0" type="qcurve" smooth="yes"/>
      <point x="452.0" y="870.0" type="line"/>
      <point x="607.0" y="870.0" type="line" smooth="yes"/>
      <point x="977.0" y="870.0"/>
      <point x="1265.0" y="635.0"/>
      <point x="1265.0" y="435.0" type="qcurve" smooth="yes"/>
      <point x="1265.0" y="235.0"/>
      <point x="977.0" y="0.0"/>
      <point x="607.0" y="0.0" type="qcurve" smooth="yes"/>
    </contour>
    <contour>
      <point x="452.0" y="244.0" type="line"/>
      <point x="578.0" y="244.0" type="line" smooth="yes"/>
      <point x="788.0" y="244.0"/>
      <point x="953.0" y="315.0"/>
      <point x="953.0" y="435.0" type="qcurve" smooth="yes"/>
      <point x="953.0" y="555.0"/>
      <point x="788.0" y="626.0"/>
      <point x="578.0" y="626.0" type="qcurve" smooth="yes"/>
      <point x="452.0" y="626.0" type="line"/>
    </contour>
  </outline>
</glyph>
<glyph name="afii10047" format="2">
  <advance width="1418"/>
  <unicode hex="042D"/>
  <outline>
    <contour>
      <point x="119.0" y="161.0" type="qcurve" smooth="yes"/>
      <point x="71.0" y="222.0"/>
      <point x="115.0" y="261.0" type="qcurve" smooth="yes"/>
      <point x="222.0" y="357.0" type="line" smooth="yes"/>
      <point x="272.0" y="401.0"/>
      <point x="331.0" y="334.0" type="qcurve" smooth="yes"/>
      <point x="367.0" y="292.0"/>
      <point x="516.0" y="202.0"/>
      <point x="642.0" y="202.0" type="qcurve" smooth="yes"/>
      <point x="852.0" y="202.0"/>
      <point x="1001.0" y="424.0"/>
      <point x="1014.0" y="622.0" type="qcurve"/>
      <point x="479.0" y="622.0" type="line" smooth="yes"/>
      <point x="404.0" y="622.0"/>
      <point x="404.0" y="687.0" type="qcurve" smooth="yes"/>
      <point x="404.0" y="805.0" type="line" smooth="yes"/>
      <point x="404.0" y="870.0"/>
      <point x="479.0" y="870.0" type="qcurve" smooth="yes"/>
      <point x="1012.0" y="870.0" type="line"/>
      <point x="994.0" y="1027.0"/>
      <point x="852.0" y="1232.0"/>
      <point x="642.0" y="1232.0" type="qcurve" smooth="yes"/>
      <point x="540.0" y="1232.0"/>
      <point x="384.0" y="1165.0"/>
      <point x="348.0" y="1126.0" type="qcurve" smooth="yes"/>
      <point x="288.0" y="1061.0"/>
      <point x="238.0" y="1107.0" type="qcurve" smooth="yes"/>
      <point x="147.0" y="1190.0" type="line" smooth="yes"/>
      <point x="98.0" y="1234.0"/>
      <point x="152.0" y="1291.0" type="qcurve" smooth="yes"/>
      <point x="248.0" y="1392.0"/>
      <point x="472.0" y="1468.0"/>
      <point x="652.0" y="1468.0" type="qcurve" smooth="yes"/>
      <point x="982.0" y="1468.0"/>
      <point x="1332.0" y="1095.0"/>
      <point x="1332.0" y="717.0" type="qcurve" smooth="yes"/>
      <point x="1332.0" y="339.0"/>
      <point x="977.0" y="-34.0"/>
      <point x="652.0" y="-34.0" type="qcurve" smooth="yes"/>
      <point x="428.0" y="-34.0"/>
      <point x="190.0" y="70.0"/>
    </contour>
  </outline>
</glyph>
<glyph name="afii10072" format="2">
  <advance width="1574"/>
  <unicode hex="0436"/>
  <outline>
    <contour>
      <point x="92.0" y="0.0" type="line" smooth="yes"/>
      <point x="19.0" y="0.0"/>
      <point x="61.0" y="74.0" type="qcurve" smooth="yes"/>
      <point x="230.0" y="372.0" type="line" smooth="yes"/>
      <point x="281.0" y="462.0"/>
      <point x="357.0" y="536.0"/>
      <point x="431.0" y="552.0" type="qcurve"/>
      <point x="431.0" y="554.0" type="line"/>
      <point x="367.0" y="570.0"/>
      <point x="281.0" y="654.0"/>
      <point x="243.0" y="716.0" type="qcurve" smooth="yes"/>
      <point x="83.0" y="976.0" type="line" smooth="yes"/>
      <point x="37.0" y="1050.0"/>
      <point x="114.0" y="1050.0" type="qcurve" smooth="yes"/>
      <point x="274.0" y="1050.0" type="line" smooth="yes"/>
      <point x="328.0" y="1050.0"/>
      <point x="352.0" y="1009.0" type="qcurve" smooth="yes"/>
      <point x="486.0" y="776.0" type="line" smooth="yes"/>
      <point x="513.0" y="729.0"/>
      <point x="579.0" y="648.0"/>
      <point x="631.0" y="648.0" type="qcurve" smooth="yes"/>
      <point x="647.0" y="648.0" type="line"/>
      <point x="647.0" y="990.0" type="line" smooth="yes"/>
      <point x="647.0" y="1050.0"/>
      <point x="707.0" y="1050.0" type="qcurve" smooth="yes"/>
      <point x="867.0" y="1050.0" type="line" smooth="yes"/>
      <point x="927.0" y="1050.0"/>
      <point x="927.0" y="990.0" type="qcurve" smooth="yes"/>
      <point x="927.0" y="648.0" type="line"/>
      <point x="943.0" y="648.0" type="line" smooth="yes"/>
      <point x="995.0" y="648.0"/>
      <point x="1061.0" y="729.0"/>
      <point x="1088.0" y="776.0" type="qcurve" smooth="yes"/>
      <point x="1222.0" y="1009.0" type="line" smooth="yes"/>
      <point x="1246.0" y="1050.0"/>
      <point x="1300.0" y="1050.0" type="qcurve" smooth="yes"/>
      <point x="1460.0" y="1050.0" type="line" smooth="yes"/>
      <point x="1537.0" y="1050.0"/>
      <point x="1491.0" y="976.0" type="qcurve" smooth="yes"/>
      <point x="1331.0" y="716.0" type="line" smooth="yes"/>
      <point x="1293.0" y="654.0"/>
      <point x="1207.0" y="570.0"/>
      <point x="1143.0" y="554.0" type="qcurve"/>
      <point x="1143.0" y="552.0" type="line"/>
      <point x="1217.0" y="536.0"/>
      <point x="1293.0" y="462.0"/>
      <point x="1344.0" y="372.0" type="qcurve" smooth="yes"/>
      <point x="1513.0" y="74.0" type="line" smooth="yes"/>
      <point x="1555.0" y="0.0"/>
      <point x="1482.0" y="0.0" type="qcurve" smooth="yes"/>
      <point x="1315.0" y="0.0" type="line" smooth="yes"/>
      <point x="1260.0" y="0.0"/>
      <point x="1233.0" y="52.0" type="qcurve" smooth="yes"/>
      <point x="1082.0" y="338.0" type="line" smooth="yes"/>
      <point x="1064.0" y="372.0"/>
      <point x="1001.0" y="448.0"/>
      <point x="944.0" y="448.0" type="qcurve" smooth="yes"/>
      <point x="927.0" y="448.0" type="line"/>
      <point x="927.0" y="60.0" type="line" smooth="yes"/>
      <point x="927.0" y="0.0"/>
      <point x="867.0" y="0.0" type="qcurve" smooth="yes"/>
      <point x="707.0" y="0.0" type="line" smooth="yes"/>
      <point x="647.0" y="0.0"/>
      <point x="647.0" y="60.0" type="qcurve" smooth="yes"/>
      <point x="647.0" y="448.0" type="line"/>
      <point x="630.0" y="448.0" type="line" smooth="yes"/>
      <point x="573.0" y="448.0"/>
      <point x="510.0" y="372.0"/>
      <point x="492.0" y="338.0" type="qcurve" smooth="yes"/>
      <point x="341.0" y="52.0" type="line" smooth="yes"/>
      <point x="314.0" y="0.0"/>
      <point x="259.0" y="0.0" type="qcurve" smooth="yes"/>
    </contour>
  </outline>
</glyph>
<glyph name="afii10073" format="2">
  <advance width="1049"/>
  <unicode hex="0437"/>
  <outline>
    <contour>
      <point x="81.0" y="89.0" type="qcurve" smooth="yes"/>
      <point x="37.0" y="123.0"/>
      <point x="74.0" y="171.0" type="qcurve" smooth="yes"/>
      <point x="144.0" y="262.0" type="line" smooth="yes"/>
      <point x="175.0" y="303.0"/>
      <point x="239.0" y="265.0" type="qcurve" smooth="yes"/>
      <point x="282.0" y="239.0"/>
      <point x="402.0" y="176.0"/>
      <point x="476.0" y="176.0" type="qcurve" smooth="yes"/>
      <point x="584.0" y="176.0"/>
      <point x="659.0" y="272.0"/>
      <point x="659.0" y="324.0" type="qcurve" smooth="yes"/>
      <point x="659.0" y="372.0"/>
      <point x="614.0" y="448.0"/>
      <point x="498.0" y="448.0" type="qcurve" smooth="yes"/>
      <point x="353.0" y="448.0" type="line" smooth="yes"/>
      <point x="293.0" y="448.0"/>
      <point x="293.0" y="498.0" type="qcurve" smooth="yes"/>
      <point x="293.0" y="598.0" type="line" smooth="yes"/>
      <point x="293.0" y="648.0"/>
      <point x="353.0" y="648.0" type="qcurve" smooth="yes"/>
      <point x="485.0" y="648.0" type="line" smooth="yes"/>
      <point x="557.0" y="648.0"/>
      <point x="642.0" y="711.0"/>
      <point x="642.0" y="771.0" type="qcurve" smooth="yes"/>
      <point x="642.0" y="828.0"/>
      <point x="532.0" y="874.0"/>
      <point x="458.0" y="874.0" type="qcurve" smooth="yes"/>
      <point x="385.0" y="874.0"/>
      <point x="289.0" y="836.0"/>
      <point x="240.0" y="800.0" type="qcurve" smooth="yes"/>
      <point x="194.0" y="766.0"/>
      <point x="163.0" y="803.0" type="qcurve" smooth="yes"/>
      <point x="86.0" y="897.0" type="line" smooth="yes"/>
      <point x="51.0" y="939.0"/>
      <point x="93.0" y="972.0" type="qcurve" smooth="yes"/>
      <point x="163.0" y="1027.0"/>
      <point x="316.0" y="1070.0"/>
      <point x="458.0" y="1070.0" type="qcurve" smooth="yes"/>
      <point x="655.0" y="1070.0"/>
      <point x="922.0" y="918.0"/>
      <point x="922.0" y="807.0" type="qcurve" smooth="yes"/>
      <point x="922.0" y="699.0"/>
      <point x="809.0" y="582.0"/>
      <point x="742.0" y="559.0" type="qcurve"/>
      <point x="742.0" y="556.0" type="line"/>
      <point x="860.0" y="516.0"/>
      <point x="955.0" y="390.0"/>
      <point x="955.0" y="308.0" type="qcurve" smooth="yes"/>
      <point x="955.0" y="153.0"/>
      <point x="704.0" y="-20.0"/>
      <point x="476.0" y="-20.0" type="qcurve" smooth="yes"/>
      <point x="290.0" y="-20.0"/>
      <point x="131.0" y="51.0"/>
    </contour>
  </outline>
</glyph>
<glyph name="afii10077" format="2">
  <advance width="1194"/>
  <unicode hex="043B"/>
  <outline>
    <contour>
      <point x="63.0" y="-8.0" type="qcurve" smooth="yes"/>
      <point x="32.0" y="5.0"/>
      <point x="38.0" y="33.0" type="qcurve" smooth="yes"/>
      <point x="63.0" y="158.0" type="line" smooth="yes"/>
      <point x="69.0" y="190.0"/>
      <point x="96.0" y="183.0" type="qcurve" smooth="yes"/>
      <point x="124.0" y="176.0"/>
      <point x="146.0" y="176.0" type="qcurve" smooth="yes"/>
      <point x="243.0" y="176.0"/>
      <point x="342.0" y="375.0"/>
      <point x="342.0" y="774.0" type="qcurve" smooth="yes"/>
      <point x="342.0" y="990.0" type="line" smooth="yes"/>
      <point x="342.0" y="1050.0"/>
      <point x="402.0" y="1050.0" type="qcurve" smooth="yes"/>
      <point x="998.0" y="1050.0" type="line" smooth="yes"/>
      <point x="1058.0" y="1050.0"/>
      <point x="1058.0" y="990.0" type="qcurve" smooth="yes"/>
      <point x="1058.0" y="60.0" type="line" smooth="yes"/>
      <point x="1058.0" y="0.0"/>
      <point x="998.0" y="0.0" type="qcurve" smooth="yes"/>
      <point x="838.0" y="0.0" type="line" smooth="yes"/>
      <point x="778.0" y="0.0"/>
      <point x="778.0" y="60.0" type="qcurve" smooth="yes"/>
      <point x="778.0" y="850.0" type="line"/>
      <point x="572.0" y="850.0" type="line"/>
      <point x="572.0" y="723.0" type="line" smooth="yes"/>
      <point x="572.0" y="321.0"/>
      <point x="408.0" y="-20.0"/>
      <point x="168.0" y="-20.0" type="qcurve" smooth="yes"/>
      <point x="92.0" y="-20.0"/>
    </contour>
  </outline>
</glyph>
<glyph name="afii10079" format="2">
  <advance width="1192"/>
  <unicode hex="043D"/>
  <outline>
    <contour>
      <point x="196.0" y="0.0" type="line" smooth="yes"/>
      <point x="136.0" y="0.0"/>
      <point x="136.0" y="60.0" type="qcurve" smooth="yes"/>
      <point x="136.0" y="990.0" type="line" smooth="yes"/>
      <point x="136.0" y="1050.0"/>
      <point x="196.0" y="1050.0" type="qcurve" smooth="yes"/>
      <point x="356.0" y="1050.0" type="line" smooth="yes"/>
      <point x="416.0" y="1050.0"/>
      <point x="416.0" y="990.0" type="qcurve" smooth="yes"/>
      <point x="416.0" y="648.0" type="line"/>
      <point x="776.0" y="648.0" type="line"/>
      <point x="776.0" y="990.0" type="line" smooth="yes"/>
      <point x="776.0" y="1050.0"/>
      <point x="836.0" y="1050.0" type="qcurve" smooth="yes"/>
      <point x="996.0" y="1050.0" type="line" smooth="yes"/>
      <point x="1056.0" y="1050.0"/>
      <point x="1056.0" y="990.0" type="qcurve" smooth="yes"/>
      <point x="1056.0" y="60.0" type="line" smooth="yes"/>
      <point x="1056.0" y="0.0"/>
      <point x="996.0" y="0.0" type="qcurve" smooth="yes"/>
      <point x="836.0" y="0.0" type="line" smooth="yes"/>
      <point x="776.0" y="0.0"/>
      <point x="776.0" y="60.0" type="qcurve" smooth="yes"/>
      <point x="776.0" y="448.0" type="line"/>
      <point x="416.0" y="448.0" type="line"/>
      <point x="416.0" y="60.0" type="line" smooth="yes"/>
      <point x="416.0" y="0.0"/>
      <point x="356.0" y="0.0" type="qcurve" smooth="yes"/>
    </contour>
  </outline>
</glyph>
<glyph name="afii10084" format="2">
  <advance width="1016"/>
  <unicode hex="0442"/>
  <outline>
    <contour>
      <point x="90.0" y="850.0" type="line" smooth="yes"/>
      <point x="30.0" y="850.0"/>
      <point x="30.0" y="900.0" type="qcurve" smooth="yes"/>
      <point x="30.0" y="1000.0" type="line" smooth="yes"/>
      <point x="30.0" y="1050.0"/>
      <point x="90.0" y="1050.0" type="qcurve" smooth="yes"/>
      <point x="926.0" y="1050.0" type="line" smooth="yes"/>
      <point x="986.0" y="1050.0"/>
      <point x="986.0" y="1000.0" type="qcurve" smooth="yes"/>
      <point x="986.0" y="900.0" type="line" smooth="yes"/>
      <point x="986.0" y="850.0"/>
      <point x="926.0" y="850.0" type="qcurve" smooth="yes"/>
      <point x="648.0" y="850.0" type="line"/>
      <point x="648.0" y="60.0" type="line" smooth="yes"/>
      <point x="648.0" y="0.0"/>
      <point x="588.0" y="0.0" type="qcurve" smooth="yes"/>
      <point x="428.0" y="0.0" type="line" smooth="yes"/>
      <point x="368.0" y="0.0"/>
      <point x="368.0" y="60.0" type="qcurve" smooth="yes"/>
      <point x="368.0" y="850.0" type="line"/>
    </contour>
  </outline>
</glyph>
<glyph name="afii10089" format="2">
  <advance width="1130"/>
  <unicode hex="0447"/>
  <outline>
    <contour>
      <point x="100.0" y="736.0" type="qcurve" smooth="yes"/>
      <point x="100.0" y="990.0" type="line" smooth="yes"/>
      <point x="100.0" y="1050.0"/>
      <point x="160.0" y="1050.0" type="qcurve" smooth="yes"/>
      <point x="320.0" y="1050.0" type="line" smooth="yes"/>
      <point x="380.0" y="1050.0"/>
      <point x="380.0" y="990.0" type="qcurve" smooth="yes"/>
      <point x="380.0" y="724.0" type="line" smooth="yes"/>
      <point x="380.0" y="628.0"/>
      <point x="464.0" y="576.0"/>
      <point x="544.0" y="576.0" type="qcurve" smooth="yes"/>
      <point x="586.0" y="576.0"/>
      <point x="676.0" y="594.0"/>
      <point x="714.0" y="646.0" type="qcurve"/>
      <point x="714.0" y="990.0" type="line" smooth="yes"/>
      <point x="714.0" y="1050.0"/>
      <point x="774.0" y="1050.0" type="qcurve" smooth="yes"/>
      <point x="934.0" y="1050.0" type="line" smooth="yes"/>
      <point x="994.0" y="1050.0"/>
      <point x="994.0" y="990.0" type="qcurve" smooth="yes"/>
      <point x="994.0" y="60.0" type="line" smooth="yes"/>
      <point x="994.0" y="0.0"/>
      <point x="934.0" y="0.0" type="qcurve" smooth="yes"/>
      <point x="774.0" y="0.0" type="line" smooth="yes"/>
      <point x="714.0" y="0.0"/>
      <point x="714.0" y="60.0" type="qcurve" smooth="yes"/>
      <point x="714.0" y="356.0" type="line" smooth="yes"/>
      <point x="714.0" y="396.0"/>
      <point x="718.0" y="436.0" type="qcurve"/>
      <point x="712.0" y="436.0" type="line"/>
      <point x="652.0" y="406.0"/>
      <point x="484.0" y="380.0"/>
      <point x="432.0" y="380.0" type="qcurve" smooth="yes"/>
      <point x="250.0" y="380.0"/>
      <point x="100.0" y="578.0"/>
    </contour>
  </outline>
</glyph>
<glyph name="afii10090" format="2">
  <advance width="1774"/>
  <unicode hex="0448"/>
  <outline>
    <contour>
      <point x="196.0" y="0.0" type="line" smooth="yes"/>
      <point x="136.0" y="0.0"/>
      <point x="136.0" y="60.0" type="qcurve" smooth="yes"/>
      <point x="136.0" y="990.0" type="line" smooth="yes"/>
      <point x="136.0" y="1050.0"/>
      <point x="196.0" y="1050.0" type="qcurve" smooth="yes"/>
      <point x="356.0" y="1050.0" type="line" smooth="yes"/>
      <point x="416.0" y="1050.0"/>
      <point x="416.0" y="990.0" type="qcurve" smooth="yes"/>
      <point x="416.0" y="200.0" type="line"/>
      <point x="750.0" y="200.0" type="line"/>
      <point x="750.0" y="990.0" type="line" smooth="yes"/>
      <point x="750.0" y="1050.0"/>
      <point x="810.0" y="1050.0" type="qcurve" smooth="yes"/>
      <point x="970.0" y="1050.0" type="line" smooth="yes"/>
      <point x="1030.0" y="1050.0"/>
      <point x="1030.0" y="990.0" type="qcurve" smooth="yes"/>
      <point x="1030.0" y="200.0" type="line"/>
      <point x="1358.0" y="200.0" type="line"/>
      <point x="1358.0" y="990.0" type="line" smooth="yes"/>
      <point x="1358.0" y="1050.0"/>
      <point x="1418.0" y="1050.0" type="qcurve" smooth="yes"/>
      <point x="1578.0" y="1050.0" type="line" smooth="yes"/>
      <point x="1638.0" y="1050.0"/>
      <point x="1638.0" y="990.0" type="qcurve" smooth="yes"/>
      <point x="1638.0" y="60.0" type="line" smooth="yes"/>
      <point x="1638.0" y="0.0"/>
      <point x="1578.0" y="0.0" type="qcurve" smooth="yes"/>
    </contour>
  </outline>
</glyph>
<glyph name="afii10095" format="2">
  <advance width="1070"/>
  <unicode hex="044D"/>
  <outline>
    <contour>
      <point x="74.0" y="111.0" type="qcurve" smooth="yes"/>
      <point x="36.0" y="148.0"/>
      <point x="79.0" y="192.0" type="qcurve" smooth="yes"/>
      <point x="160.0" y="274.0" type="line" smooth="yes"/>
      <point x="199.0" y="313.0"/>
      <point x="240.0" y="272.0" type="qcurve" smooth="yes"/>
      <point x="276.0" y="236.0"/>
      <point x="370.0" y="176.0"/>
      <point x="469.0" y="176.0" type="qcurve" smooth="yes"/>
      <point x="582.0" y="176.0"/>
      <point x="683.0" y="300.0"/>
      <point x="693.0" y="448.0" type="qcurve"/>
      <point x="341.0" y="448.0" type="line" smooth="yes"/>
      <point x="281.0" y="448.0"/>
      <point x="281.0" y="498.0" type="qcurve" smooth="yes"/>
      <point x="281.0" y="598.0" type="line" smooth="yes"/>
      <point x="281.0" y="648.0"/>
      <point x="341.0" y="648.0" type="qcurve" smooth="yes"/>
      <point x="689.0" y="648.0" type="line"/>
      <point x="679.0" y="758.0"/>
      <point x="578.0" y="874.0"/>
      <point x="469.0" y="874.0" type="qcurve" smooth="yes"/>
      <point x="422.0" y="874.0"/>
      <point x="308.0" y="843.0"/>
      <point x="259.0" y="800.0" type="qcurve" smooth="yes"/>
      <point x="215.0" y="761.0"/>
      <point x="182.0" y="792.0" type="qcurve" smooth="yes"/>
      <point x="98.0" y="870.0" type="line" smooth="yes"/>
      <point x="58.0" y="907.0"/>
      <point x="96.0" y="945.0" type="qcurve" smooth="yes"/>
      <point x="161.0" y="1011.0"/>
      <point x="346.0" y="1070.0"/>
      <point x="469.0" y="1070.0" type="qcurve" smooth="yes"/>
      <point x="734.0" y="1070.0"/>
      <point x="990.0" y="780.0"/>
      <point x="990.0" y="525.0" type="qcurve" smooth="yes"/>
      <point x="990.0" y="270.0"/>
      <point x="734.0" y="-20.0"/>
      <point x="469.0" y="-20.0" type="qcurve" smooth="yes"/>
      <point x="284.0" y="-20.0"/>
      <point x="126.0" y="60.0"/>
    </contour>
  </outline>
</glyph>
<glyph name="afii10097" format="2">
  <advance width="1148"/>
  <unicode hex="044F"/>
  <outline>
    <contour>
      <point x="121.0" y="0.0" type="line" smooth="yes"/>
      <point x="45.0" y="0.0"/>
      <point x="90.0" y="74.0" type="qcurve" smooth="yes"/>
      <point x="240.0" y="319.0" type="line" smooth="yes"/>
      <point x="280.0" y="384.0"/>
      <point x="340.0" y="430.0"/>
      <point x="390.0" y="460.0" type="qcurve"/>
      <point x="390.0" y="462.0" type="line"/>
      <point x="278.0" y="486.0"/>
      <point x="114.0" y="627.0"/>
      <point x="114.0" y="746.0" type="qcurve" smooth="yes"/>
      <point x="114.0" y="867.0"/>
      <point x="276.0" y="1050.0"/>
      <point x="503.0" y="1050.0" type="qcurve" smooth="yes"/>
      <point x="952.0" y="1050.0" type="line" smooth="yes"/>
      <point x="1012.0" y="1050.0"/>
      <point x="1012.0" y="990.0" type="qcurve" smooth="yes"/>
      <point x="1012.0" y="60.0" type="line" smooth="yes"/>
      <point x="1012.0" y="0.0"/>
      <point x="952.0" y="0.0" type="qcurve" smooth="yes"/>
      <point x="792.0" y="0.0" type="line" smooth="yes"/>
      <point x="732.0" y="0.0"/>
      <point x="732.0" y="60.0" type="qcurve" smooth="yes"/>
      <point x="732.0" y="402.0" type="line"/>
      <point x="643.0" y="402.0" type="line" smooth="yes"/>
      <point x="597.0" y="402.0"/>
      <point x="545.0" y="356.0"/>
      <point x="510.0" y="294.0" type="qcurve" smooth="yes"/>
      <point x="374.0" y="52.0" type="line" smooth="yes"/>
      <point x="345.0" y="0.0"/>
      <point x="292.0" y="0.0" type="qcurve" smooth="yes"/>
    </contour>
    <contour>
      <point x="410.0" y="731.0" type="qcurve" smooth="yes"/>
      <point x="410.0" y="646.0"/>
      <point x="540.0" y="598.0"/>
      <point x="640.0" y="598.0" type="qcurve" smooth="yes"/>
      <point x="732.0" y="598.0" type="line"/>
      <point x="732.0" y="854.0" type="line"/>
      <point x="621.0" y="854.0" type="line" smooth="yes"/>
      <point x="498.0" y="854.0"/>
      <point x="410.0" y="795.0"/>
    </contour>
  </outline>
</glyph>
<glyph name="afii10099" format="2">
  <advance width="1222"/>
  <unicode hex="0452"/>
  <outline>
    <contour>
      <point x="107.0" y="870.0" type="line" smooth="yes"/>
      <point x="47.0" y="870.0"/>
      <point x="47.0" y="920.0" type="qcurve" smooth="yes"/>
      <point x="47.0" y="1020.0" type="line" smooth="yes"/>
      <point x="47.0" y="1070.0"/>
      <point x="107.0" y="1070.0" type="qcurve" smooth="yes"/>
      <point x="198.0" y="1070.0" type="line"/>
      <point x="198.0" y="1416.0" type="line" smooth="yes"/>
      <point x="198.0" y="1476.0"/>
      <point x="258.0" y="1476.0" type="qcurve" smooth="yes"/>
      <point x="418.0" y="1476.0" type="line" smooth="yes"/>
      <point x="478.0" y="1476.0"/>
      <point x="478.0" y="1416.0" type="qcurve" smooth="yes"/>
      <point x="478.0" y="1070.0" type="line"/>
      <point x="841.0" y="1070.0" type="line" smooth="yes"/>
      <point x="901.0" y="1070.0"/>
      <point x="901.0" y="1020.0" type="qcurve" smooth="yes"/>
      <point x="901.0" y="920.0" type="line" smooth="yes"/>
      <point x="901.0" y="870.0"/>
      <point x="841.0" y="870.0" type="qcurve" smooth="yes"/>
      <point x="478.0" y="870.0" type="line"/>
      <point x="478.0" y="667.0" type="line" smooth="yes"/>
      <point x="478.0" y="627.0"/>
      <point x="474.0" y="587.0" type="qcurve"/>
      <point x="480.0" y="587.0" type="line"/>
      <point x="526.0" y="666.0"/>
      <point x="663.0" y="725.0"/>
      <point x="758.0" y="725.0" type="qcurve" smooth="yes"/>
      <point x="906.0" y="725.0"/>
      <point x="1127.0" y="537.0"/>
      <point x="1127.0" y="269.0" type="qcurve" smooth="yes"/>
      <point x="1127.0" y="9.0"/>
      <point x="849.0" y="-306.0"/>
      <point x="636.0" y="-396.0" type="qcurve" smooth="yes"/>
      <point x="576.0" y="-421.0"/>
      <point x="558.0" y="-378.0" type="qcurve" smooth="yes"/>
      <point x="525.0" y="-300.0" type="line" smooth="yes"/>
      <point x="508.0" y="-259.0"/>
      <point x="555.0" y="-228.0" type="qcurve" smooth="yes"/>
      <point x="642.0" y="-171.0"/>
      <point x="831.0" y="39.0"/>
      <point x="831.0" y="254.0" type="qcurve" smooth="yes"/>
      <point x="831.0" y="366.0"/>
      <point x="771.0" y="529.0"/>
      <point x="679.0" y="529.0" type="qcurve" smooth="yes"/>
      <point x="579.0" y="529.0"/>
      <point x="478.0" y="360.0"/>
      <point x="478.0" y="149.0" type="qcurve" smooth="yes"/>
      <point x="478.0" y="60.0" type="line" smooth="yes"/>
      <point x="478.0" y="0.0"/>
      <point x="418.0" y="0.0" type="qcurve" smooth="yes"/>
      <point x="258.0" y="0.0" type="line" smooth="yes"/>
      <point x="198.0" y="0.0"/>
      <point x="198.0" y="60.0" type="qcurve" smooth="yes"/>
      <point x="198.0" y="870.0" type="line"/>
    </contour>
  </outline>
</glyph>
<glyph name="afii10108" format="2">
  <advance width="1234"/>
  <unicode hex="045B"/>
  <outline>
    <contour>
      <point x="107.0" y="870.0" type="line" smooth="yes"/>
      <point x="47.0" y="870.0"/>
      <point x="47.0" y="920.0" type="qcurve" smooth="yes"/>
      <point x="47.0" y="1020.0" type="line" smooth="yes"/>
      <point x="47.0" y="1070.0"/>
      <point x="107.0" y="1070.0" type="qcurve" smooth="yes"/>
      <point x="198.0" y="1070.0" type="line"/>
      <point x="198.0" y="1416.0" type="line" smooth="yes"/>
      <point x="198.0" y="1476.0"/>
      <point x="258.0" y="1476.0" type="qcurve" smooth="yes"/>
      <point x="418.0" y="1476.0" type="line" smooth="yes"/>
      <point x="478.0" y="1476.0"/>
      <point x="478.0" y="1416.0" type="qcurve" smooth="yes"/>
      <point x="478.0" y="1070.0" type="line"/>
      <point x="841.0" y="1070.0" type="line" smooth="yes"/>
      <point x="901.0" y="1070.0"/>
      <point x="901.0" y="1020.0" type="qcurve" smooth="yes"/>
      <point x="901.0" y="920.0" type="line" smooth="yes"/>
      <point x="901.0" y="870.0"/>
      <point x="841.0" y="870.0" type="qcurve" smooth="yes"/>
      <point x="478.0" y="870.0" type="line"/>
      <point x="478.0" y="667.0" type="line" smooth="yes"/>
      <point x="478.0" y="627.0"/>
      <point x="474.0" y="587.0" type="qcurve"/>
      <point x="480.0" y="587.0" type="line"/>
      <point x="526.0" y="666.0"/>
      <point x="663.0" y="725.0"/>
      <point x="758.0" y="725.0" type="qcurve" smooth="yes"/>
      <point x="912.0" y="725.0"/>
      <point x="1108.0" y="529.0"/>
      <point x="1108.0" y="269.0" type="qcurve" smooth="yes"/>
      <point x="1108.0" y="60.0" type="line" smooth="yes"/>
      <point x="1108.0" y="0.0"/>
      <point x="1048.0" y="0.0" type="qcurve" smooth="yes"/>
      <point x="888.0" y="0.0" type="line" smooth="yes"/>
      <point x="828.0" y="0.0"/>
      <point x="828.0" y="60.0" type="qcurve" smooth="yes"/>
      <point x="828.0" y="207.0" type="line" smooth="yes"/>
      <point x="828.0" y="405.0"/>
      <point x="771.0" y="529.0"/>
      <point x="679.0" y="529.0" type="qcurve" smooth="yes"/>
      <point x="579.0" y="529.0"/>
      <point x="478.0" y="360.0"/>
      <point x="478.0" y="149.0" type="qcurve" smooth="yes"/>
      <point x="478.0" y="60.0" type="line" smooth="yes"/>
      <point x="478.0" y="0.0"/>
      <point x="418.0" y="0.0" type="qcurve" smooth="yes"/>
      <point x="258.0" y="0.0" type="line" smooth="yes"/>
      <point x="198.0" y="0.0"/>
      <point x="198.0" y="60.0" type="qcurve" smooth="yes"/>
      <point x="198.0" y="870.0" type="line"/>
    </contour>
  </outline>
</glyph>
<glyph name="afii10193" format="2">
  <advance width="1178"/>
  <unicode hex="045F"/>
  <outline>
    <contour>
      <point x="196.0" y="0.0" type="line" smooth="yes"/>
      <point x="136.0" y="0.0"/>
      <point x="136.0" y="60.0" type="qcurve" smooth="yes"/>
      <point x="136.0" y="990.0" type="line" smooth="yes"/>
      <point x="136.0" y="1050.0"/>
      <point x="196.0" y="1050.0" type="qcurve" smooth="yes"/>
      <point x="356.0" y="1050.0" type="line" smooth="yes"/>
      <point x="416.0" y="1050.0"/>
      <point x="416.0" y="990.0" type="qcurve" smooth="yes"/>
      <point x="416.0" y="200.0" type="line"/>
      <point x="762.0" y="200.0" type="line"/>
      <point x="762.0" y="990.0" type="line" smooth="yes"/>
      <point x="762.0" y="1050.0"/>
      <point x="822.0" y="1050.0" type="qcurve" smooth="yes"/>
      <point x="982.0" y="1050.0" type="line" smooth="yes"/>
      <point x="1042.0" y="1050.0"/>
      <point x="1042.0" y="990.0" type="qcurve" smooth="yes"/>
      <point x="1042.0" y="60.0" type="line" smooth="yes"/>
      <point x="1042.0" y="0.0"/>
      <point x="982.0" y="0.0" type="qcurve" smooth="yes"/>
      <point x="704.0" y="0.0" type="line"/>
      <point x="704.0" y="-250.0" type="line" smooth="yes"/>
      <point x="704.0" y="-310.0"/>
      <point x="649.0" y="-310.0" type="qcurve" smooth="yes"/>
      <point x="529.0" y="-310.0" type="line" smooth="yes"/>
      <point x="474.0" y="-310.0"/>
      <point x="474.0" y="-250.0" type="qcurve" smooth="yes"/>
      <point x="474.0" y="0.0" type="line"/>
    </contour>
  </outline>
</glyph>
<glyph name="uni046A" format="2">
  <advance width="2040"/>
  <unicode hex="046A"/>
  <outline>
    <contour>
      <point x="96.0" y="0.0" type="line" smooth="yes"/>
      <point x="5.0" y="0.0"/>
      <point x="58.0" y="86.0" type="qcurve" smooth="yes"/>
      <point x="299.0" y="480.0" type="line" smooth="yes"/>
      <point x="388.0" y="626.0"/>
      <point x="606.0" y="806.0"/>
      <point x="754.0" y="836.0" type="qcurve"/>
      <point x="754.0" y="837.0" type="line"/>
      <point x="330.0" y="1348.0" type="line" smooth="yes"/>
      <point x="259.0" y="1434.0"/>
      <point x="360.0" y="1434.0" type="qcurve" smooth="yes"/>
      <point x="1680.0" y="1434.0" type="line" smooth="yes"/>
      <point x="1781.0" y="1434.0"/>
      <point x="1710.0" y="1348.0" type="qcurve" smooth="yes"/>
      <point x="1286.0" y="837.0" type="line"/>
      <point x="1286.0" y="836.0" type="line"/>
      <point x="1434.0" y="806.0"/>
      <point x="1652.0" y="626.0"/>
      <point x="1741.0" y="480.0" type="qcurve" smooth="yes"/>
      <point x="1982.0" y="86.0" type="line" smooth="yes"/>
      <point x="2035.0" y="0.0"/>
      <point x="1944.0" y="0.0" type="qcurve" smooth="yes"/>
      <point x="1757.0" y="0.0" type="line" smooth="yes"/>
      <point x="1700.0" y="0.0"/>
      <point x="1667.0" y="59.0" type="qcurve" smooth="yes"/>
      <point x="1483.0" y="384.0" type="line" smooth="yes"/>
      <point x="1431.0" y="476.0"/>
      <point x="1267.0" y="611.0"/>
      <point x="1204.0" y="611.0" type="qcurve" smooth="yes"/>
      <point x="1166.0" y="611.0" type="line"/>
      <point x="1166.0" y="75.0" type="line" smooth="yes"/>
      <point x="1166.0" y="0.0"/>
      <point x="1096.0" y="0.0" type="qcurve" smooth="yes"/>
      <point x="944.0" y="0.0" type="line" smooth="yes"/>
      <point x="874.0" y="0.0"/>
      <point x="874.0" y="75.0" type="qcurve" smooth="yes"/>
      <point x="874.0" y="611.0" type="line"/>
      <point x="836.0" y="611.0" type="line" smooth="yes"/>
      <point x="773.0" y="611.0"/>
      <point x="609.0" y="476.0"/>
      <point x="557.0" y="384.0" type="qcurve" smooth="yes"/>
      <point x="373.0" y="59.0" type="line" smooth="yes"/>
      <point x="340.0" y="0.0"/>
      <point x="283.0" y="0.0" type="qcurve" smooth="yes"/>
    </contour>
    <contour>
      <point x="767.0" y="1186.0" type="line"/>
      <point x="1019.0" y="884.0" type="line"/>
      <point x="1021.0" y="884.0" type="line"/>
      <point x="1273.0" y="1186.0" type="line"/>
      <point x="1273.0" y="1194.0" type="line"/>
      <point x="1213.0" y="1186.0"/>
      <point x="1153.0" y="1186.0" type="qcurve" smooth="yes"/>
      <point x="887.0" y="1186.0" type="line" smooth="yes"/>
      <point x="827.0" y="1186.0"/>
      <point x="767.0" y="1194.0" type="qcurve"/>
    </contour>
  </outline>
</glyph>
<glyph name="afii10195" format="2">
  <advance width="1206"/>
  <unicode hex="0473"/>
  <outline>
    <contour>
      <point x="80.0" y="525.0" type="qcurve" smooth="yes"/>
      <point x="80.0" y="780.0"/>
      <point x="343.0" y="1070.0"/>
      <point x="603.0" y="1070.0" type="qcurve" smooth="yes"/>
      <point x="863.0" y="1070.0"/>
      <point x="1126.0" y="780.0"/>
      <point x="1126.0" y="525.0" type="qcurve" smooth="yes"/>
      <point x="1126.0" y="270.0"/>
      <point x="863.0" y="-20.0"/>
      <point x="603.0" y="-20.0" type="qcurve" smooth="yes"/>
      <point x="343.0" y="-20.0"/>
      <point x="80.0" y="270.0"/>
    </contour>
    <contour>
      <point x="379.0" y="448.0" type="line"/>
      <point x="388.0" y="318.0"/>
      <point x="492.0" y="176.0"/>
      <point x="603.0" y="176.0" type="qcurve" smooth="yes"/>
      <point x="714.0" y="176.0"/>
      <point x="818.0" y="318.0"/>
      <point x="827.0" y="448.0" type="qcurve"/>
    </contour>
    <contour>
      <point x="384.0" y="648.0" type="qcurve"/>
      <point x="822.0" y="648.0" type="line"/>
      <point x="808.0" y="744.0"/>
      <point x="714.0" y="874.0"/>
      <point x="603.0" y="874.0" type="qcurve" smooth="yes"/>
      <point x="492.0" y="874.0"/>
      <point x="398.0" y="744.0"/>
    </contour>
  </outline>
</glyph>
<glyph name="uni0492" format="2">
  <advance width="1252"/>
  <unicode hex="0492"/>
  <outline>
    <contour>
      <point x="121.0" y="612.0" type="line" smooth="yes"/>
      <point x="46.0" y="612.0"/>
      <point x="46.0" y="677.0" type="qcurve" smooth="yes"/>
      <point x="46.0" y="795.0" type="line" smooth="yes"/>
      <point x="46.0" y="860.0"/>
      <point x="121.0" y="860.0" type="qcurve" smooth="yes"/>
      <point x="290.0" y="860.0" type="line"/>
      <point x="290.0" y="1359.0" type="line" smooth="yes"/>
      <point x="290.0" y="1434.0"/>
      <point x="360.0" y="1434.0" type="qcurve" smooth="yes"/>
      <point x="1139.0" y="1434.0" type="line" smooth="yes"/>
      <point x="1214.0" y="1434.0"/>
      <point x="1214.0" y="1369.0" type="qcurve" smooth="yes"/>
      <point x="1214.0" y="1251.0" type="line" smooth="yes"/>
      <point x="1214.0" y="1186.0"/>
      <point x="1139.0" y="1186.0" type="qcurve" smooth="yes"/>
      <point x="582.0" y="1186.0" type="line"/>
      <point x="582.0" y="860.0" type="line"/>
      <point x="901.0" y="860.0" type="line" smooth="yes"/>
      <point x="976.0" y="860.0"/>
      <point x="976.0" y="795.0" type="qcurve" smooth="yes"/>
      <point x="976.0" y="677.0" type="line" smooth="yes"/>
      <point x="976.0" y="612.0"/>
      <point x="901.0" y="612.0" type="qcurve" smooth="yes"/>
      <point x="582.0" y="612.0" type="line"/>
      <point x="582.0" y="75.0" type="line" smooth="yes"/>
      <point x="582.0" y="0.0"/>
      <point x="512.0" y="0.0" type="qcurve" smooth="yes"/>
      <point x="360.0" y="0.0" type="line" smooth="yes"/>
      <point x="290.0" y="0.0"/>
      <point x="290.0" y="75.0" type="qcurve" smooth="yes"/>
      <point x="290.0" y="612.0" type="line"/>
    </contour>
  </outline>
</glyph>
<glyph name="uni0493" format="2">
  <advance width="1006"/>
  <unicode hex="0493"/>
  <outline>
    <contour>
      <point x="94.0" y="444.0" type="line" smooth="yes"/>
      <point x="34.0" y="444.0"/>
      <point x="34.0" y="494.0" type="qcurve" smooth="yes"/>
      <point x="34.0" y="594.0" type="line" smooth="yes"/>
      <point x="34.0" y="644.0"/>
      <point x="94.0" y="644.0" type="qcurve" smooth="yes"/>
      <point x="220.0" y="644.0" type="line"/>
      <point x="220.0" y="990.0" type="line" smooth="yes"/>
      <point x="220.0" y="1050.0"/>
      <point x="280.0" y="1050.0" type="qcurve" smooth="yes"/>
      <point x="910.0" y="1050.0" type="line" smooth="yes"/>
      <point x="970.0" y="1050.0"/>
      <point x="970.0" y="1000.0" type="qcurve" smooth="yes"/>
      <point x="970.0" y="900.0" type="line" smooth="yes"/>
      <point x="970.0" y="850.0"/>
      <point x="910.0" y="850.0" type="qcurve" smooth="yes"/>
      <point x="500.0" y="850.0" type="line"/>
      <point x="500.0" y="644.0" type="line"/>
      <point x="718.0" y="644.0" type="line" smooth="yes"/>
      <point x="778.0" y="644.0"/>
      <point x="778.0" y="594.0" type="qcurve" smooth="yes"/>
      <point x="778.0" y="494.0" type="line" smooth="yes"/>
      <point x="778.0" y="444.0"/>
      <point x="718.0" y="444.0" type="qcurve" smooth="yes"/>
      <point x="500.0" y="444.0" type="line"/>
      <point x="500.0" y="60.0" type="line" smooth="yes"/>
      <point x="500.0" y="0.0"/>
      <point x="440.0" y="0.0" type="qcurve" smooth="yes"/>
      <point x="280.0" y="0.0" type="line" smooth="yes"/>
      <point x="220.0" y="0.0"/>
      <point x="220.0" y="60.0" type="qcurve" smooth="yes"/>
      <point x="220.0" y="444.0" type="line"/>
    </contour>
  </outline>
</glyph>
